  0
SECTION
  2
HEADER
  9
$ACADVER
  1
AC1015
  9
$ACADMAINTVER
 70
     6
  9
$DWGCODEPAGE
  3
ANSI_1252
  9
$INSBASE
 10
0.0
 20
0.0
 30
0.0
  9
$EXTMIN
 10
68.055759823
 20
207.8980368426
 30
0.0
  9
$EXTMAX
 10
112.6894881703
 20
233.440937372
 30
0.0
  9
$LIMMIN
 10
0.0
 20
0.0
  9
$LIMMAX
 10
420.0
 20
297.0
  9
$ORTHOMODE
 70
     0
  9
$REGENMODE
 70
     1
  9
$FILLMODE
 70
     1
  9
$QTEXTMODE
 70
     0
  9
$MIRRTEXT
 70
     1
  9
$LTSCALE
 40
1.0
  9
$ATTMODE
 70
     1
  9
$TEXTSIZE
 40
3.5
  9
$TRACEWID
 40
1.0
  9
$TEXTSTYLE
  7
Standard
  9
$CLAYER
  8
0
  9
$CELTYPE
  6
ByLayer
  9
$CECOLOR
 62
   256
  9
$CELTSCALE
 40
1.0
  9
$DISPSILH
 70
     0
  9
$DIMSCALE
 40
1.0
  9
$DIMASZ
 40
3.302
  9
$DIMEXO
 40
1.0
  9
$DIMDLI
 40
3.75
  9
$DIMRND
 40
0.0
  9
$DIMDLE
 40
0.0
  9
$DIMEXE
 40
1.0
  9
$DIMTP
 40
0.0
  9
$DIMTM
 40
0.0
  9
$DIMTXT
 40
3.5
  9
$DIMCEN
 40
2.5
  9
$DIMTSZ
 40
0.0
  9
$DIMTOL
 70
     0
  9
$DIMLIM
 70
     0
  9
$DIMTIH
 70
     1
  9
$DIMTOH
 70
     1
  9
$DIMSE1
 70
     0
  9
$DIMSE2
 70
     0
  9
$DIMTAD
 70
     1
  9
$DIMZIN
 70
     1
  9
$DIMBLK
  1

  9
$DIMASO
 70
     1
  9
$DIMSHO
 70
     1
  9
$DIMPOST
  1

  9
$DIMAPOST
  1

  9
$DIMALT
 70
     0
  9
$DIMALTD
 70
     3
  9
$DIMALTF
 40
0.0393700787
  9
$DIMLFAC
 40
1.0
  9
$DIMTOFL
 70
     1
  9
$DIMTVP
 40
0.0
  9
$DIMTIX
 70
     0
  9
$DIMSOXD
 70
     0
  9
$DIMSAH
 70
     0
  9
$DIMBLK1
  1

  9
$DIMBLK2
  1

  9
$DIMSTYLE
  2
ISO-25
  9
$DIMCLRD
 70
     0
  9
$DIMCLRE
 70
     0
  9
$DIMCLRT
 70
     0
  9
$DIMTFAC
 40
1.0
  9
$DIMGAP
 40
1.524
  9
$DIMJUST
 70
     0
  9
$DIMSD1
 70
     0
  9
$DIMSD2
 70
     0
  9
$DIMTOLJ
 70
     0
  9
$DIMTZIN
 70
     1
  9
$DIMALTZ
 70
     0
  9
$DIMALTTZ
 70
     0
  9
$DIMUPT
 70
     0
  9
$DIMDEC
 70
     2
  9
$DIMTDEC
 70
     2
  9
$DIMALTU
 70
     2
  9
$DIMALTTD
 70
     3
  9
$DIMTXSTY
  7
Standard
  9
$DIMAUNIT
 70
     0
  9
$DIMADEC
 70
     2
  9
$DIMALTRND
 40
0.0
  9
$DIMAZIN
 70
     0
  9
$DIMDSEP
 70
    44
  9
$DIMATFIT
 70
     3
  9
$DIMFRAC
 70
     0
  9
$DIMLDRBLK
  1

  9
$DIMLUNIT
 70
     2
  9
$DIMLWD
 70
    -2
  9
$DIMLWE
 70
    -2
  9
$DIMTMOVE
 70
     0
  9
$LUNITS
 70
     2
  9
$LUPREC
 70
     2
  9
$SKETCHINC
 40
1.0
  9
$FILLETRAD
 40
10.0
  9
$AUNITS
 70
     0
  9
$AUPREC
 70
     2
  9
$MENU
  1
.
  9
$ELEVATION
 40
0.0
  9
$PELEVATION
 40
0.0
  9
$THICKNESS
 40
0.0
  9
$LIMCHECK
 70
     0
  9
$CHAMFERA
 40
0.0
  9
$CHAMFERB
 40
0.0
  9
$CHAMFERC
 40
0.0
  9
$CHAMFERD
 40
0.0
  9
$SKPOLY
 70
     0
  9
$TDCREATE
 40
2459120.725471736
  9
$TDUCREATE
 40
2459120.642138403
  9
$TDUPDATE
 40
2459120.725660336
  9
$TDUUPDATE
 40
2459120.642327002
  9
$TDINDWG
 40
0.0000000116
  9
$TDUSRTIMER
 40
0.0000000116
  9
$USRTIMER
 70
     1
  9
$ANGBASE
 50
0.0
  9
$ANGDIR
 70
     0
  9
$PDMODE
 70
     0
  9
$PDSIZE
 40
-1.0
  9
$PLINEWID
 40
0.0
  9
$SPLFRAME
 70
     0
  9
$SPLINETYPE
 70
     6
  9
$SPLINESEGS
 70
     8
  9
$HANDSEED
  5
320
  9
$SURFTAB1
 70
     6
  9
$SURFTAB2
 70
     6
  9
$SURFTYPE
 70
     6
  9
$SURFU
 70
     6
  9
$SURFV
 70
     6
  9
$UCSBASE
  2

  9
$UCSNAME
  2

  9
$UCSORG
 10
0.0
 20
0.0
 30
0.0
  9
$UCSXDIR
 10
1.0
 20
0.0
 30
0.0
  9
$UCSYDIR
 10
0.0
 20
1.0
 30
0.0
  9
$UCSORTHOREF
  2

  9
$UCSORTHOVIEW
 70
     0
  9
$UCSORGTOP
 10
0.0
 20
0.0
 30
0.0
  9
$UCSORGBOTTOM
 10
0.0
 20
0.0
 30
0.0
  9
$UCSORGLEFT
 10
0.0
 20
0.0
 30
0.0
  9
$UCSORGRIGHT
 10
0.0
 20
0.0
 30
0.0
  9
$UCSORGFRONT
 10
0.0
 20
0.0
 30
0.0
  9
$UCSORGBACK
 10
0.0
 20
0.0
 30
0.0
  9
$PUCSBASE
  2

  9
$PUCSNAME
  2

  9
$PUCSORG
 10
0.0
 20
0.0
 30
0.0
  9
$PUCSXDIR
 10
1.0
 20
0.0
 30
0.0
  9
$PUCSYDIR
 10
0.0
 20
1.0
 30
0.0
  9
$PUCSORTHOREF
  2

  9
$PUCSORTHOVIEW
 70
     0
  9
$PUCSORGTOP
 10
0.0
 20
0.0
 30
0.0
  9
$PUCSORGBOTTOM
 10
0.0
 20
0.0
 30
0.0
  9
$PUCSORGLEFT
 10
0.0
 20
0.0
 30
0.0
  9
$PUCSORGRIGHT
 10
0.0
 20
0.0
 30
0.0
  9
$PUCSORGFRONT
 10
0.0
 20
0.0
 30
0.0
  9
$PUCSORGBACK
 10
0.0
 20
0.0
 30
0.0
  9
$USERI1
 70
     0
  9
$USERI2
 70
     0
  9
$USERI3
 70
     0
  9
$USERI4
 70
     0
  9
$USERI5
 70
     0
  9
$USERR1
 40
0.0
  9
$USERR2
 40
0.0
  9
$USERR3
 40
0.0
  9
$USERR4
 40
0.0
  9
$USERR5
 40
0.0
  9
$WORLDVIEW
 70
     1
  9
$SHADEDGE
 70
     3
  9
$SHADEDIF
 70
    70
  9
$TILEMODE
 70
     1
  9
$MAXACTVP
 70
    64
  9
$PINSBASE
 10
0.0
 20
0.0
 30
0.0
  9
$PLIMCHECK
 70
     0
  9
$PEXTMIN
 10
1.0000000000E+20
 20
1.0000000000E+20
 30
1.0000000000E+20
  9
$PEXTMAX
 10
-1.0000000000E+20
 20
-1.0000000000E+20
 30
-1.0000000000E+20
  9
$PLIMMIN
 10
0.0
 20
0.0
  9
$PLIMMAX
 10
420.0
 20
297.0
  9
$UNITMODE
 70
     0
  9
$VISRETAIN
 70
     1
  9
$PLINEGEN
 70
     0
  9
$PSLTSCALE
 70
     1
  9
$TREEDEPTH
 70
  3020
  9
$CMLSTYLE
  2
Standard
  9
$CMLJUST
 70
     0
  9
$CMLSCALE
 40
20.0
  9
$PROXYGRAPHICS
 70
     1
  9
$MEASUREMENT
 70
     1
  9
$CELWEIGHT
370
    -1
  9
$ENDCAPS
280
     0
  9
$JOINSTYLE
280
     0
  9
$LWDISPLAY
290
     1
  9
$INSUNITS
 70
     4
  9
$HYPERLINKBASE
  1

  9
$STYLESHEET
  1

  9
$XEDIT
290
     1
  9
$CEPSNTYPE
380
     0
  9
$PSTYLEMODE
290
     1
  9
$FINGERPRINTGUID
  2
{ca3a703c-c364-4a29-bab7-8c7e220e9adb}
  9
$VERSIONGUID
  2
{FAEB1C32-E019-11D5-929B-00C0DF256EC4}
  9
$EXTNAMES
290
     1
  9
$PSVPSCALE
 40
0.0
  9
$OLESTARTUP
290
     0
  0
ENDSEC
  0
SECTION
  2
CLASSES
  0
CLASS
  1
ACDBDICTIONARYWDFLT
  2
AcDbDictionaryWithDefault
  3
ObjectDBX Classes
 90
        0
280
     0
281
     0
  0
CLASS
  1
VISUALSTYLE
  2
AcDbVisualStyle
  3
ObjectDBX Classes
 90
     4095
280
     0
281
     0
  0
CLASS
  1
MATERIAL
  2
AcDbMaterial
  3
ObjectDBX Classes
 90
     1153
280
     0
281
     0
  0
CLASS
  1
SCALE
  2
AcDbScale
  3
ObjectDBX Classes
 90
     1153
280
     0
281
     0
  0
CLASS
  1
TABLESTYLE
  2
AcDbTableStyle
  3
ObjectDBX Classes
 90
     4095
280
     0
281
     0
  0
CLASS
  1
MLEADERSTYLE
  2
AcDbMLeaderStyle
  3
ACDB_MLEADERSTYLE_CLASS
 90
     4095
280
     0
281
     0
  0
CLASS
  1
SUN
  2
AcDbSun
  3
SCENEOE
 90
     1153
280
     0
281
     0
  0
CLASS
  1
ACDBPLACEHOLDER
  2
AcDbPlaceHolder
  3
ObjectDBX Classes
 90
        0
280
     0
281
     0
  0
CLASS
  1
LAYOUT
  2
AcDbLayout
  3
ObjectDBX Classes
 90
        0
280
     0
281
     0
  0
ENDSEC
  0
SECTION
  2
TABLES
  0
TABLE
  2
VPORT
  5
8
330
0
100
AcDbSymbolTable
 70
     1
  0
VPORT
  5
29
330
8
100
AcDbSymbolTableRecord
100
AcDbViewportTableRecord
  2
*Active
 70
     0
 10
0.0
 20
0.0
 11
1.0
 21
1.0
 12
90.3726239967
 22
220.6694871073
 13
0.0
 23
0.0
 14
10.0
 24
10.0
 15
10.0
 25
10.0
 16
0.0
 26
0.0
 36
1.0
 17
0.0
 27
0.0
 37
0.0
 40
26.05375854
 41
1.7474025041
 42
50.0
 43
0.0
 44
0.0
 50
0.0
 51
0.0
 71
     0
 72
   100
 73
     1
 74
     3
 75
     0
 76
     0
 77
     0
 78
     0
281
     0
 65
     1
110
0.0
120
0.0
130
0.0
111
1.0
121
0.0
131
0.0
112
0.0
122
1.0
132
0.0
 79
     0
146
0.0
  0
ENDTAB
  0
TABLE
  2
LTYPE
  5
5
330
0
100
AcDbSymbolTable
 70
     6
  0
LTYPE
  5
14
330
5
100
AcDbSymbolTableRecord
100
AcDbLinetypeTableRecord
  2
ByBlock
 70
     0
  3

 72
    65
 73
     0
 40
0.0
  0
LTYPE
  5
15
330
5
100
AcDbSymbolTableRecord
100
AcDbLinetypeTableRecord
  2
ByLayer
 70
     0
  3

 72
    65
 73
     0
 40
0.0
  0
LTYPE
  5
16
330
5
100
AcDbSymbolTableRecord
100
AcDbLinetypeTableRecord
  2
Continuous
 70
     0
  3
Solid line
 72
    65
 73
     0
 40
0.0
  0
LTYPE
  5
6E
330
5
100
AcDbSymbolTableRecord
100
AcDbLinetypeTableRecord
  2
HIDDEN
 70
     0
  3
Hidden __ __ __ __ __ __ __ __ __ __ __ __ __ __
 72
    65
 73
     2
 40
1.905
 49
1.27
 74
     0
 49
-0.635
 74
     0
  0
LTYPE
  5
6F
330
5
100
AcDbSymbolTableRecord
100
AcDbLinetypeTableRecord
  2
PHANTOM
 70
     0
  3
Phantom ______  __  __  ______  __  __  ______
 72
    65
 73
     6
 40
12.7
 49
6.35
 74
     0
 49
-1.27
 74
     0
 49
1.27
 74
     0
 49
-1.27
 74
     0
 49
1.27
 74
     0
 49
-1.27
 74
     0
  0
LTYPE
  5
70
330
5
100
AcDbSymbolTableRecord
100
AcDbLinetypeTableRecord
  2
CENTER
 70
     0
  3
Center ____ _ ____ _ ____ _ ____ _ ____ _ ____
 72
    65
 73
     4
 40
10.16
 49
6.35
 74
     0
 49
-1.27
 74
     0
 49
1.27
 74
     0
 49
-1.27
 74
     0
  0
LTYPE
  5
71
330
5
100
AcDbSymbolTableRecord
100
AcDbLinetypeTableRecord
  2
CENTERX2
 70
     0
  3
Center (2x) ________  __  ________  __  _____
 72
    65
 73
     4
 40
20.32
 49
12.7
 74
     0
 49
-2.54
 74
     0
 49
2.54
 74
     0
 49
-2.54
 74
     0
  0
LTYPE
  5
72
330
5
100
AcDbSymbolTableRecord
100
AcDbLinetypeTableRecord
  2
DOT2
 70
     0
  3
Dot (.5x) ........................................
 72
    65
 73
     2
 40
0.635
 49
0.0
 74
     0
 49
-0.635
 74
     0
  0
ENDTAB
  0
TABLE
  2
LAYER
  5
2
330
0
100
AcDbSymbolTable
 70
     1
  0
LAYER
  5
10
330
2
100
AcDbSymbolTableRecord
100
AcDbLayerTableRecord
  2
0
 70
     0
 62
     7
  6
Continuous
370
    -3
390
F
  0
ENDTAB
  0
TABLE
  2
STYLE
  5
3
330
0
100
AcDbSymbolTable
 70
     1
  0
STYLE
  5
11
330
3
100
AcDbSymbolTableRecord
100
AcDbTextStyleTableRecord
  2
Standard
 70
     0
 40
0.0
 41
1.0
 50
0.0
 71
     0
 42
3.5
  3
txt
  4

  0
ENDTAB
  0
TABLE
  2
VIEW
  5
6
330
0
100
AcDbSymbolTable
 70
     0
  0
ENDTAB
  0
TABLE
  2
UCS
  5
7
330
0
100
AcDbSymbolTable
 70
     0
  0
ENDTAB
  0
TABLE
  2
APPID
  5
9
330
0
100
AcDbSymbolTable
 70
     1
  0
APPID
  5
12
330
9
100
AcDbSymbolTableRecord
100
AcDbRegAppTableRecord
  2
ACAD
 70
     0
  0
ENDTAB
  0
TABLE
  2
DIMSTYLE
  5
A
330
0
100
AcDbSymbolTable
 70
     1
100
AcDbDimStyleTable
  0
DIMSTYLE
105
27
330
A
100
AcDbSymbolTableRecord
100
AcDbDimStyleTableRecord
  2
ISO-25
 70
     0
 41
2.5
 42
0.625
 43
3.75
 44
1.25
 73
     0
 74
     0
 77
     1
 78
     8
140
2.5
141
2.5
143
0.0393700787
147
0.625
171
     3
172
     1
178
     0
271
     2
272
     2
274
     3
278
    44
283
     0
284
     8
340
11
  0
ENDTAB
  0
TABLE
  2
BLOCK_RECORD
  5
1
330
0
100
AcDbSymbolTable
 70
     1
  0
BLOCK_RECORD
  5
1F
330
1
100
AcDbSymbolTableRecord
100
AcDbBlockTableRecord
  2
*Model_Space
340
22
  0
BLOCK_RECORD
  5
1B
330
1
100
AcDbSymbolTableRecord
100
AcDbBlockTableRecord
  2
*Paper_Space
340
1E
  0
BLOCK_RECORD
  5
23
330
1
100
AcDbSymbolTableRecord
100
AcDbBlockTableRecord
  2
*Paper_Space0
340
26
  0
ENDTAB
  0
ENDSEC
  0
SECTION
  2
BLOCKS
  0
BLOCK
  5
20
330
1F
100
AcDbEntity
  8
0
100
AcDbBlockBegin
  2
*Model_Space
 70
     0
 10
0.0
 20
0.0
 30
0.0
  3
*Model_Space
  1

  0
ENDBLK
  5
21
330
1F
100
AcDbEntity
  8
0
100
AcDbBlockEnd
  0
BLOCK
  5
1C
330
1B
100
AcDbEntity
 67
     1
  8
0
100
AcDbBlockBegin
  2
*Paper_Space
 70
     0
 10
0.0
 20
0.0
 30
0.0
  3
*Paper_Space
  1

  0
ENDBLK
  5
1D
330
1B
100
AcDbEntity
 67
     1
  8
0
100
AcDbBlockEnd
  0
BLOCK
  5
24
330
23
100
AcDbEntity
  8
0
100
AcDbBlockBegin
  2
*Paper_Space0
 70
     0
 10
0.0
 20
0.0
 30
0.0
  3
*Paper_Space0
  1

  0
ENDBLK
  5
25
330
23
100
AcDbEntity
  8
0
100
AcDbBlockEnd
  0
ENDSEC
  0
SECTION
  2
ENTITIES
  0
ARC
  5
73
330
1F
100
AcDbEntity
  8
0
  6
Continuous
 62
     7
370
    25
100
AcDbCircle
 10
90.603854882
 20
214.2801188363
 30
0.0
 40
0.1540040557430302
100
AcDbArc
 50
270.0
 51
90.0
  0
LINE
  5
74
330
1F
100
AcDbEntity
  8
0
  6
Continuous
 62
     7
370
    25
100
AcDbLine
 10
89.2178183803
 20
214.1261147806
 30
0.0
 11
90.603854882
 21
214.1261147806
 31
0.0
  0
ARC
  5
75
330
1F
100
AcDbEntity
  8
0
  6
Continuous
 62
     7
370
    25
100
AcDbCircle
 10
89.2178183803
 20
214.2801188363
 30
0.0
 40
0.1540040557430302
100
AcDbArc
 50
90.0
 51
270.0
  0
LINE
  5
76
330
1F
100
AcDbEntity
  8
0
  6
Continuous
 62
     7
370
    25
100
AcDbLine
 10
90.603854882
 20
214.4341228921
 30
0.0
 11
89.2178183803
 21
214.4341228921
 31
0.0
  0
ARC
  5
77
330
1F
100
AcDbEntity
  8
0
  6
Continuous
 62
     7
370
    25
100
AcDbCircle
 10
90.603854882
 20
215.0801188363
 30
0.0
 40
0.1540040557430586
100
AcDbArc
 50
270.0
 51
90.0
  0
LINE
  5
78
330
1F
100
AcDbEntity
  8
0
  6
Continuous
 62
     7
370
    25
100
AcDbLine
 10
89.2178183803
 20
214.9261147806
 30
0.0
 11
90.603854882
 21
214.9261147806
 31
0.0
  0
ARC
  5
79
330
1F
100
AcDbEntity
  8
0
  6
Continuous
 62
     7
370
    25
100
AcDbCircle
 10
89.2178183803
 20
215.0801188363
 30
0.0
 40
0.1540040557430586
100
AcDbArc
 50
90.0
 51
270.0
  0
LINE
  5
7A
330
1F
100
AcDbEntity
  8
0
  6
Continuous
 62
     7
370
    25
100
AcDbLine
 10
90.603854882
 20
215.2341228921
 30
0.0
 11
89.2178183803
 21
215.2341228921
 31
0.0
  0
ARC
  5
7B
330
1F
100
AcDbEntity
  8
0
  6
Continuous
 62
     7
370
    25
100
AcDbCircle
 10
90.603854882
 20
215.8801188363
 30
0.0
 40
0.1540040557430302
100
AcDbArc
 50
270.0
 51
90.0
  0
LINE
  5
7C
330
1F
100
AcDbEntity
  8
0
  6
Continuous
 62
     7
370
    25
100
AcDbLine
 10
89.2178183803
 20
215.7261147806
 30
0.0
 11
90.603854882
 21
215.7261147806
 31
0.0
  0
ARC
  5
7D
330
1F
100
AcDbEntity
  8
0
  6
Continuous
 62
     7
370
    25
100
AcDbCircle
 10
89.2178183803
 20
215.8801188363
 30
0.0
 40
0.1540040557430302
100
AcDbArc
 50
90.0
 51
270.0
  0
LINE
  5
7E
330
1F
100
AcDbEntity
  8
0
  6
Continuous
 62
     7
370
    25
100
AcDbLine
 10
90.603854882
 20
216.0341228921
 30
0.0
 11
89.2178183803
 21
216.0341228921
 31
0.0
  0
ARC
  5
7F
330
1F
100
AcDbEntity
  8
0
  6
Continuous
 62
     7
370
    25
100
AcDbCircle
 10
90.603854882
 20
216.6801188363
 30
0.0
 40
0.1540040557430586
100
AcDbArc
 50
270.0
 51
90.0
  0
LINE
  5
80
330
1F
100
AcDbEntity
  8
0
  6
Continuous
 62
     7
370
    25
100
AcDbLine
 10
89.2178183803
 20
216.5261147806
 30
0.0
 11
90.603854882
 21
216.5261147806
 31
0.0
  0
ARC
  5
81
330
1F
100
AcDbEntity
  8
0
  6
Continuous
 62
     7
370
    25
100
AcDbCircle
 10
89.2178183803
 20
216.6801188363
 30
0.0
 40
0.1540040557430586
100
AcDbArc
 50
90.0
 51
270.0
  0
LINE
  5
82
330
1F
100
AcDbEntity
  8
0
  6
Continuous
 62
     7
370
    25
100
AcDbLine
 10
90.603854882
 20
216.8341228921
 30
0.0
 11
89.2178183803
 21
216.8341228921
 31
0.0
  0
ARC
  5
83
330
1F
100
AcDbEntity
  8
0
  6
Continuous
 62
     7
370
    25
100
AcDbCircle
 10
90.603854882
 20
217.4801188363
 30
0.0
 40
0.1540040557430586
100
AcDbArc
 50
270.0
 51
90.0
  0
LINE
  5
84
330
1F
100
AcDbEntity
  8
0
  6
Continuous
 62
     7
370
    25
100
AcDbLine
 10
89.2178183803
 20
217.3261147806
 30
0.0
 11
90.603854882
 21
217.3261147806
 31
0.0
  0
ARC
  5
85
330
1F
100
AcDbEntity
  8
0
  6
Continuous
 62
     7
370
    25
100
AcDbCircle
 10
89.2178183803
 20
217.4801188363
 30
0.0
 40
0.1540040557430302
100
AcDbArc
 50
90.0
 51
270.0
  0
LINE
  5
86
330
1F
100
AcDbEntity
  8
0
  6
Continuous
 62
     7
370
    25
100
AcDbLine
 10
90.603854882
 20
217.6341228921
 30
0.0
 11
89.2178183803
 21
217.6341228921
 31
0.0
  0
ARC
  5
87
330
1F
100
AcDbEntity
  8
0
  6
Continuous
 62
     7
370
    25
100
AcDbCircle
 10
90.603854882
 20
218.2801188363
 30
0.0
 40
0.1540040557430302
100
AcDbArc
 50
270.0
 51
90.0
  0
LINE
  5
88
330
1F
100
AcDbEntity
  8
0
  6
Continuous
 62
     7
370
    25
100
AcDbLine
 10
89.2178183803
 20
218.1261147806
 30
0.0
 11
90.603854882
 21
218.1261147806
 31
0.0
  0
ARC
  5
89
330
1F
100
AcDbEntity
  8
0
  6
Continuous
 62
     7
370
    25
100
AcDbCircle
 10
89.2178183803
 20
218.2801188363
 30
0.0
 40
0.1540040557430302
100
AcDbArc
 50
90.0
 51
270.0
  0
LINE
  5
8A
330
1F
100
AcDbEntity
  8
0
  6
Continuous
 62
     7
370
    25
100
AcDbLine
 10
90.603854882
 20
218.4341228921
 30
0.0
 11
89.2178183803
 21
218.4341228921
 31
0.0
  0
ARC
  5
8B
330
1F
100
AcDbEntity
  8
0
  6
Continuous
 62
     7
370
    25
100
AcDbCircle
 10
90.603854882
 20
219.0801188363
 30
0.0
 40
0.1540040557430302
100
AcDbArc
 50
270.0
 51
90.0
  0
LINE
  5
8C
330
1F
100
AcDbEntity
  8
0
  6
Continuous
 62
     7
370
    25
100
AcDbLine
 10
89.2178183803
 20
218.9261147806
 30
0.0
 11
90.603854882
 21
218.9261147806
 31
0.0
  0
ARC
  5
8D
330
1F
100
AcDbEntity
  8
0
  6
Continuous
 62
     7
370
    25
100
AcDbCircle
 10
89.2178183803
 20
219.0801188363
 30
0.0
 40
0.1540040557430302
100
AcDbArc
 50
90.0
 51
270.0
  0
LINE
  5
8E
330
1F
100
AcDbEntity
  8
0
  6
Continuous
 62
     7
370
    25
100
AcDbLine
 10
90.603854882
 20
219.2341228921
 30
0.0
 11
89.2178183803
 21
219.2341228921
 31
0.0
  0
ARC
  5
8F
330
1F
100
AcDbEntity
  8
0
  6
Continuous
 62
     7
370
    25
100
AcDbCircle
 10
90.603854882
 20
219.8801188363
 30
0.0
 40
0.1540040557430302
100
AcDbArc
 50
270.0
 51
90.0
  0
LINE
  5
90
330
1F
100
AcDbEntity
  8
0
  6
Continuous
 62
     7
370
    25
100
AcDbLine
 10
89.2178183803
 20
219.7261147806
 30
0.0
 11
90.603854882
 21
219.7261147806
 31
0.0
  0
ARC
  5
91
330
1F
100
AcDbEntity
  8
0
  6
Continuous
 62
     7
370
    25
100
AcDbCircle
 10
89.2178183803
 20
219.8801188363
 30
0.0
 40
0.1540040557430302
100
AcDbArc
 50
90.0
 51
270.0
  0
LINE
  5
92
330
1F
100
AcDbEntity
  8
0
  6
Continuous
 62
     7
370
    25
100
AcDbLine
 10
90.603854882
 20
220.0341228921
 30
0.0
 11
89.2178183803
 21
220.0341228921
 31
0.0
  0
ARC
  5
93
330
1F
100
AcDbEntity
  8
0
  6
Continuous
 62
     7
370
    25
100
AcDbCircle
 10
90.603854882
 20
220.6801188363
 30
0.0
 40
0.1540040557430586
100
AcDbArc
 50
270.0
 51
90.0
  0
LINE
  5
94
330
1F
100
AcDbEntity
  8
0
  6
Continuous
 62
     7
370
    25
100
AcDbLine
 10
89.2178183803
 20
220.5261147806
 30
0.0
 11
90.603854882
 21
220.5261147806
 31
0.0
  0
ARC
  5
95
330
1F
100
AcDbEntity
  8
0
  6
Continuous
 62
     7
370
    25
100
AcDbCircle
 10
89.2178183803
 20
220.6801188363
 30
0.0
 40
0.1540040557430586
100
AcDbArc
 50
90.0
 51
270.0
  0
LINE
  5
96
330
1F
100
AcDbEntity
  8
0
  6
Continuous
 62
     7
370
    25
100
AcDbLine
 10
90.603854882
 20
220.8341228921
 30
0.0
 11
89.2178183803
 21
220.8341228921
 31
0.0
  0
ARC
  5
97
330
1F
100
AcDbEntity
  8
0
  6
Continuous
 62
     7
370
    25
100
AcDbCircle
 10
90.603854882
 20
221.4801188363
 30
0.0
 40
0.1540040557430302
100
AcDbArc
 50
270.0
 51
90.0
  0
LINE
  5
98
330
1F
100
AcDbEntity
  8
0
  6
Continuous
 62
     7
370
    25
100
AcDbLine
 10
89.2178183803
 20
221.3261147806
 30
0.0
 11
90.603854882
 21
221.3261147806
 31
0.0
  0
ARC
  5
99
330
1F
100
AcDbEntity
  8
0
  6
Continuous
 62
     7
370
    25
100
AcDbCircle
 10
89.2178183803
 20
221.4801188363
 30
0.0
 40
0.1540040557430302
100
AcDbArc
 50
90.0
 51
270.0
  0
LINE
  5
9A
330
1F
100
AcDbEntity
  8
0
  6
Continuous
 62
     7
370
    25
100
AcDbLine
 10
90.603854882
 20
221.6341228921
 30
0.0
 11
89.2178183803
 21
221.6341228921
 31
0.0
  0
ARC
  5
9B
330
1F
100
AcDbEntity
  8
0
  6
Continuous
 62
     7
370
    25
100
AcDbCircle
 10
90.603854882
 20
222.2801188363
 30
0.0
 40
0.1540040557430586
100
AcDbArc
 50
270.0
 51
90.0
  0
LINE
  5
9C
330
1F
100
AcDbEntity
  8
0
  6
Continuous
 62
     7
370
    25
100
AcDbLine
 10
89.2178183803
 20
222.1261147806
 30
0.0
 11
90.603854882
 21
222.1261147806
 31
0.0
  0
ARC
  5
9D
330
1F
100
AcDbEntity
  8
0
  6
Continuous
 62
     7
370
    25
100
AcDbCircle
 10
89.2178183803
 20
222.2801188363
 30
0.0
 40
0.1540040557430586
100
AcDbArc
 50
90.0
 51
270.0
  0
LINE
  5
9E
330
1F
100
AcDbEntity
  8
0
  6
Continuous
 62
     7
370
    25
100
AcDbLine
 10
90.603854882
 20
222.4341228921
 30
0.0
 11
89.2178183803
 21
222.4341228921
 31
0.0
  0
ARC
  5
9F
330
1F
100
AcDbEntity
  8
0
  6
Continuous
 62
     7
370
    25
100
AcDbCircle
 10
90.603854882
 20
223.0801188363
 30
0.0
 40
0.1540040557430302
100
AcDbArc
 50
270.0
 51
90.0
  0
LINE
  5
A0
330
1F
100
AcDbEntity
  8
0
  6
Continuous
 62
     7
370
    25
100
AcDbLine
 10
89.2178183803
 20
222.9261147806
 30
0.0
 11
90.603854882
 21
222.9261147806
 31
0.0
  0
ARC
  5
A1
330
1F
100
AcDbEntity
  8
0
  6
Continuous
 62
     7
370
    25
100
AcDbCircle
 10
89.2178183803
 20
223.0801188363
 30
0.0
 40
0.1540040557430302
100
AcDbArc
 50
90.0
 51
270.0
  0
LINE
  5
A2
330
1F
100
AcDbEntity
  8
0
  6
Continuous
 62
     7
370
    25
100
AcDbLine
 10
90.603854882
 20
223.2341228921
 30
0.0
 11
89.2178183803
 21
223.2341228921
 31
0.0
  0
ARC
  5
A3
330
1F
100
AcDbEntity
  8
0
  6
Continuous
 62
     7
370
    25
100
AcDbCircle
 10
90.603854882
 20
223.8801188363
 30
0.0
 40
0.1540040557430302
100
AcDbArc
 50
270.0
 51
90.0
  0
LINE
  5
A4
330
1F
100
AcDbEntity
  8
0
  6
Continuous
 62
     7
370
    25
100
AcDbLine
 10
89.2178183803
 20
223.7261147806
 30
0.0
 11
90.603854882
 21
223.7261147806
 31
0.0
  0
ARC
  5
A5
330
1F
100
AcDbEntity
  8
0
  6
Continuous
 62
     7
370
    25
100
AcDbCircle
 10
89.2178183803
 20
223.8801188363
 30
0.0
 40
0.1540040557430302
100
AcDbArc
 50
90.0
 51
270.0
  0
LINE
  5
A6
330
1F
100
AcDbEntity
  8
0
  6
Continuous
 62
     7
370
    25
100
AcDbLine
 10
90.603854882
 20
224.0341228921
 30
0.0
 11
89.2178183803
 21
224.0341228921
 31
0.0
  0
ARC
  5
A7
330
1F
100
AcDbEntity
  8
0
  6
Continuous
 62
     7
370
    25
100
AcDbCircle
 10
90.603854882
 20
224.6801188363
 30
0.0
 40
0.1540040557430302
100
AcDbArc
 50
270.0
 51
90.0
  0
LINE
  5
A8
330
1F
100
AcDbEntity
  8
0
  6
Continuous
 62
     7
370
    25
100
AcDbLine
 10
89.2178183803
 20
224.5261147806
 30
0.0
 11
90.603854882
 21
224.5261147806
 31
0.0
  0
ARC
  5
A9
330
1F
100
AcDbEntity
  8
0
  6
Continuous
 62
     7
370
    25
100
AcDbCircle
 10
89.2178183803
 20
224.6801188363
 30
0.0
 40
0.1540040557430302
100
AcDbArc
 50
90.0
 51
270.0
  0
LINE
  5
AA
330
1F
100
AcDbEntity
  8
0
  6
Continuous
 62
     7
370
    25
100
AcDbLine
 10
90.603854882
 20
224.8341228921
 30
0.0
 11
89.2178183803
 21
224.8341228921
 31
0.0
  0
ARC
  5
AB
330
1F
100
AcDbEntity
  8
0
  6
Continuous
 62
     7
370
    25
100
AcDbCircle
 10
90.603854882
 20
225.4801188363
 30
0.0
 40
0.1540040557430302
100
AcDbArc
 50
270.0
 51
90.0
  0
LINE
  5
AC
330
1F
100
AcDbEntity
  8
0
  6
Continuous
 62
     7
370
    25
100
AcDbLine
 10
89.2178183803
 20
225.3261147806
 30
0.0
 11
90.603854882
 21
225.3261147806
 31
0.0
  0
ARC
  5
AD
330
1F
100
AcDbEntity
  8
0
  6
Continuous
 62
     7
370
    25
100
AcDbCircle
 10
89.2178183803
 20
225.4801188363
 30
0.0
 40
0.1540040557430302
100
AcDbArc
 50
90.0
 51
270.0
  0
LINE
  5
AE
330
1F
100
AcDbEntity
  8
0
  6
Continuous
 62
     7
370
    25
100
AcDbLine
 10
90.603854882
 20
225.6341228921
 30
0.0
 11
89.2178183803
 21
225.6341228921
 31
0.0
  0
ARC
  5
AF
330
1F
100
AcDbEntity
  8
0
  6
Continuous
 62
     7
370
    25
100
AcDbCircle
 10
90.603854882
 20
226.2801188363
 30
0.0
 40
0.1540040557430586
100
AcDbArc
 50
270.0
 51
90.0
  0
LINE
  5
B0
330
1F
100
AcDbEntity
  8
0
  6
Continuous
 62
     7
370
    25
100
AcDbLine
 10
89.2178183803
 20
226.1261147806
 30
0.0
 11
90.603854882
 21
226.1261147806
 31
0.0
  0
ARC
  5
B1
330
1F
100
AcDbEntity
  8
0
  6
Continuous
 62
     7
370
    25
100
AcDbCircle
 10
89.2178183803
 20
226.2801188363
 30
0.0
 40
0.1540040557430586
100
AcDbArc
 50
90.0
 51
270.0
  0
LINE
  5
B2
330
1F
100
AcDbEntity
  8
0
  6
Continuous
 62
     7
370
    25
100
AcDbLine
 10
90.603854882
 20
226.4341228921
 30
0.0
 11
89.2178183803
 21
226.4341228921
 31
0.0
  0
ARC
  5
B3
330
1F
100
AcDbEntity
  8
0
  6
Continuous
 62
     7
370
    25
100
AcDbCircle
 10
73.7469274137
 20
214.2801188363
 30
0.0
 40
0.1540040557430302
100
AcDbArc
 50
90.0
 51
270.0
  0
LINE
  5
B4
330
1F
100
AcDbEntity
  8
0
  6
Continuous
 62
     7
370
    25
100
AcDbLine
 10
75.1329639154
 20
214.4341228921
 30
0.0
 11
73.7469274137
 21
214.4341228921
 31
0.0
  0
ARC
  5
B5
330
1F
100
AcDbEntity
  8
0
  6
Continuous
 62
     7
370
    25
100
AcDbCircle
 10
75.1329639154
 20
214.2801188363
 30
0.0
 40
0.1540040557430302
100
AcDbArc
 50
270.0
 51
90.0
  0
LINE
  5
B6
330
1F
100
AcDbEntity
  8
0
  6
Continuous
 62
     7
370
    25
100
AcDbLine
 10
73.7469274137
 20
214.1261147806
 30
0.0
 11
75.1329639154
 21
214.1261147806
 31
0.0
  0
ARC
  5
B7
330
1F
100
AcDbEntity
  8
0
  6
Continuous
 62
     7
370
    25
100
AcDbCircle
 10
73.7469274137
 20
215.0801188363
 30
0.0
 40
0.1540040557430586
100
AcDbArc
 50
90.0
 51
270.0
  0
LINE
  5
B8
330
1F
100
AcDbEntity
  8
0
  6
Continuous
 62
     7
370
    25
100
AcDbLine
 10
75.1329639154
 20
215.2341228921
 30
0.0
 11
73.7469274137
 21
215.2341228921
 31
0.0
  0
ARC
  5
B9
330
1F
100
AcDbEntity
  8
0
  6
Continuous
 62
     7
370
    25
100
AcDbCircle
 10
75.1329639154
 20
215.0801188363
 30
0.0
 40
0.1540040557430586
100
AcDbArc
 50
270.0
 51
90.0
  0
LINE
  5
BA
330
1F
100
AcDbEntity
  8
0
  6
Continuous
 62
     7
370
    25
100
AcDbLine
 10
73.7469274137
 20
214.9261147806
 30
0.0
 11
75.1329639154
 21
214.9261147806
 31
0.0
  0
ARC
  5
BB
330
1F
100
AcDbEntity
  8
0
  6
Continuous
 62
     7
370
    25
100
AcDbCircle
 10
73.7469274137
 20
215.8801188363
 30
0.0
 40
0.1540040557430302
100
AcDbArc
 50
90.0
 51
270.0
  0
LINE
  5
BC
330
1F
100
AcDbEntity
  8
0
  6
Continuous
 62
     7
370
    25
100
AcDbLine
 10
75.1329639154
 20
216.0341228921
 30
0.0
 11
73.7469274137
 21
216.0341228921
 31
0.0
  0
ARC
  5
BD
330
1F
100
AcDbEntity
  8
0
  6
Continuous
 62
     7
370
    25
100
AcDbCircle
 10
75.1329639154
 20
215.8801188363
 30
0.0
 40
0.1540040557430302
100
AcDbArc
 50
270.0
 51
90.0
  0
LINE
  5
BE
330
1F
100
AcDbEntity
  8
0
  6
Continuous
 62
     7
370
    25
100
AcDbLine
 10
73.7469274137
 20
215.7261147806
 30
0.0
 11
75.1329639154
 21
215.7261147806
 31
0.0
  0
ARC
  5
BF
330
1F
100
AcDbEntity
  8
0
  6
Continuous
 62
     7
370
    25
100
AcDbCircle
 10
73.7469274137
 20
216.6801188363
 30
0.0
 40
0.1540040557430586
100
AcDbArc
 50
90.0
 51
270.0
  0
LINE
  5
C0
330
1F
100
AcDbEntity
  8
0
  6
Continuous
 62
     7
370
    25
100
AcDbLine
 10
75.1329639154
 20
216.8341228921
 30
0.0
 11
73.7469274137
 21
216.8341228921
 31
0.0
  0
ARC
  5
C1
330
1F
100
AcDbEntity
  8
0
  6
Continuous
 62
     7
370
    25
100
AcDbCircle
 10
75.1329639154
 20
216.6801188363
 30
0.0
 40
0.1540040557430586
100
AcDbArc
 50
270.0
 51
90.0
  0
LINE
  5
C2
330
1F
100
AcDbEntity
  8
0
  6
Continuous
 62
     7
370
    25
100
AcDbLine
 10
73.7469274137
 20
216.5261147806
 30
0.0
 11
75.1329639154
 21
216.5261147806
 31
0.0
  0
ARC
  5
C3
330
1F
100
AcDbEntity
  8
0
  6
Continuous
 62
     7
370
    25
100
AcDbCircle
 10
73.7469274137
 20
217.4801188363
 30
0.0
 40
0.1540040557430586
100
AcDbArc
 50
90.0
 51
270.0
  0
LINE
  5
C4
330
1F
100
AcDbEntity
  8
0
  6
Continuous
 62
     7
370
    25
100
AcDbLine
 10
75.1329639154
 20
217.6341228921
 30
0.0
 11
73.7469274137
 21
217.6341228921
 31
0.0
  0
ARC
  5
C5
330
1F
100
AcDbEntity
  8
0
  6
Continuous
 62
     7
370
    25
100
AcDbCircle
 10
75.1329639154
 20
217.4801188363
 30
0.0
 40
0.1540040557430586
100
AcDbArc
 50
270.0
 51
90.0
  0
LINE
  5
C6
330
1F
100
AcDbEntity
  8
0
  6
Continuous
 62
     7
370
    25
100
AcDbLine
 10
73.7469274137
 20
217.3261147806
 30
0.0
 11
75.1329639154
 21
217.3261147806
 31
0.0
  0
ARC
  5
C7
330
1F
100
AcDbEntity
  8
0
  6
Continuous
 62
     7
370
    25
100
AcDbCircle
 10
73.7469274137
 20
218.2801188363
 30
0.0
 40
0.1540040557430302
100
AcDbArc
 50
90.0
 51
270.0
  0
LINE
  5
C8
330
1F
100
AcDbEntity
  8
0
  6
Continuous
 62
     7
370
    25
100
AcDbLine
 10
75.1329639154
 20
218.4341228921
 30
0.0
 11
73.7469274137
 21
218.4341228921
 31
0.0
  0
ARC
  5
C9
330
1F
100
AcDbEntity
  8
0
  6
Continuous
 62
     7
370
    25
100
AcDbCircle
 10
75.1329639154
 20
218.2801188363
 30
0.0
 40
0.1540040557430302
100
AcDbArc
 50
270.0
 51
90.0
  0
LINE
  5
CA
330
1F
100
AcDbEntity
  8
0
  6
Continuous
 62
     7
370
    25
100
AcDbLine
 10
73.7469274137
 20
218.1261147806
 30
0.0
 11
75.1329639154
 21
218.1261147806
 31
0.0
  0
ARC
  5
CB
330
1F
100
AcDbEntity
  8
0
  6
Continuous
 62
     7
370
    25
100
AcDbCircle
 10
73.7469274137
 20
219.0801188363
 30
0.0
 40
0.1540040557430302
100
AcDbArc
 50
90.0
 51
270.0
  0
LINE
  5
CC
330
1F
100
AcDbEntity
  8
0
  6
Continuous
 62
     7
370
    25
100
AcDbLine
 10
75.1329639154
 20
219.2341228921
 30
0.0
 11
73.7469274137
 21
219.2341228921
 31
0.0
  0
ARC
  5
CD
330
1F
100
AcDbEntity
  8
0
  6
Continuous
 62
     7
370
    25
100
AcDbCircle
 10
75.1329639154
 20
219.0801188363
 30
0.0
 40
0.1540040557430302
100
AcDbArc
 50
270.0
 51
90.0
  0
LINE
  5
CE
330
1F
100
AcDbEntity
  8
0
  6
Continuous
 62
     7
370
    25
100
AcDbLine
 10
73.7469274137
 20
218.9261147806
 30
0.0
 11
75.1329639154
 21
218.9261147806
 31
0.0
  0
ARC
  5
CF
330
1F
100
AcDbEntity
  8
0
  6
Continuous
 62
     7
370
    25
100
AcDbCircle
 10
73.7469274137
 20
219.8801188363
 30
0.0
 40
0.1540040557430302
100
AcDbArc
 50
90.0
 51
270.0
  0
LINE
  5
D0
330
1F
100
AcDbEntity
  8
0
  6
Continuous
 62
     7
370
    25
100
AcDbLine
 10
75.1329639154
 20
220.0341228921
 30
0.0
 11
73.7469274137
 21
220.0341228921
 31
0.0
  0
ARC
  5
D1
330
1F
100
AcDbEntity
  8
0
  6
Continuous
 62
     7
370
    25
100
AcDbCircle
 10
75.1329639154
 20
219.8801188363
 30
0.0
 40
0.1540040557430302
100
AcDbArc
 50
270.0
 51
90.0
  0
LINE
  5
D2
330
1F
100
AcDbEntity
  8
0
  6
Continuous
 62
     7
370
    25
100
AcDbLine
 10
73.7469274137
 20
219.7261147806
 30
0.0
 11
75.1329639154
 21
219.7261147806
 31
0.0
  0
ARC
  5
D3
330
1F
100
AcDbEntity
  8
0
  6
Continuous
 62
     7
370
    25
100
AcDbCircle
 10
73.7469274137
 20
220.6801188363
 30
0.0
 40
0.1540040557430586
100
AcDbArc
 50
90.0
 51
270.0
  0
LINE
  5
D4
330
1F
100
AcDbEntity
  8
0
  6
Continuous
 62
     7
370
    25
100
AcDbLine
 10
75.1329639154
 20
220.8341228921
 30
0.0
 11
73.7469274137
 21
220.8341228921
 31
0.0
  0
ARC
  5
D5
330
1F
100
AcDbEntity
  8
0
  6
Continuous
 62
     7
370
    25
100
AcDbCircle
 10
75.1329639154
 20
220.6801188363
 30
0.0
 40
0.1540040557430586
100
AcDbArc
 50
270.0
 51
90.0
  0
LINE
  5
D6
330
1F
100
AcDbEntity
  8
0
  6
Continuous
 62
     7
370
    25
100
AcDbLine
 10
73.7469274137
 20
220.5261147806
 30
0.0
 11
75.1329639154
 21
220.5261147806
 31
0.0
  0
ARC
  5
D7
330
1F
100
AcDbEntity
  8
0
  6
Continuous
 62
     7
370
    25
100
AcDbCircle
 10
73.7469274137
 20
221.4801188363
 30
0.0
 40
0.1540040557430302
100
AcDbArc
 50
90.0
 51
270.0
  0
LINE
  5
D8
330
1F
100
AcDbEntity
  8
0
  6
Continuous
 62
     7
370
    25
100
AcDbLine
 10
75.1329639154
 20
221.6341228921
 30
0.0
 11
73.7469274137
 21
221.6341228921
 31
0.0
  0
ARC
  5
D9
330
1F
100
AcDbEntity
  8
0
  6
Continuous
 62
     7
370
    25
100
AcDbCircle
 10
75.1329639154
 20
221.4801188363
 30
0.0
 40
0.1540040557430302
100
AcDbArc
 50
270.0
 51
90.0
  0
LINE
  5
DA
330
1F
100
AcDbEntity
  8
0
  6
Continuous
 62
     7
370
    25
100
AcDbLine
 10
73.7469274137
 20
221.3261147806
 30
0.0
 11
75.1329639154
 21
221.3261147806
 31
0.0
  0
ARC
  5
DB
330
1F
100
AcDbEntity
  8
0
  6
Continuous
 62
     7
370
    25
100
AcDbCircle
 10
73.7469274137
 20
222.2801188363
 30
0.0
 40
0.1540040557430586
100
AcDbArc
 50
90.0
 51
270.0
  0
LINE
  5
DC
330
1F
100
AcDbEntity
  8
0
  6
Continuous
 62
     7
370
    25
100
AcDbLine
 10
75.1329639154
 20
222.4341228921
 30
0.0
 11
73.7469274137
 21
222.4341228921
 31
0.0
  0
ARC
  5
DD
330
1F
100
AcDbEntity
  8
0
  6
Continuous
 62
     7
370
    25
100
AcDbCircle
 10
75.1329639154
 20
222.2801188363
 30
0.0
 40
0.1540040557430586
100
AcDbArc
 50
270.0
 51
90.0
  0
LINE
  5
DE
330
1F
100
AcDbEntity
  8
0
  6
Continuous
 62
     7
370
    25
100
AcDbLine
 10
73.7469274137
 20
222.1261147806
 30
0.0
 11
75.1329639154
 21
222.1261147806
 31
0.0
  0
ARC
  5
DF
330
1F
100
AcDbEntity
  8
0
  6
Continuous
 62
     7
370
    25
100
AcDbCircle
 10
73.7469274137
 20
223.0801188363
 30
0.0
 40
0.1540040557430302
100
AcDbArc
 50
90.0
 51
270.0
  0
LINE
  5
E0
330
1F
100
AcDbEntity
  8
0
  6
Continuous
 62
     7
370
    25
100
AcDbLine
 10
75.1329639154
 20
223.2341228921
 30
0.0
 11
73.7469274137
 21
223.2341228921
 31
0.0
  0
ARC
  5
E1
330
1F
100
AcDbEntity
  8
0
  6
Continuous
 62
     7
370
    25
100
AcDbCircle
 10
75.1329639154
 20
223.0801188363
 30
0.0
 40
0.1540040557430302
100
AcDbArc
 50
270.0
 51
90.0
  0
LINE
  5
E2
330
1F
100
AcDbEntity
  8
0
  6
Continuous
 62
     7
370
    25
100
AcDbLine
 10
73.7469274137
 20
222.9261147806
 30
0.0
 11
75.1329639154
 21
222.9261147806
 31
0.0
  0
ARC
  5
E3
330
1F
100
AcDbEntity
  8
0
  6
Continuous
 62
     7
370
    25
100
AcDbCircle
 10
73.7469274137
 20
223.8801188363
 30
0.0
 40
0.1540040557430302
100
AcDbArc
 50
90.0
 51
270.0
  0
LINE
  5
E4
330
1F
100
AcDbEntity
  8
0
  6
Continuous
 62
     7
370
    25
100
AcDbLine
 10
75.1329639154
 20
224.0341228921
 30
0.0
 11
73.7469274137
 21
224.0341228921
 31
0.0
  0
ARC
  5
E5
330
1F
100
AcDbEntity
  8
0
  6
Continuous
 62
     7
370
    25
100
AcDbCircle
 10
75.1329639154
 20
223.8801188363
 30
0.0
 40
0.1540040557430302
100
AcDbArc
 50
270.0
 51
90.0
  0
LINE
  5
E6
330
1F
100
AcDbEntity
  8
0
  6
Continuous
 62
     7
370
    25
100
AcDbLine
 10
73.7469274137
 20
223.7261147806
 30
0.0
 11
75.1329639154
 21
223.7261147806
 31
0.0
  0
ARC
  5
E7
330
1F
100
AcDbEntity
  8
0
  6
Continuous
 62
     7
370
    25
100
AcDbCircle
 10
73.7469274137
 20
224.6801188363
 30
0.0
 40
0.1540040557430302
100
AcDbArc
 50
90.0
 51
270.0
  0
LINE
  5
E8
330
1F
100
AcDbEntity
  8
0
  6
Continuous
 62
     7
370
    25
100
AcDbLine
 10
75.1329639154
 20
224.8341228921
 30
0.0
 11
73.7469274137
 21
224.8341228921
 31
0.0
  0
ARC
  5
E9
330
1F
100
AcDbEntity
  8
0
  6
Continuous
 62
     7
370
    25
100
AcDbCircle
 10
75.1329639154
 20
224.6801188363
 30
0.0
 40
0.1540040557430302
100
AcDbArc
 50
270.0
 51
90.0
  0
LINE
  5
EA
330
1F
100
AcDbEntity
  8
0
  6
Continuous
 62
     7
370
    25
100
AcDbLine
 10
73.7469274137
 20
224.5261147806
 30
0.0
 11
75.1329639154
 21
224.5261147806
 31
0.0
  0
ARC
  5
EB
330
1F
100
AcDbEntity
  8
0
  6
Continuous
 62
     7
370
    25
100
AcDbCircle
 10
73.7469274137
 20
225.4801188363
 30
0.0
 40
0.1540040557430302
100
AcDbArc
 50
90.0
 51
270.0
  0
LINE
  5
EC
330
1F
100
AcDbEntity
  8
0
  6
Continuous
 62
     7
370
    25
100
AcDbLine
 10
75.1329639154
 20
225.6341228921
 30
0.0
 11
73.7469274137
 21
225.6341228921
 31
0.0
  0
ARC
  5
ED
330
1F
100
AcDbEntity
  8
0
  6
Continuous
 62
     7
370
    25
100
AcDbCircle
 10
75.1329639154
 20
225.4801188363
 30
0.0
 40
0.1540040557430302
100
AcDbArc
 50
270.0
 51
90.0
  0
LINE
  5
EE
330
1F
100
AcDbEntity
  8
0
  6
Continuous
 62
     7
370
    25
100
AcDbLine
 10
73.7469274137
 20
225.3261147806
 30
0.0
 11
75.1329639154
 21
225.3261147806
 31
0.0
  0
ARC
  5
EF
330
1F
100
AcDbEntity
  8
0
  6
Continuous
 62
     7
370
    25
100
AcDbCircle
 10
73.7469274137
 20
226.2801188363
 30
0.0
 40
0.1540040557430586
100
AcDbArc
 50
90.0
 51
270.0
  0
LINE
  5
F0
330
1F
100
AcDbEntity
  8
0
  6
Continuous
 62
     7
370
    25
100
AcDbLine
 10
75.1329639154
 20
226.4341228921
 30
0.0
 11
73.7469274137
 21
226.4341228921
 31
0.0
  0
ARC
  5
F1
330
1F
100
AcDbEntity
  8
0
  6
Continuous
 62
     7
370
    25
100
AcDbCircle
 10
75.1329639154
 20
226.2801188363
 30
0.0
 40
0.1540040557430586
100
AcDbArc
 50
270.0
 51
90.0
  0
LINE
  5
F2
330
1F
100
AcDbEntity
  8
0
  6
Continuous
 62
     7
370
    25
100
AcDbLine
 10
73.7469274137
 20
226.1261147806
 30
0.0
 11
75.1329639154
 21
226.1261147806
 31
0.0
  0
ARC
  5
F3
330
1F
100
AcDbEntity
  8
0
  6
Continuous
 62
     7
370
    25
100
AcDbCircle
 10
88.3512431808
 20
213.3802492181
 30
0.0
 40
0.1847991589692981
100
AcDbArc
 50
0.0
 51
180.0
  0
LINE
  5
F4
330
1F
100
AcDbEntity
  8
0
  6
Continuous
 62
     7
370
    25
100
AcDbLine
 10
88.5360423397
 20
212.1577317049
 30
0.0
 11
88.5360423397
 21
213.3802492181
 31
0.0
  0
ARC
  5
F5
330
1F
100
AcDbEntity
  8
0
  6
Continuous
 62
     7
370
    25
100
AcDbCircle
 10
88.3512431808
 20
212.1577317049
 30
0.0
 40
0.1847991589692981
100
AcDbArc
 50
180.0
 51
0.0
  0
LINE
  5
F6
330
1F
100
AcDbEntity
  8
0
  6
Continuous
 62
     7
370
    25
100
AcDbLine
 10
88.1664440218
 20
213.3802492181
 30
0.0
 11
88.1664440218
 21
212.1577317049
 31
0.0
  0
ARC
  5
F7
330
1F
100
AcDbEntity
  8
0
  6
Continuous
 62
     7
370
    25
100
AcDbCircle
 10
87.5512431808
 20
213.3802492181
 30
0.0
 40
0.1847991589692981
100
AcDbArc
 50
0.0
 51
180.0
  0
LINE
  5
F8
330
1F
100
AcDbEntity
  8
0
  6
Continuous
 62
     7
370
    25
100
AcDbLine
 10
87.7360423397
 20
212.1577317049
 30
0.0
 11
87.7360423397
 21
213.3802492181
 31
0.0
  0
ARC
  5
F9
330
1F
100
AcDbEntity
  8
0
  6
Continuous
 62
     7
370
    25
100
AcDbCircle
 10
87.5512431808
 20
212.1577317049
 30
0.0
 40
0.1847991589692981
100
AcDbArc
 50
180.0
 51
0.0
  0
LINE
  5
FA
330
1F
100
AcDbEntity
  8
0
  6
Continuous
 62
     7
370
    25
100
AcDbLine
 10
87.3664440218
 20
213.3802492181
 30
0.0
 11
87.3664440218
 21
212.1577317049
 31
0.0
  0
ARC
  5
FB
330
1F
100
AcDbEntity
  8
0
  6
Continuous
 62
     7
370
    25
100
AcDbCircle
 10
86.7512431808
 20
213.3802492181
 30
0.0
 40
0.1847991589692981
100
AcDbArc
 50
0.0
 51
180.0
  0
LINE
  5
FC
330
1F
100
AcDbEntity
  8
0
  6
Continuous
 62
     7
370
    25
100
AcDbLine
 10
86.9360423397
 20
212.1577317049
 30
0.0
 11
86.9360423397
 21
213.3802492181
 31
0.0
  0
ARC
  5
FD
330
1F
100
AcDbEntity
  8
0
  6
Continuous
 62
     7
370
    25
100
AcDbCircle
 10
86.7512431808
 20
212.1577317049
 30
0.0
 40
0.1847991589692981
100
AcDbArc
 50
180.0
 51
0.0
  0
LINE
  5
FE
330
1F
100
AcDbEntity
  8
0
  6
Continuous
 62
     7
370
    25
100
AcDbLine
 10
86.5664440218
 20
213.3802492181
 30
0.0
 11
86.5664440218
 21
212.1577317049
 31
0.0
  0
ARC
  5
FF
330
1F
100
AcDbEntity
  8
0
  6
Continuous
 62
     7
370
    25
100
AcDbCircle
 10
85.9512431808
 20
213.3802492181
 30
0.0
 40
0.1847991589692981
100
AcDbArc
 50
0.0
 51
180.0
  0
LINE
  5
100
330
1F
100
AcDbEntity
  8
0
  6
Continuous
 62
     7
370
    25
100
AcDbLine
 10
86.1360423397
 20
212.1577317049
 30
0.0
 11
86.1360423397
 21
213.3802492181
 31
0.0
  0
ARC
  5
101
330
1F
100
AcDbEntity
  8
0
  6
Continuous
 62
     7
370
    25
100
AcDbCircle
 10
85.9512431808
 20
212.1577317049
 30
0.0
 40
0.1847991589692981
100
AcDbArc
 50
180.0
 51
0.0
  0
LINE
  5
102
330
1F
100
AcDbEntity
  8
0
  6
Continuous
 62
     7
370
    25
100
AcDbLine
 10
85.7664440218
 20
213.3802492181
 30
0.0
 11
85.7664440218
 21
212.1577317049
 31
0.0
  0
ARC
  5
103
330
1F
100
AcDbEntity
  8
0
  6
Continuous
 62
     7
370
    25
100
AcDbCircle
 10
85.1512431808
 20
213.3802492181
 30
0.0
 40
0.1847991589692981
100
AcDbArc
 50
0.0
 51
180.0
  0
LINE
  5
104
330
1F
100
AcDbEntity
  8
0
  6
Continuous
 62
     7
370
    25
100
AcDbLine
 10
85.3360423397
 20
212.1577317049
 30
0.0
 11
85.3360423397
 21
213.3802492181
 31
0.0
  0
ARC
  5
105
330
1F
100
AcDbEntity
  8
0
  6
Continuous
 62
     7
370
    25
100
AcDbCircle
 10
85.1512431808
 20
212.1577317049
 30
0.0
 40
0.1847991589692981
100
AcDbArc
 50
180.0
 51
0.0
  0
LINE
  5
106
330
1F
100
AcDbEntity
  8
0
  6
Continuous
 62
     7
370
    25
100
AcDbLine
 10
84.9664440218
 20
213.3802492181
 30
0.0
 11
84.9664440218
 21
212.1577317049
 31
0.0
  0
ARC
  5
107
330
1F
100
AcDbEntity
  8
0
  6
Continuous
 62
     7
370
    25
100
AcDbCircle
 10
84.3512431808
 20
213.3802492181
 30
0.0
 40
0.1847991589692981
100
AcDbArc
 50
0.0
 51
180.0
  0
LINE
  5
108
330
1F
100
AcDbEntity
  8
0
  6
Continuous
 62
     7
370
    25
100
AcDbLine
 10
84.5360423397
 20
212.1577317049
 30
0.0
 11
84.5360423397
 21
213.3802492181
 31
0.0
  0
ARC
  5
109
330
1F
100
AcDbEntity
  8
0
  6
Continuous
 62
     7
370
    25
100
AcDbCircle
 10
84.3512431808
 20
212.1577317049
 30
0.0
 40
0.1847991589692981
100
AcDbArc
 50
180.0
 51
0.0
  0
LINE
  5
10A
330
1F
100
AcDbEntity
  8
0
  6
Continuous
 62
     7
370
    25
100
AcDbLine
 10
84.1664440218
 20
213.3802492181
 30
0.0
 11
84.1664440218
 21
212.1577317049
 31
0.0
  0
ARC
  5
10B
330
1F
100
AcDbEntity
  8
0
  6
Continuous
 62
     7
370
    25
100
AcDbCircle
 10
83.5512431808
 20
213.3802492181
 30
0.0
 40
0.1847991589692981
100
AcDbArc
 50
0.0
 51
180.0
  0
LINE
  5
10C
330
1F
100
AcDbEntity
  8
0
  6
Continuous
 62
     7
370
    25
100
AcDbLine
 10
83.7360423397
 20
212.1577317049
 30
0.0
 11
83.7360423397
 21
213.3802492181
 31
0.0
  0
ARC
  5
10D
330
1F
100
AcDbEntity
  8
0
  6
Continuous
 62
     7
370
    25
100
AcDbCircle
 10
83.5512431808
 20
212.1577317049
 30
0.0
 40
0.1847991589692981
100
AcDbArc
 50
180.0
 51
0.0
  0
LINE
  5
10E
330
1F
100
AcDbEntity
  8
0
  6
Continuous
 62
     7
370
    25
100
AcDbLine
 10
83.3664440218
 20
213.3802492181
 30
0.0
 11
83.3664440218
 21
212.1577317049
 31
0.0
  0
ARC
  5
10F
330
1F
100
AcDbEntity
  8
0
  6
Continuous
 62
     7
370
    25
100
AcDbCircle
 10
82.7512431808
 20
213.3802492181
 30
0.0
 40
0.1847991589692981
100
AcDbArc
 50
0.0
 51
180.0
  0
LINE
  5
110
330
1F
100
AcDbEntity
  8
0
  6
Continuous
 62
     7
370
    25
100
AcDbLine
 10
82.9360423397
 20
212.1577317049
 30
0.0
 11
82.9360423397
 21
213.3802492181
 31
0.0
  0
ARC
  5
111
330
1F
100
AcDbEntity
  8
0
  6
Continuous
 62
     7
370
    25
100
AcDbCircle
 10
82.7512431808
 20
212.1577317049
 30
0.0
 40
0.1847991589692981
100
AcDbArc
 50
180.0
 51
0.0
  0
LINE
  5
112
330
1F
100
AcDbEntity
  8
0
  6
Continuous
 62
     7
370
    25
100
AcDbLine
 10
82.5664440218
 20
213.3802492181
 30
0.0
 11
82.5664440218
 21
212.1577317049
 31
0.0
  0
ARC
  5
113
330
1F
100
AcDbEntity
  8
0
  6
Continuous
 62
     7
370
    25
100
AcDbCircle
 10
81.9512431808
 20
213.3802492181
 30
0.0
 40
0.1847991589692981
100
AcDbArc
 50
0.0
 51
180.0
  0
LINE
  5
114
330
1F
100
AcDbEntity
  8
0
  6
Continuous
 62
     7
370
    25
100
AcDbLine
 10
82.1360423397
 20
212.1577317049
 30
0.0
 11
82.1360423397
 21
213.3802492181
 31
0.0
  0
ARC
  5
115
330
1F
100
AcDbEntity
  8
0
  6
Continuous
 62
     7
370
    25
100
AcDbCircle
 10
81.9512431808
 20
212.1577317049
 30
0.0
 40
0.1847991589692981
100
AcDbArc
 50
180.0
 51
0.0
  0
LINE
  5
116
330
1F
100
AcDbEntity
  8
0
  6
Continuous
 62
     7
370
    25
100
AcDbLine
 10
81.7664440218
 20
213.3802492181
 30
0.0
 11
81.7664440218
 21
212.1577317049
 31
0.0
  0
ARC
  5
117
330
1F
100
AcDbEntity
  8
0
  6
Continuous
 62
     7
370
    25
100
AcDbCircle
 10
81.1512431808
 20
213.3802492181
 30
0.0
 40
0.1847991589692981
100
AcDbArc
 50
0.0
 51
180.0
  0
LINE
  5
118
330
1F
100
AcDbEntity
  8
0
  6
Continuous
 62
     7
370
    25
100
AcDbLine
 10
81.3360423397
 20
212.1577317049
 30
0.0
 11
81.3360423397
 21
213.3802492181
 31
0.0
  0
ARC
  5
119
330
1F
100
AcDbEntity
  8
0
  6
Continuous
 62
     7
370
    25
100
AcDbCircle
 10
81.1512431808
 20
212.1577317049
 30
0.0
 40
0.1847991589692981
100
AcDbArc
 50
180.0
 51
0.0
  0
LINE
  5
11A
330
1F
100
AcDbEntity
  8
0
  6
Continuous
 62
     7
370
    25
100
AcDbLine
 10
80.9664440218
 20
213.3802492181
 30
0.0
 11
80.9664440218
 21
212.1577317049
 31
0.0
  0
ARC
  5
11B
330
1F
100
AcDbEntity
  8
0
  6
Continuous
 62
     7
370
    25
100
AcDbCircle
 10
80.3512431808
 20
213.3802492181
 30
0.0
 40
0.1847991589692981
100
AcDbArc
 50
0.0
 51
180.0
  0
LINE
  5
11C
330
1F
100
AcDbEntity
  8
0
  6
Continuous
 62
     7
370
    25
100
AcDbLine
 10
80.5360423397
 20
212.1577317049
 30
0.0
 11
80.5360423397
 21
213.3802492181
 31
0.0
  0
ARC
  5
11D
330
1F
100
AcDbEntity
  8
0
  6
Continuous
 62
     7
370
    25
100
AcDbCircle
 10
80.3512431808
 20
212.1577317049
 30
0.0
 40
0.1847991589692981
100
AcDbArc
 50
180.0
 51
0.0
  0
LINE
  5
11E
330
1F
100
AcDbEntity
  8
0
  6
Continuous
 62
     7
370
    25
100
AcDbLine
 10
80.1664440218
 20
213.3802492181
 30
0.0
 11
80.1664440218
 21
212.1577317049
 31
0.0
  0
ARC
  5
11F
330
1F
100
AcDbEntity
  8
0
  6
Continuous
 62
     7
370
    25
100
AcDbCircle
 10
79.5512431808
 20
213.3802492181
 30
0.0
 40
0.1847991589692981
100
AcDbArc
 50
0.0
 51
180.0
  0
LINE
  5
120
330
1F
100
AcDbEntity
  8
0
  6
Continuous
 62
     7
370
    25
100
AcDbLine
 10
79.7360423397
 20
212.1577317049
 30
0.0
 11
79.7360423397
 21
213.3802492181
 31
0.0
  0
ARC
  5
121
330
1F
100
AcDbEntity
  8
0
  6
Continuous
 62
     7
370
    25
100
AcDbCircle
 10
79.5512431808
 20
212.1577317049
 30
0.0
 40
0.1847991589692981
100
AcDbArc
 50
180.0
 51
0.0
  0
LINE
  5
122
330
1F
100
AcDbEntity
  8
0
  6
Continuous
 62
     7
370
    25
100
AcDbLine
 10
79.3664440218
 20
213.3802492181
 30
0.0
 11
79.3664440218
 21
212.1577317049
 31
0.0
  0
ARC
  5
123
330
1F
100
AcDbEntity
  8
0
  6
Continuous
 62
     7
370
    25
100
AcDbCircle
 10
78.7512431808
 20
213.3802492181
 30
0.0
 40
0.1847991589692981
100
AcDbArc
 50
0.0
 51
180.0
  0
LINE
  5
124
330
1F
100
AcDbEntity
  8
0
  6
Continuous
 62
     7
370
    25
100
AcDbLine
 10
78.9360423397
 20
212.1577317049
 30
0.0
 11
78.9360423397
 21
213.3802492181
 31
0.0
  0
ARC
  5
125
330
1F
100
AcDbEntity
  8
0
  6
Continuous
 62
     7
370
    25
100
AcDbCircle
 10
78.7512431808
 20
212.1577317049
 30
0.0
 40
0.1847991589692981
100
AcDbArc
 50
180.0
 51
0.0
  0
LINE
  5
126
330
1F
100
AcDbEntity
  8
0
  6
Continuous
 62
     7
370
    25
100
AcDbLine
 10
78.5664440218
 20
213.3802492181
 30
0.0
 11
78.5664440218
 21
212.1577317049
 31
0.0
  0
ARC
  5
127
330
1F
100
AcDbEntity
  8
0
  6
Continuous
 62
     7
370
    25
100
AcDbCircle
 10
77.9512431808
 20
213.3802492181
 30
0.0
 40
0.1847991589692981
100
AcDbArc
 50
0.0
 51
180.0
  0
LINE
  5
128
330
1F
100
AcDbEntity
  8
0
  6
Continuous
 62
     7
370
    25
100
AcDbLine
 10
78.1360423397
 20
212.1577317049
 30
0.0
 11
78.1360423397
 21
213.3802492181
 31
0.0
  0
ARC
  5
129
330
1F
100
AcDbEntity
  8
0
  6
Continuous
 62
     7
370
    25
100
AcDbCircle
 10
77.9512431808
 20
212.1577317049
 30
0.0
 40
0.1847991589692981
100
AcDbArc
 50
180.0
 51
0.0
  0
LINE
  5
12A
330
1F
100
AcDbEntity
  8
0
  6
Continuous
 62
     7
370
    25
100
AcDbLine
 10
77.7664440218
 20
213.3802492181
 30
0.0
 11
77.7664440218
 21
212.1577317049
 31
0.0
  0
ARC
  5
12B
330
1F
100
AcDbEntity
  8
0
  6
Continuous
 62
     7
370
    25
100
AcDbCircle
 10
77.1512431808
 20
213.3802492181
 30
0.0
 40
0.1847991589692981
100
AcDbArc
 50
0.0
 51
180.0
  0
LINE
  5
12C
330
1F
100
AcDbEntity
  8
0
  6
Continuous
 62
     7
370
    25
100
AcDbLine
 10
77.3360423397
 20
212.1577317049
 30
0.0
 11
77.3360423397
 21
213.3802492181
 31
0.0
  0
ARC
  5
12D
330
1F
100
AcDbEntity
  8
0
  6
Continuous
 62
     7
370
    25
100
AcDbCircle
 10
77.1512431808
 20
212.1577317049
 30
0.0
 40
0.1847991589692981
100
AcDbArc
 50
180.0
 51
0.0
  0
LINE
  5
12E
330
1F
100
AcDbEntity
  8
0
  6
Continuous
 62
     7
370
    25
100
AcDbLine
 10
76.9664440218
 20
213.3802492181
 30
0.0
 11
76.9664440218
 21
212.1577317049
 31
0.0
  0
ARC
  5
12F
330
1F
100
AcDbEntity
  8
0
  6
Continuous
 62
     7
370
    25
100
AcDbCircle
 10
76.3512431808
 20
213.3802492181
 30
0.0
 40
0.1847991589692981
100
AcDbArc
 50
0.0
 51
180.0
  0
LINE
  5
130
330
1F
100
AcDbEntity
  8
0
  6
Continuous
 62
     7
370
    25
100
AcDbLine
 10
76.5360423397
 20
212.1577317049
 30
0.0
 11
76.5360423397
 21
213.3802492181
 31
0.0
  0
ARC
  5
131
330
1F
100
AcDbEntity
  8
0
  6
Continuous
 62
     7
370
    25
100
AcDbCircle
 10
76.3512431808
 20
212.1577317049
 30
0.0
 40
0.1847991589692981
100
AcDbArc
 50
180.0
 51
0.0
  0
LINE
  5
132
330
1F
100
AcDbEntity
  8
0
  6
Continuous
 62
     7
370
    25
100
AcDbLine
 10
76.1664440218
 20
213.3802492181
 30
0.0
 11
76.1664440218
 21
212.1577317049
 31
0.0
  0
ARC
  5
133
330
1F
100
AcDbEntity
  8
0
  6
Continuous
 62
     7
370
    25
100
AcDbCircle
 10
88.3512431808
 20
227.5743409684
 30
0.0
 40
0.1847991589692981
100
AcDbArc
 50
180.0
 51
0.0
  0
LINE
  5
134
330
1F
100
AcDbEntity
  8
0
  6
Continuous
 62
     7
370
    25
100
AcDbLine
 10
88.1664440218
 20
228.7968584815
 30
0.0
 11
88.1664440218
 21
227.5743409684
 31
0.0
  0
ARC
  5
135
330
1F
100
AcDbEntity
  8
0
  6
Continuous
 62
     7
370
    25
100
AcDbCircle
 10
88.3512431808
 20
228.7968584815
 30
0.0
 40
0.1847991589692981
100
AcDbArc
 50
0.0
 51
180.0
  0
LINE
  5
136
330
1F
100
AcDbEntity
  8
0
  6
Continuous
 62
     7
370
    25
100
AcDbLine
 10
88.5360423397
 20
227.5743409684
 30
0.0
 11
88.5360423397
 21
228.7968584815
 31
0.0
  0
ARC
  5
137
330
1F
100
AcDbEntity
  8
0
  6
Continuous
 62
     7
370
    25
100
AcDbCircle
 10
87.5512431808
 20
227.5743409684
 30
0.0
 40
0.1847991589692981
100
AcDbArc
 50
180.0
 51
0.0
  0
LINE
  5
138
330
1F
100
AcDbEntity
  8
0
  6
Continuous
 62
     7
370
    25
100
AcDbLine
 10
87.3664440218
 20
228.7968584815
 30
0.0
 11
87.3664440218
 21
227.5743409684
 31
0.0
  0
ARC
  5
139
330
1F
100
AcDbEntity
  8
0
  6
Continuous
 62
     7
370
    25
100
AcDbCircle
 10
87.5512431808
 20
228.7968584815
 30
0.0
 40
0.1847991589692981
100
AcDbArc
 50
0.0
 51
180.0
  0
LINE
  5
13A
330
1F
100
AcDbEntity
  8
0
  6
Continuous
 62
     7
370
    25
100
AcDbLine
 10
87.7360423397
 20
227.5743409684
 30
0.0
 11
87.7360423397
 21
228.7968584815
 31
0.0
  0
ARC
  5
13B
330
1F
100
AcDbEntity
  8
0
  6
Continuous
 62
     7
370
    25
100
AcDbCircle
 10
86.7512431808
 20
227.5743409684
 30
0.0
 40
0.1847991589692981
100
AcDbArc
 50
180.0
 51
0.0
  0
LINE
  5
13C
330
1F
100
AcDbEntity
  8
0
  6
Continuous
 62
     7
370
    25
100
AcDbLine
 10
86.5664440218
 20
228.7968584815
 30
0.0
 11
86.5664440218
 21
227.5743409684
 31
0.0
  0
ARC
  5
13D
330
1F
100
AcDbEntity
  8
0
  6
Continuous
 62
     7
370
    25
100
AcDbCircle
 10
86.7512431808
 20
228.7968584815
 30
0.0
 40
0.1847991589692981
100
AcDbArc
 50
0.0
 51
180.0
  0
LINE
  5
13E
330
1F
100
AcDbEntity
  8
0
  6
Continuous
 62
     7
370
    25
100
AcDbLine
 10
86.9360423397
 20
227.5743409684
 30
0.0
 11
86.9360423397
 21
228.7968584815
 31
0.0
  0
ARC
  5
13F
330
1F
100
AcDbEntity
  8
0
  6
Continuous
 62
     7
370
    25
100
AcDbCircle
 10
85.9512431808
 20
227.5743409684
 30
0.0
 40
0.1847991589692981
100
AcDbArc
 50
180.0
 51
0.0
  0
LINE
  5
140
330
1F
100
AcDbEntity
  8
0
  6
Continuous
 62
     7
370
    25
100
AcDbLine
 10
85.7664440218
 20
228.7968584815
 30
0.0
 11
85.7664440218
 21
227.5743409684
 31
0.0
  0
ARC
  5
141
330
1F
100
AcDbEntity
  8
0
  6
Continuous
 62
     7
370
    25
100
AcDbCircle
 10
85.9512431808
 20
228.7968584815
 30
0.0
 40
0.1847991589692981
100
AcDbArc
 50
0.0
 51
180.0
  0
LINE
  5
142
330
1F
100
AcDbEntity
  8
0
  6
Continuous
 62
     7
370
    25
100
AcDbLine
 10
86.1360423397
 20
227.5743409684
 30
0.0
 11
86.1360423397
 21
228.7968584815
 31
0.0
  0
ARC
  5
143
330
1F
100
AcDbEntity
  8
0
  6
Continuous
 62
     7
370
    25
100
AcDbCircle
 10
85.1512431808
 20
227.5743409684
 30
0.0
 40
0.1847991589692981
100
AcDbArc
 50
180.0
 51
0.0
  0
LINE
  5
144
330
1F
100
AcDbEntity
  8
0
  6
Continuous
 62
     7
370
    25
100
AcDbLine
 10
84.9664440218
 20
228.7968584815
 30
0.0
 11
84.9664440218
 21
227.5743409684
 31
0.0
  0
ARC
  5
145
330
1F
100
AcDbEntity
  8
0
  6
Continuous
 62
     7
370
    25
100
AcDbCircle
 10
85.1512431808
 20
228.7968584815
 30
0.0
 40
0.1847991589692981
100
AcDbArc
 50
0.0
 51
180.0
  0
LINE
  5
146
330
1F
100
AcDbEntity
  8
0
  6
Continuous
 62
     7
370
    25
100
AcDbLine
 10
85.3360423397
 20
227.5743409684
 30
0.0
 11
85.3360423397
 21
228.7968584815
 31
0.0
  0
ARC
  5
147
330
1F
100
AcDbEntity
  8
0
  6
Continuous
 62
     7
370
    25
100
AcDbCircle
 10
84.3512431808
 20
227.5743409684
 30
0.0
 40
0.1847991589692981
100
AcDbArc
 50
180.0
 51
0.0
  0
LINE
  5
148
330
1F
100
AcDbEntity
  8
0
  6
Continuous
 62
     7
370
    25
100
AcDbLine
 10
84.1664440218
 20
228.7968584815
 30
0.0
 11
84.1664440218
 21
227.5743409684
 31
0.0
  0
ARC
  5
149
330
1F
100
AcDbEntity
  8
0
  6
Continuous
 62
     7
370
    25
100
AcDbCircle
 10
84.3512431808
 20
228.7968584815
 30
0.0
 40
0.1847991589692981
100
AcDbArc
 50
0.0
 51
180.0
  0
LINE
  5
14A
330
1F
100
AcDbEntity
  8
0
  6
Continuous
 62
     7
370
    25
100
AcDbLine
 10
84.5360423397
 20
227.5743409684
 30
0.0
 11
84.5360423397
 21
228.7968584815
 31
0.0
  0
ARC
  5
14B
330
1F
100
AcDbEntity
  8
0
  6
Continuous
 62
     7
370
    25
100
AcDbCircle
 10
83.5512431808
 20
227.5743409684
 30
0.0
 40
0.1847991589692981
100
AcDbArc
 50
180.0
 51
0.0
  0
LINE
  5
14C
330
1F
100
AcDbEntity
  8
0
  6
Continuous
 62
     7
370
    25
100
AcDbLine
 10
83.3664440218
 20
228.7968584815
 30
0.0
 11
83.3664440218
 21
227.5743409684
 31
0.0
  0
ARC
  5
14D
330
1F
100
AcDbEntity
  8
0
  6
Continuous
 62
     7
370
    25
100
AcDbCircle
 10
83.5512431808
 20
228.7968584815
 30
0.0
 40
0.1847991589692981
100
AcDbArc
 50
0.0
 51
180.0
  0
LINE
  5
14E
330
1F
100
AcDbEntity
  8
0
  6
Continuous
 62
     7
370
    25
100
AcDbLine
 10
83.7360423397
 20
227.5743409684
 30
0.0
 11
83.7360423397
 21
228.7968584815
 31
0.0
  0
ARC
  5
14F
330
1F
100
AcDbEntity
  8
0
  6
Continuous
 62
     7
370
    25
100
AcDbCircle
 10
82.7512431808
 20
227.5743409684
 30
0.0
 40
0.1847991589692981
100
AcDbArc
 50
180.0
 51
0.0
  0
LINE
  5
150
330
1F
100
AcDbEntity
  8
0
  6
Continuous
 62
     7
370
    25
100
AcDbLine
 10
82.5664440218
 20
228.7968584815
 30
0.0
 11
82.5664440218
 21
227.5743409684
 31
0.0
  0
ARC
  5
151
330
1F
100
AcDbEntity
  8
0
  6
Continuous
 62
     7
370
    25
100
AcDbCircle
 10
82.7512431808
 20
228.7968584815
 30
0.0
 40
0.1847991589692981
100
AcDbArc
 50
0.0
 51
180.0
  0
LINE
  5
152
330
1F
100
AcDbEntity
  8
0
  6
Continuous
 62
     7
370
    25
100
AcDbLine
 10
82.9360423397
 20
227.5743409684
 30
0.0
 11
82.9360423397
 21
228.7968584815
 31
0.0
  0
ARC
  5
153
330
1F
100
AcDbEntity
  8
0
  6
Continuous
 62
     7
370
    25
100
AcDbCircle
 10
81.9512431808
 20
227.5743409684
 30
0.0
 40
0.1847991589692981
100
AcDbArc
 50
180.0
 51
0.0
  0
LINE
  5
154
330
1F
100
AcDbEntity
  8
0
  6
Continuous
 62
     7
370
    25
100
AcDbLine
 10
81.7664440218
 20
228.7968584815
 30
0.0
 11
81.7664440218
 21
227.5743409684
 31
0.0
  0
ARC
  5
155
330
1F
100
AcDbEntity
  8
0
  6
Continuous
 62
     7
370
    25
100
AcDbCircle
 10
81.9512431808
 20
228.7968584815
 30
0.0
 40
0.1847991589692981
100
AcDbArc
 50
0.0
 51
180.0
  0
LINE
  5
156
330
1F
100
AcDbEntity
  8
0
  6
Continuous
 62
     7
370
    25
100
AcDbLine
 10
82.1360423397
 20
227.5743409684
 30
0.0
 11
82.1360423397
 21
228.7968584815
 31
0.0
  0
ARC
  5
157
330
1F
100
AcDbEntity
  8
0
  6
Continuous
 62
     7
370
    25
100
AcDbCircle
 10
81.1512431808
 20
227.5743409684
 30
0.0
 40
0.1847991589692981
100
AcDbArc
 50
180.0
 51
0.0
  0
LINE
  5
158
330
1F
100
AcDbEntity
  8
0
  6
Continuous
 62
     7
370
    25
100
AcDbLine
 10
80.9664440218
 20
228.7968584815
 30
0.0
 11
80.9664440218
 21
227.5743409684
 31
0.0
  0
ARC
  5
159
330
1F
100
AcDbEntity
  8
0
  6
Continuous
 62
     7
370
    25
100
AcDbCircle
 10
81.1512431808
 20
228.7968584815
 30
0.0
 40
0.1847991589692981
100
AcDbArc
 50
0.0
 51
180.0
  0
LINE
  5
15A
330
1F
100
AcDbEntity
  8
0
  6
Continuous
 62
     7
370
    25
100
AcDbLine
 10
81.3360423397
 20
227.5743409684
 30
0.0
 11
81.3360423397
 21
228.7968584815
 31
0.0
  0
ARC
  5
15B
330
1F
100
AcDbEntity
  8
0
  6
Continuous
 62
     7
370
    25
100
AcDbCircle
 10
80.3512431808
 20
227.5743409684
 30
0.0
 40
0.1847991589692981
100
AcDbArc
 50
180.0
 51
0.0
  0
LINE
  5
15C
330
1F
100
AcDbEntity
  8
0
  6
Continuous
 62
     7
370
    25
100
AcDbLine
 10
80.1664440218
 20
228.7968584815
 30
0.0
 11
80.1664440218
 21
227.5743409684
 31
0.0
  0
ARC
  5
15D
330
1F
100
AcDbEntity
  8
0
  6
Continuous
 62
     7
370
    25
100
AcDbCircle
 10
80.3512431808
 20
228.7968584815
 30
0.0
 40
0.1847991589692981
100
AcDbArc
 50
0.0
 51
180.0
  0
LINE
  5
15E
330
1F
100
AcDbEntity
  8
0
  6
Continuous
 62
     7
370
    25
100
AcDbLine
 10
80.5360423397
 20
227.5743409684
 30
0.0
 11
80.5360423397
 21
228.7968584815
 31
0.0
  0
ARC
  5
15F
330
1F
100
AcDbEntity
  8
0
  6
Continuous
 62
     7
370
    25
100
AcDbCircle
 10
79.5512431808
 20
227.5743409684
 30
0.0
 40
0.1847991589692981
100
AcDbArc
 50
180.0
 51
0.0
  0
LINE
  5
160
330
1F
100
AcDbEntity
  8
0
  6
Continuous
 62
     7
370
    25
100
AcDbLine
 10
79.3664440218
 20
228.7968584815
 30
0.0
 11
79.3664440218
 21
227.5743409684
 31
0.0
  0
ARC
  5
161
330
1F
100
AcDbEntity
  8
0
  6
Continuous
 62
     7
370
    25
100
AcDbCircle
 10
79.5512431808
 20
228.7968584815
 30
0.0
 40
0.1847991589692981
100
AcDbArc
 50
0.0
 51
180.0
  0
LINE
  5
162
330
1F
100
AcDbEntity
  8
0
  6
Continuous
 62
     7
370
    25
100
AcDbLine
 10
79.7360423397
 20
227.5743409684
 30
0.0
 11
79.7360423397
 21
228.7968584815
 31
0.0
  0
ARC
  5
163
330
1F
100
AcDbEntity
  8
0
  6
Continuous
 62
     7
370
    25
100
AcDbCircle
 10
78.7512431808
 20
227.5743409684
 30
0.0
 40
0.1847991589692981
100
AcDbArc
 50
180.0
 51
0.0
  0
LINE
  5
164
330
1F
100
AcDbEntity
  8
0
  6
Continuous
 62
     7
370
    25
100
AcDbLine
 10
78.5664440218
 20
228.7968584815
 30
0.0
 11
78.5664440218
 21
227.5743409684
 31
0.0
  0
ARC
  5
165
330
1F
100
AcDbEntity
  8
0
  6
Continuous
 62
     7
370
    25
100
AcDbCircle
 10
78.7512431808
 20
228.7968584815
 30
0.0
 40
0.1847991589692981
100
AcDbArc
 50
0.0
 51
180.0
  0
LINE
  5
166
330
1F
100
AcDbEntity
  8
0
  6
Continuous
 62
     7
370
    25
100
AcDbLine
 10
78.9360423397
 20
227.5743409684
 30
0.0
 11
78.9360423397
 21
228.7968584815
 31
0.0
  0
ARC
  5
167
330
1F
100
AcDbEntity
  8
0
  6
Continuous
 62
     7
370
    25
100
AcDbCircle
 10
77.9512431808
 20
227.5743409684
 30
0.0
 40
0.1847991589692981
100
AcDbArc
 50
180.0
 51
0.0
  0
LINE
  5
168
330
1F
100
AcDbEntity
  8
0
  6
Continuous
 62
     7
370
    25
100
AcDbLine
 10
77.7664440218
 20
228.7968584815
 30
0.0
 11
77.7664440218
 21
227.5743409684
 31
0.0
  0
ARC
  5
169
330
1F
100
AcDbEntity
  8
0
  6
Continuous
 62
     7
370
    25
100
AcDbCircle
 10
77.9512431808
 20
228.7968584815
 30
0.0
 40
0.1847991589692981
100
AcDbArc
 50
0.0
 51
180.0
  0
LINE
  5
16A
330
1F
100
AcDbEntity
  8
0
  6
Continuous
 62
     7
370
    25
100
AcDbLine
 10
78.1360423397
 20
227.5743409684
 30
0.0
 11
78.1360423397
 21
228.7968584815
 31
0.0
  0
ARC
  5
16B
330
1F
100
AcDbEntity
  8
0
  6
Continuous
 62
     7
370
    25
100
AcDbCircle
 10
77.1512431808
 20
227.5743409684
 30
0.0
 40
0.1847991589692981
100
AcDbArc
 50
180.0
 51
0.0
  0
LINE
  5
16C
330
1F
100
AcDbEntity
  8
0
  6
Continuous
 62
     7
370
    25
100
AcDbLine
 10
76.9664440218
 20
228.7968584815
 30
0.0
 11
76.9664440218
 21
227.5743409684
 31
0.0
  0
ARC
  5
16D
330
1F
100
AcDbEntity
  8
0
  6
Continuous
 62
     7
370
    25
100
AcDbCircle
 10
77.1512431808
 20
228.7968584815
 30
0.0
 40
0.1847991589692981
100
AcDbArc
 50
0.0
 51
180.0
  0
LINE
  5
16E
330
1F
100
AcDbEntity
  8
0
  6
Continuous
 62
     7
370
    25
100
AcDbLine
 10
77.3360423397
 20
227.5743409684
 30
0.0
 11
77.3360423397
 21
228.7968584815
 31
0.0
  0
ARC
  5
16F
330
1F
100
AcDbEntity
  8
0
  6
Continuous
 62
     7
370
    25
100
AcDbCircle
 10
76.3512431808
 20
227.5743409684
 30
0.0
 40
0.1847991589692981
100
AcDbArc
 50
180.0
 51
0.0
  0
LINE
  5
170
330
1F
100
AcDbEntity
  8
0
  6
Continuous
 62
     7
370
    25
100
AcDbLine
 10
76.1664440218
 20
228.7968584815
 30
0.0
 11
76.1664440218
 21
227.5743409684
 31
0.0
  0
ARC
  5
171
330
1F
100
AcDbEntity
  8
0
  6
Continuous
 62
     7
370
    25
100
AcDbCircle
 10
76.3512431808
 20
228.7968584815
 30
0.0
 40
0.1847991589692981
100
AcDbArc
 50
0.0
 51
180.0
  0
LINE
  5
172
330
1F
100
AcDbEntity
  8
0
  6
Continuous
 62
     7
370
    25
100
AcDbLine
 10
76.5360423397
 20
227.5743409684
 30
0.0
 11
76.5360423397
 21
228.7968584815
 31
0.0
  0
LINE
  5
173
330
1F
100
AcDbEntity
  8
0
  6
Continuous
 62
     7
370
    25
100
AcDbLine
 10
93.638821172
 20
230.7600458356
 30
0.0
 11
93.638821172
 21
224.236407812
 31
0.0
  0
LINE
  5
174
330
1F
100
AcDbEntity
  8
0
  6
Continuous
 62
     7
370
    25
100
AcDbLine
 10
106.7327359221
 20
230.7600458356
 30
0.0
 11
93.638821172
 21
230.7600458356
 31
0.0
  0
LINE
  5
175
330
1F
100
AcDbEntity
  8
0
  6
Continuous
 62
     7
370
    25
100
AcDbLine
 10
106.7327359221
 20
224.236407812
 30
0.0
 11
106.7327359221
 21
230.7600458356
 31
0.0
  0
LINE
  5
176
330
1F
100
AcDbEntity
  8
0
  6
Continuous
 62
     7
370
    25
100
AcDbLine
 10
93.638821172
 20
224.236407812
 30
0.0
 11
106.7327359221
 21
224.236407812
 31
0.0
  0
CIRCLE
  5
177
330
1F
100
AcDbEntity
  8
0
  6
Continuous
 62
     7
370
    25
100
AcDbCircle
 10
111.1798532424
 20
229.2774188205
 30
0.0
 40
0.25
  0
CIRCLE
  5
178
330
1F
100
AcDbEntity
  8
0
  6
Continuous
 62
     7
370
    25
100
AcDbCircle
 10
108.6398532424
 20
229.2774188205
 30
0.0
 40
0.25
  0
CIRCLE
  5
179
330
1F
100
AcDbEntity
  8
0
  6
Continuous
 62
     7
370
    25
100
AcDbCircle
 10
111.1772332437
 20
212.0595523236
 30
0.0
 40
0.25
  0
CIRCLE
  5
17A
330
1F
100
AcDbEntity
  8
0
  6
Continuous
 62
     7
370
    25
100
AcDbCircle
 10
111.1770154587
 20
209.3426544417
 30
0.0
 40
0.25
  0
CIRCLE
  5
17B
330
1F
100
AcDbEntity
  8
0
  6
Continuous
 62
     7
370
    25
100
AcDbCircle
 10
108.6370154587
 20
209.3426544417
 30
0.0
 40
0.2499999999999716
  0
CIRCLE
  5
17C
330
1F
100
AcDbEntity
  8
0
  6
Continuous
 62
     7
370
    25
100
AcDbCircle
 10
106.0970154587
 20
209.3426544417
 30
0.0
 40
0.25
  0
CIRCLE
  5
17D
330
1F
100
AcDbEntity
  8
0
  6
Continuous
 62
     7
370
    25
100
AcDbCircle
 10
103.5570154587
 20
209.3426544417
 30
0.0
 40
0.2499999999999858
  0
CIRCLE
  5
17E
330
1F
100
AcDbEntity
  8
0
  6
Continuous
 62
     7
370
    25
100
AcDbCircle
 10
101.0170154587
 20
209.3426544417
 30
0.0
 40
0.2499999999999858
  0
CIRCLE
  5
17F
330
1F
100
AcDbEntity
  8
0
  6
Continuous
 62
     7
370
    25
100
AcDbCircle
 10
98.4770154587
 20
209.3426544417
 30
0.0
 40
0.2499999999999858
  0
CIRCLE
  5
180
330
1F
100
AcDbEntity
  8
0
  6
Continuous
 62
     7
370
    25
100
AcDbCircle
 10
95.9370154587
 20
209.3426544417
 30
0.0
 40
0.2499999999999858
  0
CIRCLE
  5
181
330
1F
100
AcDbEntity
  8
0
  6
Continuous
 62
     7
370
    25
100
AcDbCircle
 10
93.3970154587
 20
209.3426544417
 30
0.0
 40
0.2499999999999858
  0
CIRCLE
  5
182
330
1F
100
AcDbEntity
  8
0
  6
Continuous
 62
     7
370
    25
100
AcDbCircle
 10
90.8570154587
 20
209.3426544417
 30
0.0
 40
0.2499999999999858
  0
CIRCLE
  5
183
330
1F
100
AcDbEntity
  8
0
  6
Continuous
 62
     7
370
    25
100
AcDbCircle
 10
88.3170154587
 20
209.3426544417
 30
0.0
 40
0.2499999999999858
  0
CIRCLE
  5
184
330
1F
100
AcDbEntity
  8
0
  6
Continuous
 62
     7
370
    25
100
AcDbCircle
 10
85.7770154587
 20
209.3426544417
 30
0.0
 40
0.2499999999999858
  0
CIRCLE
  5
185
330
1F
100
AcDbEntity
  8
0
  6
Continuous
 62
     7
370
    25
100
AcDbCircle
 10
83.2370154587
 20
209.3426544417
 30
0.0
 40
0.2499999999999858
  0
CIRCLE
  5
186
330
1F
100
AcDbEntity
  8
0
  6
Continuous
 62
     7
370
    25
100
AcDbCircle
 10
111.1804642826
 20
232.0073182325
 30
0.0
 40
0.2499999999999858
  0
CIRCLE
  5
187
330
1F
100
AcDbEntity
  8
0
  6
Continuous
 62
     7
370
    25
100
AcDbCircle
 10
108.6404642826
 20
232.0073182325
 30
0.0
 40
0.2500000000000142
  0
CIRCLE
  5
188
330
1F
100
AcDbEntity
  8
0
  6
Continuous
 62
     7
370
    25
100
AcDbCircle
 10
106.1004642826
 20
232.0073182325
 30
0.0
 40
0.2499999999999858
  0
CIRCLE
  5
189
330
1F
100
AcDbEntity
  8
0
  6
Continuous
 62
     7
370
    25
100
AcDbCircle
 10
103.5604642826
 20
232.0073182325
 30
0.0
 40
0.2500000000000142
  0
CIRCLE
  5
18A
330
1F
100
AcDbEntity
  8
0
  6
Continuous
 62
     7
370
    25
100
AcDbCircle
 10
101.0204642826
 20
232.0073182325
 30
0.0
 40
0.25
  0
CIRCLE
  5
18B
330
1F
100
AcDbEntity
  8
0
  6
Continuous
 62
     7
370
    25
100
AcDbCircle
 10
98.4804642826
 20
232.0073182325
 30
0.0
 40
0.25
  0
CIRCLE
  5
18C
330
1F
100
AcDbEntity
  8
0
  6
Continuous
 62
     7
370
    25
100
AcDbCircle
 10
95.9404642826
 20
232.0073182325
 30
0.0
 40
0.25
  0
CIRCLE
  5
18D
330
1F
100
AcDbEntity
  8
0
  6
Continuous
 62
     7
370
    25
100
AcDbCircle
 10
93.4004642826
 20
232.0073182325
 30
0.0
 40
0.25
  0
CIRCLE
  5
18E
330
1F
100
AcDbEntity
  8
0
  6
Continuous
 62
     7
370
    25
100
AcDbCircle
 10
90.8604642826
 20
232.0073182325
 30
0.0
 40
0.2500000000000142
  0
CIRCLE
  5
18F
330
1F
100
AcDbEntity
  8
0
  6
Continuous
 62
     7
370
    25
100
AcDbCircle
 10
88.3204642826
 20
232.0073182325
 30
0.0
 40
0.25
  0
CIRCLE
  5
190
330
1F
100
AcDbEntity
  8
0
  6
Continuous
 62
     7
370
    25
100
AcDbCircle
 10
85.7804642826
 20
232.0073182325
 30
0.0
 40
0.25
  0
CIRCLE
  5
191
330
1F
100
AcDbEntity
  8
0
  6
Continuous
 62
     7
370
    25
100
AcDbCircle
 10
83.2404642826
 20
232.0073182325
 30
0.0
 40
0.25
  0
CIRCLE
  5
192
330
1F
100
AcDbEntity
  8
0
  6
Continuous
 62
     7
370
    25
100
AcDbCircle
 10
80.7004642826
 20
232.0073182325
 30
0.0
 40
0.25
  0
CIRCLE
  5
193
330
1F
100
AcDbEntity
  8
0
  6
Continuous
 62
     7
370
    25
100
AcDbCircle
 10
78.1604642826
 20
232.0073182325
 30
0.0
 40
0.25
  0
CIRCLE
  5
194
330
1F
100
AcDbEntity
  8
0
  6
Continuous
 62
     7
370
    25
100
AcDbCircle
 10
80.6970154587
 20
209.3426544417
 30
0.0
 40
0.2499999999999858
  0
CIRCLE
  5
195
330
1F
100
AcDbEntity
  8
0
  6
Continuous
 62
     7
370
    25
100
AcDbCircle
 10
75.6204642826
 20
232.0073182325
 30
0.0
 40
0.25
  0
CIRCLE
  5
196
330
1F
100
AcDbEntity
  8
0
  6
Continuous
 62
     7
370
    25
100
AcDbCircle
 10
78.1570154587
 20
209.3426544417
 30
0.0
 40
0.2499999999999858
  0
CIRCLE
  5
197
330
1F
100
AcDbEntity
  8
0
  6
Continuous
 62
     7
370
    25
100
AcDbCircle
 10
108.6372332437
 20
212.0595523236
 30
0.0
 40
0.2499999999988916
  0
CIRCLE
  5
198
330
1F
100
AcDbEntity
  8
0
  6
Continuous
 62
     7
370
    25
100
AcDbCircle
 10
75.6170154587
 20
209.3426544417
 30
0.0
 40
0.2499999999999858
  0
LINE
  5
199
330
1F
100
AcDbEntity
  8
0
  6
Continuous
 62
     7
370
    25
100
AcDbLine
 10
68.055759823
 20
233.440937372
 30
0.0
 11
68.055759823
 21
207.9113369809
 31
0.0
  0
LINE
  5
19A
330
1F
100
AcDbEntity
  8
0
  6
Continuous
 62
     7
370
    25
100
AcDbLine
 10
68.055759823
 20
207.9113369809
 30
0.0
 11
73.8633630054
 21
207.9095689334
 31
0.0
  0
ARC
  5
19B
330
1F
100
AcDbEntity
  8
0
  6
Continuous
 62
     7
370
    25
100
AcDbCircle
 10
74.3466242407
 20
208.0573627665
 30
0.0
 40
0.5053557545801401
100
AcDbArc
 50
342.9601333212
 51
197.0049924699
  0
LINE
  5
19C
330
1F
100
AcDbEntity
  8
0
  6
Continuous
 62
     7
370
    25
100
AcDbLine
 10
74.829795429
 20
207.9092748143
 30
0.0
 11
75.1333629466
 21
207.9091824281
 31
0.0
  0
ARC
  5
19D
330
1F
100
AcDbEntity
  8
0
  6
Continuous
 62
     7
370
    25
100
AcDbCircle
 10
75.6166241819
 20
208.0569762612
 30
0.0
 40
0.5053557545801401
100
AcDbArc
 50
342.9601333212
 51
197.0049924699
  0
LINE
  5
19E
330
1F
100
AcDbEntity
  8
0
  6
Continuous
 62
     7
370
    25
100
AcDbLine
 10
76.0997953701
 20
207.908888309
 30
0.0
 11
76.4033628877
 21
207.9087959229
 31
0.0
  0
ARC
  5
19F
330
1F
100
AcDbEntity
  8
0
  6
Continuous
 62
     7
370
    25
100
AcDbCircle
 10
76.8866241231
 20
208.0565897559
 30
0.0
 40
0.5053557545801401
100
AcDbArc
 50
342.9601333212
 51
197.0049924699
  0
LINE
  5
1A0
330
1F
100
AcDbEntity
  8
0
  6
Continuous
 62
     7
370
    25
100
AcDbLine
 10
77.3697953113
 20
207.9085018037
 30
0.0
 11
77.6733628289
 21
207.9084094176
 31
0.0
  0
ARC
  5
1A1
330
1F
100
AcDbEntity
  8
0
  6
Continuous
 62
     7
370
    25
100
AcDbCircle
 10
78.1566240643
 20
208.0562032506
 30
0.0
 40
0.5053557545801401
100
AcDbArc
 50
342.9601333212
 51
197.0049924699
  0
LINE
  5
1A2
330
1F
100
AcDbEntity
  8
0
  6
Continuous
 62
     7
370
    25
100
AcDbLine
 10
78.6397952525
 20
207.9081152984
 30
0.0
 11
78.9433627701
 21
207.9080229123
 31
0.0
  0
ARC
  5
1A3
330
1F
100
AcDbEntity
  8
0
  6
Continuous
 62
     7
370
    25
100
AcDbCircle
 10
79.4266240055
 20
208.0558167453
 30
0.0
 40
0.5053557545801401
100
AcDbArc
 50
342.9601333212
 51
197.0049924699
  0
LINE
  5
1A4
330
1F
100
AcDbEntity
  8
0
  6
Continuous
 62
     7
370
    25
100
AcDbLine
 10
79.9097951937
 20
207.9077287931
 30
0.0
 11
80.2133627113
 21
207.907636407
 31
0.0
  0
ARC
  5
1A5
330
1F
100
AcDbEntity
  8
0
  6
Continuous
 62
     7
370
    25
100
AcDbCircle
 10
80.6966239467
 20
208.05543024
 30
0.0
 40
0.5053557545801401
100
AcDbArc
 50
342.9601333212
 51
197.0049924699
  0
LINE
  5
1A6
330
1F
100
AcDbEntity
  8
0
  6
Continuous
 62
     7
370
    25
100
AcDbLine
 10
81.1797951349
 20
207.9073422878
 30
0.0
 11
81.4833626525
 21
207.9072499017
 31
0.0
  0
ARC
  5
1A7
330
1F
100
AcDbEntity
  8
0
  6
Continuous
 62
     7
370
    25
100
AcDbCircle
 10
81.9666238879
 20
208.0550437347
 30
0.0
 40
0.5053557545801401
100
AcDbArc
 50
342.9601333212
 51
197.0049924699
  0
LINE
  5
1A8
330
1F
100
AcDbEntity
  8
0
  6
Continuous
 62
     7
370
    25
100
AcDbLine
 10
82.4497950761
 20
207.9069557825
 30
0.0
 11
82.7533625937
 21
207.9068633964
 31
0.0
  0
ARC
  5
1A9
330
1F
100
AcDbEntity
  8
0
  6
Continuous
 62
     7
370
    25
100
AcDbCircle
 10
83.236623829
 20
208.0546572294
 30
0.0
 40
0.5053557545801401
100
AcDbArc
 50
342.9601333212
 51
197.0049924699
  0
LINE
  5
1AA
330
1F
100
AcDbEntity
  8
0
  6
Continuous
 62
     7
370
    25
100
AcDbLine
 10
83.7197950173
 20
207.9065692773
 30
0.0
 11
84.0233625349
 21
207.9064768911
 31
0.0
  0
ARC
  5
1AB
330
1F
100
AcDbEntity
  8
0
  6
Continuous
 62
     7
370
    25
100
AcDbCircle
 10
84.5066237702
 20
208.0542707241
 30
0.0
 40
0.5053557545801485
100
AcDbArc
 50
342.9601333211
 51
197.0049924699
  0
LINE
  5
1AC
330
1F
100
AcDbEntity
  8
0
  6
Continuous
 62
     7
370
    25
100
AcDbLine
 10
84.9897949585
 20
207.906182772
 30
0.0
 11
85.293362476
 21
207.9060903858
 31
0.0
  0
ARC
  5
1AD
330
1F
100
AcDbEntity
  8
0
  6
Continuous
 62
     7
370
    25
100
AcDbCircle
 10
85.7766237114
 20
208.0538842188
 30
0.0
 40
0.5053557545801349
100
AcDbArc
 50
342.9601333211
 51
197.0049924699
  0
LINE
  5
1AE
330
1F
100
AcDbEntity
  8
0
  6
Continuous
 62
     7
370
    25
100
AcDbLine
 10
86.2597948996
 20
207.9057962667
 30
0.0
 11
86.5633624172
 21
207.9057038805
 31
0.0
  0
ARC
  5
1AF
330
1F
100
AcDbEntity
  8
0
  6
Continuous
 62
     7
370
    25
100
AcDbCircle
 10
87.0466236526
 20
208.0534977135
 30
0.0
 40
0.5053557545801349
100
AcDbArc
 50
342.9601333211
 51
197.0049924699
  0
LINE
  5
1B0
330
1F
100
AcDbEntity
  8
0
  6
Continuous
 62
     7
370
    25
100
AcDbLine
 10
87.5297948408
 20
207.9054097614
 30
0.0
 11
87.8333623584
 21
207.9053173752
 31
0.0
  0
ARC
  5
1B1
330
1F
100
AcDbEntity
  8
0
  6
Continuous
 62
     7
370
    25
100
AcDbCircle
 10
88.3166235938
 20
208.0531112082
 30
0.0
 40
0.505355754580151
100
AcDbArc
 50
342.9601333211
 51
197.0049924699
  0
LINE
  5
1B2
330
1F
100
AcDbEntity
  8
0
  6
Continuous
 62
     7
370
    25
100
AcDbLine
 10
88.799794782
 20
207.9050232561
 30
0.0
 11
89.1033622996
 21
207.9049308699
 31
0.0
  0
ARC
  5
1B3
330
1F
100
AcDbEntity
  8
0
  6
Continuous
 62
     7
370
    25
100
AcDbCircle
 10
89.586623535
 20
208.0527247029
 30
0.0
 40
0.505355754580151
100
AcDbArc
 50
342.9601333211
 51
197.0049924699
  0
LINE
  5
1B4
330
1F
100
AcDbEntity
  8
0
  6
Continuous
 62
     7
370
    25
100
AcDbLine
 10
90.0697947232
 20
207.9046367508
 30
0.0
 11
90.3733622408
 21
207.9045443646
 31
0.0
  0
ARC
  5
1B5
330
1F
100
AcDbEntity
  8
0
  6
Continuous
 62
     7
370
    25
100
AcDbCircle
 10
90.8566234762
 20
208.0523381976
 30
0.0
 40
0.5053557545801426
100
AcDbArc
 50
342.9601333211
 51
197.0049924699
  0
LINE
  5
1B6
330
1F
100
AcDbEntity
  8
0
  6
Continuous
 62
     7
370
    25
100
AcDbLine
 10
91.3397946644
 20
207.9042502455
 30
0.0
 11
91.643362182
 21
207.9041578593
 31
0.0
  0
ARC
  5
1B7
330
1F
100
AcDbEntity
  8
0
  6
Continuous
 62
     7
370
    25
100
AcDbCircle
 10
92.1266234173
 20
208.0519516923
 30
0.0
 40
0.505355754580151
100
AcDbArc
 50
342.9601333211
 51
197.0049924699
  0
LINE
  5
1B8
330
1F
100
AcDbEntity
  8
0
  6
Continuous
 62
     7
370
    25
100
AcDbLine
 10
92.6097946056
 20
207.9038637402
 30
0.0
 11
92.9133621232
 21
207.903771354
 31
0.0
  0
ARC
  5
1B9
330
1F
100
AcDbEntity
  8
0
  6
Continuous
 62
     7
370
    25
100
AcDbCircle
 10
93.3966233585
 20
208.051565187
 30
0.0
 40
0.505355754580151
100
AcDbArc
 50
342.9601333212
 51
197.0049924699
  0
LINE
  5
1BA
330
1F
100
AcDbEntity
  8
0
  6
Continuous
 62
     7
370
    25
100
AcDbLine
 10
93.8797945468
 20
207.9034772349
 30
0.0
 11
94.1833620644
 21
207.9033848487
 31
0.0
  0
ARC
  5
1BB
330
1F
100
AcDbEntity
  8
0
  6
Continuous
 62
     7
370
    25
100
AcDbCircle
 10
94.6666232997
 20
208.0511786817
 30
0.0
 40
0.505355754580151
100
AcDbArc
 50
342.9601333212
 51
197.0049924699
  0
LINE
  5
1BC
330
1F
100
AcDbEntity
  8
0
  6
Continuous
 62
     7
370
    25
100
AcDbLine
 10
95.1497944879
 20
207.9030907296
 30
0.0
 11
95.4533620055
 21
207.9029983434
 31
0.0
  0
ARC
  5
1BD
330
1F
100
AcDbEntity
  8
0
  6
Continuous
 62
     7
370
    25
100
AcDbCircle
 10
95.9366232409
 20
208.0507921764
 30
0.0
 40
0.5053557545801426
100
AcDbArc
 50
342.9601333212
 51
197.0049924699
  0
LINE
  5
1BE
330
1F
100
AcDbEntity
  8
0
  6
Continuous
 62
     7
370
    25
100
AcDbLine
 10
96.4197944291
 20
207.9027042243
 30
0.0
 11
96.7233619467
 21
207.9026118381
 31
0.0
  0
ARC
  5
1BF
330
1F
100
AcDbEntity
  8
0
  6
Continuous
 62
     7
370
    25
100
AcDbCircle
 10
97.2066231821
 20
208.0504056711
 30
0.0
 40
0.5053557545801426
100
AcDbArc
 50
342.9601333212
 51
197.0049924699
  0
LINE
  5
1C0
330
1F
100
AcDbEntity
  8
0
  6
Continuous
 62
     7
370
    25
100
AcDbLine
 10
97.6897943703
 20
207.902317719
 30
0.0
 11
97.9933618879
 21
207.9022253328
 31
0.0
  0
ARC
  5
1C1
330
1F
100
AcDbEntity
  8
0
  6
Continuous
 62
     7
370
    25
100
AcDbCircle
 10
98.4766231233
 20
208.0500191658
 30
0.0
 40
0.505355754580151
100
AcDbArc
 50
342.9601333212
 51
197.0049924699
  0
LINE
  5
1C2
330
1F
100
AcDbEntity
  8
0
  6
Continuous
 62
     7
370
    25
100
AcDbLine
 10
98.9597943115
 20
207.9019312137
 30
0.0
 11
99.2633618291
 21
207.9018388275
 31
0.0
  0
ARC
  5
1C3
330
1F
100
AcDbEntity
  8
0
  6
Continuous
 62
     7
370
    25
100
AcDbCircle
 10
99.7466230645
 20
208.0496326605
 30
0.0
 40
0.505355754580151
100
AcDbArc
 50
342.9601333212
 51
197.0049924699
  0
LINE
  5
1C4
330
1F
100
AcDbEntity
  8
0
  6
Continuous
 62
     7
370
    25
100
AcDbLine
 10
100.2297942527
 20
207.9015447084
 30
0.0
 11
100.5333617703
 21
207.9014523222
 31
0.0
  0
ARC
  5
1C5
330
1F
100
AcDbEntity
  8
0
  6
Continuous
 62
     7
370
    25
100
AcDbCircle
 10
101.0166230057
 20
208.0492461552
 30
0.0
 40
0.5053557545801426
100
AcDbArc
 50
342.9601333211
 51
197.0049924699
  0
LINE
  5
1C6
330
1F
100
AcDbEntity
  8
0
  6
Continuous
 62
     7
370
    25
100
AcDbLine
 10
101.4997941939
 20
207.9011582031
 30
0.0
 11
101.8033617115
 21
207.9010658169
 31
0.0
  0
ARC
  5
1C7
330
1F
100
AcDbEntity
  8
0
  6
Continuous
 62
     7
370
    25
100
AcDbCircle
 10
102.2866229468
 20
208.0488596499
 30
0.0
 40
0.5053557545801426
100
AcDbArc
 50
342.9601333212
 51
197.0049924699
  0
LINE
  5
1C8
330
1F
100
AcDbEntity
  8
0
  6
Continuous
 62
     7
370
    25
100
AcDbLine
 10
102.7697941351
 20
207.9007716978
 30
0.0
 11
103.0733616527
 21
207.9006793116
 31
0.0
  0
ARC
  5
1C9
330
1F
100
AcDbEntity
  8
0
  6
Continuous
 62
     7
370
    25
100
AcDbCircle
 10
103.556622888
 20
208.0484731446
 30
0.0
 40
0.505355754580151
100
AcDbArc
 50
342.9601333211
 51
197.0049924699
  0
LINE
  5
1CA
330
1F
100
AcDbEntity
  8
0
  6
Continuous
 62
     7
370
    25
100
AcDbLine
 10
104.0397940762
 20
207.9003851925
 30
0.0
 11
104.3433615938
 21
207.9002928063
 31
0.0
  0
ARC
  5
1CB
330
1F
100
AcDbEntity
  8
0
  6
Continuous
 62
     7
370
    25
100
AcDbCircle
 10
104.8266228292
 20
208.0480866393
 30
0.0
 40
0.5053557545801646
100
AcDbArc
 50
342.9601333212
 51
197.0049924699
  0
LINE
  5
1CC
330
1F
100
AcDbEntity
  8
0
  6
Continuous
 62
     7
370
    25
100
AcDbLine
 10
105.3097940174
 20
207.8999986872
 30
0.0
 11
105.613361535
 21
207.899906301
 31
0.0
  0
ARC
  5
1CD
330
1F
100
AcDbEntity
  8
0
  6
Continuous
 62
     7
370
    25
100
AcDbCircle
 10
106.0966227704
 20
208.047700134
 30
0.0
 40
0.505355754580151
100
AcDbArc
 50
342.9601333211
 51
197.0049924699
  0
LINE
  5
1CE
330
1F
100
AcDbEntity
  8
0
  6
Continuous
 62
     7
370
    25
100
AcDbLine
 10
106.5797939586
 20
207.8996121819
 30
0.0
 11
106.8833614762
 21
207.8995197957
 31
0.0
  0
ARC
  5
1CF
330
1F
100
AcDbEntity
  8
0
  6
Continuous
 62
     7
370
    25
100
AcDbCircle
 10
107.3666227116
 20
208.0473136287
 30
0.0
 40
0.5053557545801426
100
AcDbArc
 50
342.9601333212
 51
197.0049924699
  0
LINE
  5
1D0
330
1F
100
AcDbEntity
  8
0
  6
Continuous
 62
     7
370
    25
100
AcDbLine
 10
107.8497938998
 20
207.8992256766
 30
0.0
 11
108.1533614174
 21
207.8991332904
 31
0.0
  0
ARC
  5
1D1
330
1F
100
AcDbEntity
  8
0
  6
Continuous
 62
     7
370
    25
100
AcDbCircle
 10
108.6366226528
 20
208.0469271234
 30
0.0
 40
0.5053557545801426
100
AcDbArc
 50
342.9601333211
 51
197.0049924699
  0
LINE
  5
1D2
330
1F
100
AcDbEntity
  8
0
  6
Continuous
 62
     7
370
    25
100
AcDbLine
 10
109.119793841
 20
207.8988391713
 30
0.0
 11
109.4233613586
 21
207.8987467851
 31
0.0
  0
ARC
  5
1D3
330
1F
100
AcDbEntity
  8
0
  6
Continuous
 62
     7
370
    25
100
AcDbCircle
 10
109.906622594
 20
208.0465406181
 30
0.0
 40
0.5053557545801426
100
AcDbArc
 50
342.9601333212
 51
197.0049924699
  0
LINE
  5
1D4
330
1F
100
AcDbEntity
  8
0
  6
Continuous
 62
     7
370
    25
100
AcDbLine
 10
110.3897937822
 20
207.898452666
 30
0.0
 11
110.6933612998
 21
207.8983602798
 31
0.0
  0
ARC
  5
1D5
330
1F
100
AcDbEntity
  8
0
  6
Continuous
 62
     7
370
    25
100
AcDbCircle
 10
111.1766225351
 20
208.0461541128
 30
0.0
 40
0.5053557545801344
100
AcDbArc
 50
342.9601333211
 51
197.0049924699
  0
LINE
  5
1D6
330
1F
100
AcDbEntity
  8
0
  6
Continuous
 62
     7
370
    25
100
AcDbLine
 10
111.6597937234
 20
207.8980661607
 30
0.0
 11
111.7561288251
 21
207.8980368426
 31
0.0
  0
LINE
  5
1D7
330
1F
100
AcDbEntity
  8
0
  6
Continuous
 62
     7
370
    25
100
AcDbLine
 10
111.7561288251
 20
207.8980368426
 30
0.0
 11
111.8030830483
 21
207.9113369809
 31
0.0
  0
LINE
  5
1D8
330
1F
100
AcDbEntity
  8
0
  6
Continuous
 62
     7
370
    25
100
AcDbLine
 10
111.8030830483
 20
207.9113369809
 30
0.0
 11
112.6894881703
 21
208.818647884
 31
0.0
  0
LINE
  5
1D9
330
1F
100
AcDbEntity
  8
0
  6
Continuous
 62
     7
370
    25
100
AcDbLine
 10
112.6894881703
 20
208.818647884
 30
0.0
 11
112.6894881703
 21
232.5200428681
 31
0.0
  0
LINE
  5
1DA
330
1F
100
AcDbEntity
  8
0
  6
Continuous
 62
     7
370
    25
100
AcDbLine
 10
112.6894881703
 20
232.5200428681
 30
0.0
 11
111.7600156229
 21
233.440937372
 31
0.0
  0
LINE
  5
1DB
330
1F
100
AcDbEntity
  8
0
  6
Continuous
 62
     7
370
    25
100
AcDbLine
 10
111.7600156229
 20
233.440937372
 30
0.0
 11
111.6636805168
 21
233.440937372
 31
0.0
  0
ARC
  5
1DC
330
1F
100
AcDbEntity
  8
0
  6
Continuous
 62
     7
370
    25
100
AcDbCircle
 10
111.1804642826
 20
233.2929964725
 30
0.0
 40
0.5053557545801488
100
AcDbArc
 50
162.9775704256
 51
17.0224295744
  0
LINE
  5
1DD
330
1F
100
AcDbEntity
  8
0
  6
Continuous
 62
     7
370
    25
100
AcDbLine
 10
110.6972480484
 20
233.440937372
 30
0.0
 11
110.3936805168
 21
233.440937372
 31
0.0
  0
ARC
  5
1DE
330
1F
100
AcDbEntity
  8
0
  6
Continuous
 62
     7
370
    25
100
AcDbCircle
 10
109.9104642826
 20
233.2929964725
 30
0.0
 40
0.5053557545801488
100
AcDbArc
 50
162.9775704256
 51
17.0224295744
  0
LINE
  5
1DF
330
1F
100
AcDbEntity
  8
0
  6
Continuous
 62
     7
370
    25
100
AcDbLine
 10
109.4272480484
 20
233.440937372
 30
0.0
 11
109.1236805168
 21
233.440937372
 31
0.0
  0
ARC
  5
1E0
330
1F
100
AcDbEntity
  8
0
  6
Continuous
 62
     7
370
    25
100
AcDbCircle
 10
108.6404642826
 20
233.2929964725
 30
0.0
 40
0.5053557545801488
100
AcDbArc
 50
162.9775704256
 51
17.0224295744
  0
LINE
  5
1E1
330
1F
100
AcDbEntity
  8
0
  6
Continuous
 62
     7
370
    25
100
AcDbLine
 10
108.1572480484
 20
233.440937372
 30
0.0
 11
107.8536805168
 21
233.440937372
 31
0.0
  0
ARC
  5
1E2
330
1F
100
AcDbEntity
  8
0
  6
Continuous
 62
     7
370
    25
100
AcDbCircle
 10
107.3704642826
 20
233.2929964725
 30
0.0
 40
0.5053557545801352
100
AcDbArc
 50
162.9775704256
 51
17.0224295744
  0
LINE
  5
1E3
330
1F
100
AcDbEntity
  8
0
  6
Continuous
 62
     7
370
    25
100
AcDbLine
 10
106.8872480484
 20
233.440937372
 30
0.0
 11
106.5836805168
 21
233.440937372
 31
0.0
  0
ARC
  5
1E4
330
1F
100
AcDbEntity
  8
0
  6
Continuous
 62
     7
370
    25
100
AcDbCircle
 10
106.1004642826
 20
233.2929964725
 30
0.0
 40
0.5053557545801488
100
AcDbArc
 50
162.9775704256
 51
17.0224295744
  0
LINE
  5
1E5
330
1F
100
AcDbEntity
  8
0
  6
Continuous
 62
     7
370
    25
100
AcDbLine
 10
105.6172480484
 20
233.440937372
 30
0.0
 11
105.3136805168
 21
233.440937372
 31
0.0
  0
ARC
  5
1E6
330
1F
100
AcDbEntity
  8
0
  6
Continuous
 62
     7
370
    25
100
AcDbCircle
 10
104.8304642826
 20
233.2929964725
 30
0.0
 40
0.5053557545801624
100
AcDbArc
 50
162.9775704256
 51
17.0224295744
  0
LINE
  5
1E7
330
1F
100
AcDbEntity
  8
0
  6
Continuous
 62
     7
370
    25
100
AcDbLine
 10
104.3472480484
 20
233.440937372
 30
0.0
 11
104.0436805168
 21
233.440937372
 31
0.0
  0
ARC
  5
1E8
330
1F
100
AcDbEntity
  8
0
  6
Continuous
 62
     7
370
    25
100
AcDbCircle
 10
103.5604642826
 20
233.2929964725
 30
0.0
 40
0.5053557545801488
100
AcDbArc
 50
162.9775704256
 51
17.0224295744
  0
LINE
  5
1E9
330
1F
100
AcDbEntity
  8
0
  6
Continuous
 62
     7
370
    25
100
AcDbLine
 10
103.0772480484
 20
233.440937372
 30
0.0
 11
102.7736805168
 21
233.440937372
 31
0.0
  0
ARC
  5
1EA
330
1F
100
AcDbEntity
  8
0
  6
Continuous
 62
     7
370
    25
100
AcDbCircle
 10
102.2904642826
 20
233.2929964725
 30
0.0
 40
0.5053557545801488
100
AcDbArc
 50
162.9775704256
 51
17.0224295744
  0
LINE
  5
1EB
330
1F
100
AcDbEntity
  8
0
  6
Continuous
 62
     7
370
    25
100
AcDbLine
 10
101.8072480484
 20
233.440937372
 30
0.0
 11
101.5036805168
 21
233.440937372
 31
0.0
  0
ARC
  5
1EC
330
1F
100
AcDbEntity
  8
0
  6
Continuous
 62
     7
370
    25
100
AcDbCircle
 10
101.0204642826
 20
233.2929964725
 30
0.0
 40
0.5053557545801488
100
AcDbArc
 50
162.9775704256
 51
17.0224295744
  0
LINE
  5
1ED
330
1F
100
AcDbEntity
  8
0
  6
Continuous
 62
     7
370
    25
100
AcDbLine
 10
100.5372480484
 20
233.440937372
 30
0.0
 11
100.2336805168
 21
233.440937372
 31
0.0
  0
ARC
  5
1EE
330
1F
100
AcDbEntity
  8
0
  6
Continuous
 62
     7
370
    25
100
AcDbCircle
 10
99.7504642826
 20
233.2929964725
 30
0.0
 40
0.5053557545801488
100
AcDbArc
 50
162.9775704256
 51
17.0224295744
  0
LINE
  5
1EF
330
1F
100
AcDbEntity
  8
0
  6
Continuous
 62
     7
370
    25
100
AcDbLine
 10
99.2672480484
 20
233.440937372
 30
0.0
 11
98.9636805168
 21
233.440937372
 31
0.0
  0
ARC
  5
1F0
330
1F
100
AcDbEntity
  8
0
  6
Continuous
 62
     7
370
    25
100
AcDbCircle
 10
98.4804642826
 20
233.2929964725
 30
0.0
 40
0.5053557545801488
100
AcDbArc
 50
162.9775704256
 51
17.0224295744
  0
LINE
  5
1F1
330
1F
100
AcDbEntity
  8
0
  6
Continuous
 62
     7
370
    25
100
AcDbLine
 10
97.9972480484
 20
233.440937372
 30
0.0
 11
97.6936805168
 21
233.440937372
 31
0.0
  0
ARC
  5
1F2
330
1F
100
AcDbEntity
  8
0
  6
Continuous
 62
     7
370
    25
100
AcDbCircle
 10
97.2104642826
 20
233.2929964725
 30
0.0
 40
0.5053557545801488
100
AcDbArc
 50
162.9775704256
 51
17.0224295744
  0
LINE
  5
1F3
330
1F
100
AcDbEntity
  8
0
  6
Continuous
 62
     7
370
    25
100
AcDbLine
 10
96.7272480484
 20
233.440937372
 30
0.0
 11
96.4236805168
 21
233.440937372
 31
0.0
  0
ARC
  5
1F4
330
1F
100
AcDbEntity
  8
0
  6
Continuous
 62
     7
370
    25
100
AcDbCircle
 10
95.9404642826
 20
233.2929964725
 30
0.0
 40
0.5053557545801488
100
AcDbArc
 50
162.9775704256
 51
17.0224295744
  0
LINE
  5
1F5
330
1F
100
AcDbEntity
  8
0
  6
Continuous
 62
     7
370
    25
100
AcDbLine
 10
95.4572480484
 20
233.440937372
 30
0.0
 11
95.1536805168
 21
233.440937372
 31
0.0
  0
ARC
  5
1F6
330
1F
100
AcDbEntity
  8
0
  6
Continuous
 62
     7
370
    25
100
AcDbCircle
 10
94.6704642826
 20
233.2929964725
 30
0.0
 40
0.5053557545801488
100
AcDbArc
 50
162.9775704256
 51
17.0224295744
  0
LINE
  5
1F7
330
1F
100
AcDbEntity
  8
0
  6
Continuous
 62
     7
370
    25
100
AcDbLine
 10
94.1872480484
 20
233.440937372
 30
0.0
 11
93.8836805168
 21
233.440937372
 31
0.0
  0
ARC
  5
1F8
330
1F
100
AcDbEntity
  8
0
  6
Continuous
 62
     7
370
    25
100
AcDbCircle
 10
93.4004642826
 20
233.2929964725
 30
0.0
 40
0.5053557545801488
100
AcDbArc
 50
162.9775704256
 51
17.0224295744
  0
LINE
  5
1F9
330
1F
100
AcDbEntity
  8
0
  6
Continuous
 62
     7
370
    25
100
AcDbLine
 10
92.9172480484
 20
233.440937372
 30
0.0
 11
92.6136805168
 21
233.440937372
 31
0.0
  0
ARC
  5
1FA
330
1F
100
AcDbEntity
  8
0
  6
Continuous
 62
     7
370
    25
100
AcDbCircle
 10
92.1304642826
 20
233.2929964725
 30
0.0
 40
0.5053557545801488
100
AcDbArc
 50
162.9775704256
 51
17.0224295744
  0
LINE
  5
1FB
330
1F
100
AcDbEntity
  8
0
  6
Continuous
 62
     7
370
    25
100
AcDbLine
 10
91.6472480484
 20
233.440937372
 30
0.0
 11
91.3436805168
 21
233.440937372
 31
0.0
  0
ARC
  5
1FC
330
1F
100
AcDbEntity
  8
0
  6
Continuous
 62
     7
370
    25
100
AcDbCircle
 10
90.8604642826
 20
233.2929964725
 30
0.0
 40
0.5053557545801488
100
AcDbArc
 50
162.9775704256
 51
17.0224295744
  0
LINE
  5
1FD
330
1F
100
AcDbEntity
  8
0
  6
Continuous
 62
     7
370
    25
100
AcDbLine
 10
90.3772480484
 20
233.440937372
 30
0.0
 11
90.0736805168
 21
233.440937372
 31
0.0
  0
ARC
  5
1FE
330
1F
100
AcDbEntity
  8
0
  6
Continuous
 62
     7
370
    25
100
AcDbCircle
 10
89.5904642826
 20
233.2929964725
 30
0.0
 40
0.5053557545801488
100
AcDbArc
 50
162.9775704256
 51
17.0224295744
  0
LINE
  5
1FF
330
1F
100
AcDbEntity
  8
0
  6
Continuous
 62
     7
370
    25
100
AcDbLine
 10
89.1072480484
 20
233.440937372
 30
0.0
 11
88.8036805168
 21
233.440937372
 31
0.0
  0
ARC
  5
200
330
1F
100
AcDbEntity
  8
0
  6
Continuous
 62
     7
370
    25
100
AcDbCircle
 10
88.3204642826
 20
233.2929964725
 30
0.0
 40
0.5053557545801488
100
AcDbArc
 50
162.9775704256
 51
17.0224295744
  0
LINE
  5
201
330
1F
100
AcDbEntity
  8
0
  6
Continuous
 62
     7
370
    25
100
AcDbLine
 10
87.8372480484
 20
233.440937372
 30
0.0
 11
87.5336805168
 21
233.440937372
 31
0.0
  0
ARC
  5
202
330
1F
100
AcDbEntity
  8
0
  6
Continuous
 62
     7
370
    25
100
AcDbCircle
 10
87.0504642826
 20
233.2929964725
 30
0.0
 40
0.5053557545801488
100
AcDbArc
 50
162.9775704256
 51
17.0224295744
  0
LINE
  5
203
330
1F
100
AcDbEntity
  8
0
  6
Continuous
 62
     7
370
    25
100
AcDbLine
 10
86.5672480484
 20
233.440937372
 30
0.0
 11
86.2636805168
 21
233.440937372
 31
0.0
  0
ARC
  5
204
330
1F
100
AcDbEntity
  8
0
  6
Continuous
 62
     7
370
    25
100
AcDbCircle
 10
85.7804642826
 20
233.2929964725
 30
0.0
 40
0.5053557545801488
100
AcDbArc
 50
162.9775704256
 51
17.0224295744
  0
LINE
  5
205
330
1F
100
AcDbEntity
  8
0
  6
Continuous
 62
     7
370
    25
100
AcDbLine
 10
85.2972480484
 20
233.440937372
 30
0.0
 11
84.9936805168
 21
233.440937372
 31
0.0
  0
ARC
  5
206
330
1F
100
AcDbEntity
  8
0
  6
Continuous
 62
     7
370
    25
100
AcDbCircle
 10
84.5104642826
 20
233.2929964725
 30
0.0
 40
0.5053557545801488
100
AcDbArc
 50
162.9775704256
 51
17.0224295744
  0
LINE
  5
207
330
1F
100
AcDbEntity
  8
0
  6
Continuous
 62
     7
370
    25
100
AcDbLine
 10
84.0272480484
 20
233.440937372
 30
0.0
 11
83.7236805168
 21
233.440937372
 31
0.0
  0
ARC
  5
208
330
1F
100
AcDbEntity
  8
0
  6
Continuous
 62
     7
370
    25
100
AcDbCircle
 10
83.2404642826
 20
233.2929964725
 30
0.0
 40
0.5053557545801488
100
AcDbArc
 50
162.9775704256
 51
17.0224295744
  0
LINE
  5
209
330
1F
100
AcDbEntity
  8
0
  6
Continuous
 62
     7
370
    25
100
AcDbLine
 10
82.7572480484
 20
233.440937372
 30
0.0
 11
82.4536805168
 21
233.440937372
 31
0.0
  0
ARC
  5
20A
330
1F
100
AcDbEntity
  8
0
  6
Continuous
 62
     7
370
    25
100
AcDbCircle
 10
81.9704642826
 20
233.2929964725
 30
0.0
 40
0.5053557545801488
100
AcDbArc
 50
162.9775704256
 51
17.0224295744
  0
LINE
  5
20B
330
1F
100
AcDbEntity
  8
0
  6
Continuous
 62
     7
370
    25
100
AcDbLine
 10
81.4872480484
 20
233.440937372
 30
0.0
 11
81.1836805168
 21
233.440937372
 31
0.0
  0
ARC
  5
20C
330
1F
100
AcDbEntity
  8
0
  6
Continuous
 62
     7
370
    25
100
AcDbCircle
 10
80.7004642826
 20
233.2929964725
 30
0.0
 40
0.5053557545801488
100
AcDbArc
 50
162.9775704256
 51
17.0224295744
  0
LINE
  5
20D
330
1F
100
AcDbEntity
  8
0
  6
Continuous
 62
     7
370
    25
100
AcDbLine
 10
80.2172480484
 20
233.440937372
 30
0.0
 11
79.9136805168
 21
233.440937372
 31
0.0
  0
ARC
  5
20E
330
1F
100
AcDbEntity
  8
0
  6
Continuous
 62
     7
370
    25
100
AcDbCircle
 10
79.4304642826
 20
233.2929964725
 30
0.0
 40
0.5053557545801488
100
AcDbArc
 50
162.9775704256
 51
17.0224295744
  0
LINE
  5
20F
330
1F
100
AcDbEntity
  8
0
  6
Continuous
 62
     7
370
    25
100
AcDbLine
 10
78.9472480484
 20
233.440937372
 30
0.0
 11
78.6436805168
 21
233.440937372
 31
0.0
  0
ARC
  5
210
330
1F
100
AcDbEntity
  8
0
  6
Continuous
 62
     7
370
    25
100
AcDbCircle
 10
78.1604642826
 20
233.2929964725
 30
0.0
 40
0.5053557545801488
100
AcDbArc
 50
162.9775704256
 51
17.0224295744
  0
LINE
  5
211
330
1F
100
AcDbEntity
  8
0
  6
Continuous
 62
     7
370
    25
100
AcDbLine
 10
77.6772480484
 20
233.440937372
 30
0.0
 11
77.3736805168
 21
233.440937372
 31
0.0
  0
ARC
  5
212
330
1F
100
AcDbEntity
  8
0
  6
Continuous
 62
     7
370
    25
100
AcDbCircle
 10
76.8904642826
 20
233.2929964725
 30
0.0
 40
0.5053557545801488
100
AcDbArc
 50
162.9775704256
 51
17.0224295744
  0
LINE
  5
213
330
1F
100
AcDbEntity
  8
0
  6
Continuous
 62
     7
370
    25
100
AcDbLine
 10
76.4072480484
 20
233.440937372
 30
0.0
 11
76.1036805168
 21
233.440937372
 31
0.0
  0
ARC
  5
214
330
1F
100
AcDbEntity
  8
0
  6
Continuous
 62
     7
370
    25
100
AcDbCircle
 10
75.6204642826
 20
233.2929964725
 30
0.0
 40
0.5053557545801488
100
AcDbArc
 50
162.9775704256
 51
17.0224295744
  0
LINE
  5
215
330
1F
100
AcDbEntity
  8
0
  6
Continuous
 62
     7
370
    25
100
AcDbLine
 10
75.1372480484
 20
233.440937372
 30
0.0
 11
74.8336805168
 21
233.440937372
 31
0.0
  0
ARC
  5
216
330
1F
100
AcDbEntity
  8
0
  6
Continuous
 62
     7
370
    25
100
AcDbCircle
 10
74.3504642826
 20
233.2929964725
 30
0.0
 40
0.5053557545801488
100
AcDbArc
 50
162.9775704256
 51
17.0224295744
  0
LINE
  5
217
330
1F
100
AcDbEntity
  8
0
  6
Continuous
 62
     7
370
    25
100
AcDbLine
 10
73.8672480484
 20
233.440937372
 30
0.0
 11
68.055759823
 21
233.440937372
 31
0.0
  0
LINE
  5
218
330
1F
100
AcDbEntity
  8
0
  6
Continuous
 62
     7
370
    25
100
AcDbLine
 10
75.5608327461
 20
213.845550421
 30
0.0
 11
88.7899495496
 21
213.845550421
 31
0.0
  0
LINE
  5
219
330
1F
100
AcDbEntity
  8
0
  6
Continuous
 62
     7
370
    25
100
AcDbLine
 10
75.5608327461
 20
227.0680491765
 30
0.0
 11
75.5608327461
 21
213.845550421
 31
0.0
  0
LINE
  5
21A
330
1F
100
AcDbEntity
  8
0
  6
Continuous
 62
     7
370
    25
100
AcDbLine
 10
88.7899495496
 20
227.0680491765
 30
0.0
 11
75.5608327461
 21
227.0680491765
 31
0.0
  0
LINE
  5
21B
330
1F
100
AcDbEntity
  8
0
  6
Continuous
 62
     7
370
    25
100
AcDbLine
 10
88.7899495496
 20
213.845550421
 30
0.0
 11
88.7899495496
 21
227.0680491765
 31
0.0
  0
ARC
  5
21C
330
1F
100
AcDbEntity
  8
0
  6
Continuous
 62
     7
370
    25
100
AcDbCircle
 10
75.9512431808
 20
227.5743409684
 30
0.0
 40
0.1847991589692981
100
AcDbArc
 50
180.0
 51
0.0
  0
LINE
  5
21D
330
1F
100
AcDbEntity
  8
0
  6
Continuous
 62
     7
370
    25
100
AcDbLine
 10
75.7664440218
 20
228.7968584815
 30
0.0
 11
75.7664440218
 21
227.5743409684
 31
0.0
  0
ARC
  5
21E
330
1F
100
AcDbEntity
  8
0
  6
Continuous
 62
     7
370
    25
100
AcDbCircle
 10
75.9512431808
 20
228.7968584815
 30
0.0
 40
0.1847991589692981
100
AcDbArc
 50
0.0
 51
180.0
  0
LINE
  5
21F
330
1F
100
AcDbEntity
  8
0
  6
Continuous
 62
     7
370
    25
100
AcDbLine
 10
76.1360423397
 20
227.5743409684
 30
0.0
 11
76.1360423397
 21
228.7968584815
 31
0.0
  0
ARC
  5
220
330
1F
100
AcDbEntity
  8
0
  6
Continuous
 62
     7
370
    25
100
AcDbCircle
 10
76.7512431808
 20
227.5743409684
 30
0.0
 40
0.1847991589692981
100
AcDbArc
 50
180.0
 51
0.0
  0
LINE
  5
221
330
1F
100
AcDbEntity
  8
0
  6
Continuous
 62
     7
370
    25
100
AcDbLine
 10
76.5664440218
 20
228.7968584815
 30
0.0
 11
76.5664440218
 21
227.5743409684
 31
0.0
  0
ARC
  5
222
330
1F
100
AcDbEntity
  8
0
  6
Continuous
 62
     7
370
    25
100
AcDbCircle
 10
76.7512431808
 20
228.7968584815
 30
0.0
 40
0.1847991589692981
100
AcDbArc
 50
0.0
 51
180.0
  0
LINE
  5
223
330
1F
100
AcDbEntity
  8
0
  6
Continuous
 62
     7
370
    25
100
AcDbLine
 10
76.9360423397
 20
227.5743409684
 30
0.0
 11
76.9360423397
 21
228.7968584815
 31
0.0
  0
ARC
  5
224
330
1F
100
AcDbEntity
  8
0
  6
Continuous
 62
     7
370
    25
100
AcDbCircle
 10
77.5512431808
 20
227.5743409684
 30
0.0
 40
0.1847991589692981
100
AcDbArc
 50
180.0
 51
0.0
  0
LINE
  5
225
330
1F
100
AcDbEntity
  8
0
  6
Continuous
 62
     7
370
    25
100
AcDbLine
 10
77.3664440218
 20
228.7968584815
 30
0.0
 11
77.3664440218
 21
227.5743409684
 31
0.0
  0
ARC
  5
226
330
1F
100
AcDbEntity
  8
0
  6
Continuous
 62
     7
370
    25
100
AcDbCircle
 10
77.5512431808
 20
228.7968584815
 30
0.0
 40
0.1847991589692981
100
AcDbArc
 50
0.0
 51
180.0
  0
LINE
  5
227
330
1F
100
AcDbEntity
  8
0
  6
Continuous
 62
     7
370
    25
100
AcDbLine
 10
77.7360423397
 20
227.5743409684
 30
0.0
 11
77.7360423397
 21
228.7968584815
 31
0.0
  0
ARC
  5
228
330
1F
100
AcDbEntity
  8
0
  6
Continuous
 62
     7
370
    25
100
AcDbCircle
 10
78.3512431808
 20
227.5743409684
 30
0.0
 40
0.1847991589692981
100
AcDbArc
 50
180.0
 51
0.0
  0
LINE
  5
229
330
1F
100
AcDbEntity
  8
0
  6
Continuous
 62
     7
370
    25
100
AcDbLine
 10
78.1664440218
 20
228.7968584815
 30
0.0
 11
78.1664440218
 21
227.5743409684
 31
0.0
  0
ARC
  5
22A
330
1F
100
AcDbEntity
  8
0
  6
Continuous
 62
     7
370
    25
100
AcDbCircle
 10
78.3512431808
 20
228.7968584815
 30
0.0
 40
0.1847991589692981
100
AcDbArc
 50
0.0
 51
180.0
  0
LINE
  5
22B
330
1F
100
AcDbEntity
  8
0
  6
Continuous
 62
     7
370
    25
100
AcDbLine
 10
78.5360423397
 20
227.5743409684
 30
0.0
 11
78.5360423397
 21
228.7968584815
 31
0.0
  0
ARC
  5
22C
330
1F
100
AcDbEntity
  8
0
  6
Continuous
 62
     7
370
    25
100
AcDbCircle
 10
79.1512431808
 20
227.5743409684
 30
0.0
 40
0.1847991589692981
100
AcDbArc
 50
180.0
 51
0.0
  0
LINE
  5
22D
330
1F
100
AcDbEntity
  8
0
  6
Continuous
 62
     7
370
    25
100
AcDbLine
 10
78.9664440218
 20
228.7968584815
 30
0.0
 11
78.9664440218
 21
227.5743409684
 31
0.0
  0
ARC
  5
22E
330
1F
100
AcDbEntity
  8
0
  6
Continuous
 62
     7
370
    25
100
AcDbCircle
 10
79.1512431808
 20
228.7968584815
 30
0.0
 40
0.1847991589692981
100
AcDbArc
 50
0.0
 51
180.0
  0
LINE
  5
22F
330
1F
100
AcDbEntity
  8
0
  6
Continuous
 62
     7
370
    25
100
AcDbLine
 10
79.3360423397
 20
227.5743409684
 30
0.0
 11
79.3360423397
 21
228.7968584815
 31
0.0
  0
ARC
  5
230
330
1F
100
AcDbEntity
  8
0
  6
Continuous
 62
     7
370
    25
100
AcDbCircle
 10
79.9512431808
 20
227.5743409684
 30
0.0
 40
0.1847991589692981
100
AcDbArc
 50
180.0
 51
0.0
  0
LINE
  5
231
330
1F
100
AcDbEntity
  8
0
  6
Continuous
 62
     7
370
    25
100
AcDbLine
 10
79.7664440218
 20
228.7968584815
 30
0.0
 11
79.7664440218
 21
227.5743409684
 31
0.0
  0
ARC
  5
232
330
1F
100
AcDbEntity
  8
0
  6
Continuous
 62
     7
370
    25
100
AcDbCircle
 10
79.9512431808
 20
228.7968584815
 30
0.0
 40
0.1847991589692981
100
AcDbArc
 50
0.0
 51
180.0
  0
LINE
  5
233
330
1F
100
AcDbEntity
  8
0
  6
Continuous
 62
     7
370
    25
100
AcDbLine
 10
80.1360423397
 20
227.5743409684
 30
0.0
 11
80.1360423397
 21
228.7968584815
 31
0.0
  0
ARC
  5
234
330
1F
100
AcDbEntity
  8
0
  6
Continuous
 62
     7
370
    25
100
AcDbCircle
 10
80.7512431808
 20
227.5743409684
 30
0.0
 40
0.1847991589692981
100
AcDbArc
 50
180.0
 51
0.0
  0
LINE
  5
235
330
1F
100
AcDbEntity
  8
0
  6
Continuous
 62
     7
370
    25
100
AcDbLine
 10
80.5664440218
 20
228.7968584815
 30
0.0
 11
80.5664440218
 21
227.5743409684
 31
0.0
  0
ARC
  5
236
330
1F
100
AcDbEntity
  8
0
  6
Continuous
 62
     7
370
    25
100
AcDbCircle
 10
80.7512431808
 20
228.7968584815
 30
0.0
 40
0.1847991589692981
100
AcDbArc
 50
0.0
 51
180.0
  0
LINE
  5
237
330
1F
100
AcDbEntity
  8
0
  6
Continuous
 62
     7
370
    25
100
AcDbLine
 10
80.9360423397
 20
227.5743409684
 30
0.0
 11
80.9360423397
 21
228.7968584815
 31
0.0
  0
ARC
  5
238
330
1F
100
AcDbEntity
  8
0
  6
Continuous
 62
     7
370
    25
100
AcDbCircle
 10
81.5512431808
 20
227.5743409684
 30
0.0
 40
0.1847991589692981
100
AcDbArc
 50
180.0
 51
0.0
  0
LINE
  5
239
330
1F
100
AcDbEntity
  8
0
  6
Continuous
 62
     7
370
    25
100
AcDbLine
 10
81.3664440218
 20
228.7968584815
 30
0.0
 11
81.3664440218
 21
227.5743409684
 31
0.0
  0
ARC
  5
23A
330
1F
100
AcDbEntity
  8
0
  6
Continuous
 62
     7
370
    25
100
AcDbCircle
 10
81.5512431808
 20
228.7968584815
 30
0.0
 40
0.1847991589692981
100
AcDbArc
 50
0.0
 51
180.0
  0
LINE
  5
23B
330
1F
100
AcDbEntity
  8
0
  6
Continuous
 62
     7
370
    25
100
AcDbLine
 10
81.7360423397
 20
227.5743409684
 30
0.0
 11
81.7360423397
 21
228.7968584815
 31
0.0
  0
ARC
  5
23C
330
1F
100
AcDbEntity
  8
0
  6
Continuous
 62
     7
370
    25
100
AcDbCircle
 10
82.3512431808
 20
227.5743409684
 30
0.0
 40
0.1847991589692981
100
AcDbArc
 50
180.0
 51
0.0
  0
LINE
  5
23D
330
1F
100
AcDbEntity
  8
0
  6
Continuous
 62
     7
370
    25
100
AcDbLine
 10
82.1664440218
 20
228.7968584815
 30
0.0
 11
82.1664440218
 21
227.5743409684
 31
0.0
  0
ARC
  5
23E
330
1F
100
AcDbEntity
  8
0
  6
Continuous
 62
     7
370
    25
100
AcDbCircle
 10
82.3512431808
 20
228.7968584815
 30
0.0
 40
0.1847991589692981
100
AcDbArc
 50
0.0
 51
180.0
  0
LINE
  5
23F
330
1F
100
AcDbEntity
  8
0
  6
Continuous
 62
     7
370
    25
100
AcDbLine
 10
82.5360423397
 20
227.5743409684
 30
0.0
 11
82.5360423397
 21
228.7968584815
 31
0.0
  0
ARC
  5
240
330
1F
100
AcDbEntity
  8
0
  6
Continuous
 62
     7
370
    25
100
AcDbCircle
 10
83.1512431808
 20
227.5743409684
 30
0.0
 40
0.1847991589692981
100
AcDbArc
 50
180.0
 51
0.0
  0
LINE
  5
241
330
1F
100
AcDbEntity
  8
0
  6
Continuous
 62
     7
370
    25
100
AcDbLine
 10
82.9664440218
 20
228.7968584815
 30
0.0
 11
82.9664440218
 21
227.5743409684
 31
0.0
  0
ARC
  5
242
330
1F
100
AcDbEntity
  8
0
  6
Continuous
 62
     7
370
    25
100
AcDbCircle
 10
83.1512431808
 20
228.7968584815
 30
0.0
 40
0.1847991589692981
100
AcDbArc
 50
0.0
 51
180.0
  0
LINE
  5
243
330
1F
100
AcDbEntity
  8
0
  6
Continuous
 62
     7
370
    25
100
AcDbLine
 10
83.3360423397
 20
227.5743409684
 30
0.0
 11
83.3360423397
 21
228.7968584815
 31
0.0
  0
ARC
  5
244
330
1F
100
AcDbEntity
  8
0
  6
Continuous
 62
     7
370
    25
100
AcDbCircle
 10
83.9512431808
 20
227.5743409684
 30
0.0
 40
0.1847991589692981
100
AcDbArc
 50
180.0
 51
0.0
  0
LINE
  5
245
330
1F
100
AcDbEntity
  8
0
  6
Continuous
 62
     7
370
    25
100
AcDbLine
 10
83.7664440218
 20
228.7968584815
 30
0.0
 11
83.7664440218
 21
227.5743409684
 31
0.0
  0
ARC
  5
246
330
1F
100
AcDbEntity
  8
0
  6
Continuous
 62
     7
370
    25
100
AcDbCircle
 10
83.9512431808
 20
228.7968584815
 30
0.0
 40
0.1847991589692981
100
AcDbArc
 50
0.0
 51
180.0
  0
LINE
  5
247
330
1F
100
AcDbEntity
  8
0
  6
Continuous
 62
     7
370
    25
100
AcDbLine
 10
84.1360423397
 20
227.5743409684
 30
0.0
 11
84.1360423397
 21
228.7968584815
 31
0.0
  0
ARC
  5
248
330
1F
100
AcDbEntity
  8
0
  6
Continuous
 62
     7
370
    25
100
AcDbCircle
 10
84.7512431808
 20
227.5743409684
 30
0.0
 40
0.1847991589692981
100
AcDbArc
 50
180.0
 51
0.0
  0
LINE
  5
249
330
1F
100
AcDbEntity
  8
0
  6
Continuous
 62
     7
370
    25
100
AcDbLine
 10
84.5664440218
 20
228.7968584815
 30
0.0
 11
84.5664440218
 21
227.5743409684
 31
0.0
  0
ARC
  5
24A
330
1F
100
AcDbEntity
  8
0
  6
Continuous
 62
     7
370
    25
100
AcDbCircle
 10
84.7512431808
 20
228.7968584815
 30
0.0
 40
0.1847991589692981
100
AcDbArc
 50
0.0
 51
180.0
  0
LINE
  5
24B
330
1F
100
AcDbEntity
  8
0
  6
Continuous
 62
     7
370
    25
100
AcDbLine
 10
84.9360423397
 20
227.5743409684
 30
0.0
 11
84.9360423397
 21
228.7968584815
 31
0.0
  0
ARC
  5
24C
330
1F
100
AcDbEntity
  8
0
  6
Continuous
 62
     7
370
    25
100
AcDbCircle
 10
85.5512431808
 20
227.5743409684
 30
0.0
 40
0.1847991589692981
100
AcDbArc
 50
180.0
 51
0.0
  0
LINE
  5
24D
330
1F
100
AcDbEntity
  8
0
  6
Continuous
 62
     7
370
    25
100
AcDbLine
 10
85.3664440218
 20
228.7968584815
 30
0.0
 11
85.3664440218
 21
227.5743409684
 31
0.0
  0
ARC
  5
24E
330
1F
100
AcDbEntity
  8
0
  6
Continuous
 62
     7
370
    25
100
AcDbCircle
 10
85.5512431808
 20
228.7968584815
 30
0.0
 40
0.1847991589692981
100
AcDbArc
 50
0.0
 51
180.0
  0
LINE
  5
24F
330
1F
100
AcDbEntity
  8
0
  6
Continuous
 62
     7
370
    25
100
AcDbLine
 10
85.7360423397
 20
227.5743409684
 30
0.0
 11
85.7360423397
 21
228.7968584815
 31
0.0
  0
ARC
  5
250
330
1F
100
AcDbEntity
  8
0
  6
Continuous
 62
     7
370
    25
100
AcDbCircle
 10
86.3512431808
 20
227.5743409684
 30
0.0
 40
0.1847991589692981
100
AcDbArc
 50
180.0
 51
0.0
  0
LINE
  5
251
330
1F
100
AcDbEntity
  8
0
  6
Continuous
 62
     7
370
    25
100
AcDbLine
 10
86.1664440218
 20
228.7968584815
 30
0.0
 11
86.1664440218
 21
227.5743409684
 31
0.0
  0
ARC
  5
252
330
1F
100
AcDbEntity
  8
0
  6
Continuous
 62
     7
370
    25
100
AcDbCircle
 10
86.3512431808
 20
228.7968584815
 30
0.0
 40
0.1847991589692981
100
AcDbArc
 50
0.0
 51
180.0
  0
LINE
  5
253
330
1F
100
AcDbEntity
  8
0
  6
Continuous
 62
     7
370
    25
100
AcDbLine
 10
86.5360423397
 20
227.5743409684
 30
0.0
 11
86.5360423397
 21
228.7968584815
 31
0.0
  0
ARC
  5
254
330
1F
100
AcDbEntity
  8
0
  6
Continuous
 62
     7
370
    25
100
AcDbCircle
 10
87.1512431808
 20
227.5743409684
 30
0.0
 40
0.1847991589692981
100
AcDbArc
 50
180.0
 51
0.0
  0
LINE
  5
255
330
1F
100
AcDbEntity
  8
0
  6
Continuous
 62
     7
370
    25
100
AcDbLine
 10
86.9664440218
 20
228.7968584815
 30
0.0
 11
86.9664440218
 21
227.5743409684
 31
0.0
  0
ARC
  5
256
330
1F
100
AcDbEntity
  8
0
  6
Continuous
 62
     7
370
    25
100
AcDbCircle
 10
87.1512431808
 20
228.7968584815
 30
0.0
 40
0.1847991589692981
100
AcDbArc
 50
0.0
 51
180.0
  0
LINE
  5
257
330
1F
100
AcDbEntity
  8
0
  6
Continuous
 62
     7
370
    25
100
AcDbLine
 10
87.3360423397
 20
227.5743409684
 30
0.0
 11
87.3360423397
 21
228.7968584815
 31
0.0
  0
ARC
  5
258
330
1F
100
AcDbEntity
  8
0
  6
Continuous
 62
     7
370
    25
100
AcDbCircle
 10
87.9512431808
 20
227.5743409684
 30
0.0
 40
0.1847991589692981
100
AcDbArc
 50
180.0
 51
0.0
  0
LINE
  5
259
330
1F
100
AcDbEntity
  8
0
  6
Continuous
 62
     7
370
    25
100
AcDbLine
 10
87.7664440218
 20
228.7968584815
 30
0.0
 11
87.7664440218
 21
227.5743409684
 31
0.0
  0
ARC
  5
25A
330
1F
100
AcDbEntity
  8
0
  6
Continuous
 62
     7
370
    25
100
AcDbCircle
 10
87.9512431808
 20
228.7968584815
 30
0.0
 40
0.1847991589692981
100
AcDbArc
 50
0.0
 51
180.0
  0
LINE
  5
25B
330
1F
100
AcDbEntity
  8
0
  6
Continuous
 62
     7
370
    25
100
AcDbLine
 10
88.1360423397
 20
227.5743409684
 30
0.0
 11
88.1360423397
 21
228.7968584815
 31
0.0
  0
ARC
  5
25C
330
1F
100
AcDbEntity
  8
0
  6
Continuous
 62
     7
370
    25
100
AcDbCircle
 10
75.9512431808
 20
213.3802492181
 30
0.0
 40
0.1847991589692981
100
AcDbArc
 50
0.0
 51
180.0
  0
LINE
  5
25D
330
1F
100
AcDbEntity
  8
0
  6
Continuous
 62
     7
370
    25
100
AcDbLine
 10
76.1360423397
 20
212.1577317049
 30
0.0
 11
76.1360423397
 21
213.3802492181
 31
0.0
  0
ARC
  5
25E
330
1F
100
AcDbEntity
  8
0
  6
Continuous
 62
     7
370
    25
100
AcDbCircle
 10
75.9512431808
 20
212.1577317049
 30
0.0
 40
0.1847991589692981
100
AcDbArc
 50
180.0
 51
0.0
  0
LINE
  5
25F
330
1F
100
AcDbEntity
  8
0
  6
Continuous
 62
     7
370
    25
100
AcDbLine
 10
75.7664440218
 20
213.3802492181
 30
0.0
 11
75.7664440218
 21
212.1577317049
 31
0.0
  0
ARC
  5
260
330
1F
100
AcDbEntity
  8
0
  6
Continuous
 62
     7
370
    25
100
AcDbCircle
 10
76.7512431808
 20
213.3802492181
 30
0.0
 40
0.1847991589692981
100
AcDbArc
 50
0.0
 51
180.0
  0
LINE
  5
261
330
1F
100
AcDbEntity
  8
0
  6
Continuous
 62
     7
370
    25
100
AcDbLine
 10
76.9360423397
 20
212.1577317049
 30
0.0
 11
76.9360423397
 21
213.3802492181
 31
0.0
  0
ARC
  5
262
330
1F
100
AcDbEntity
  8
0
  6
Continuous
 62
     7
370
    25
100
AcDbCircle
 10
76.7512431808
 20
212.1577317049
 30
0.0
 40
0.1847991589692981
100
AcDbArc
 50
180.0
 51
0.0
  0
LINE
  5
263
330
1F
100
AcDbEntity
  8
0
  6
Continuous
 62
     7
370
    25
100
AcDbLine
 10
76.5664440218
 20
213.3802492181
 30
0.0
 11
76.5664440218
 21
212.1577317049
 31
0.0
  0
ARC
  5
264
330
1F
100
AcDbEntity
  8
0
  6
Continuous
 62
     7
370
    25
100
AcDbCircle
 10
77.5512431808
 20
213.3802492181
 30
0.0
 40
0.1847991589692981
100
AcDbArc
 50
0.0
 51
180.0
  0
LINE
  5
265
330
1F
100
AcDbEntity
  8
0
  6
Continuous
 62
     7
370
    25
100
AcDbLine
 10
77.7360423397
 20
212.1577317049
 30
0.0
 11
77.7360423397
 21
213.3802492181
 31
0.0
  0
ARC
  5
266
330
1F
100
AcDbEntity
  8
0
  6
Continuous
 62
     7
370
    25
100
AcDbCircle
 10
77.5512431808
 20
212.1577317049
 30
0.0
 40
0.1847991589692981
100
AcDbArc
 50
180.0
 51
0.0
  0
LINE
  5
267
330
1F
100
AcDbEntity
  8
0
  6
Continuous
 62
     7
370
    25
100
AcDbLine
 10
77.3664440218
 20
213.3802492181
 30
0.0
 11
77.3664440218
 21
212.1577317049
 31
0.0
  0
ARC
  5
268
330
1F
100
AcDbEntity
  8
0
  6
Continuous
 62
     7
370
    25
100
AcDbCircle
 10
78.3512431808
 20
213.3802492181
 30
0.0
 40
0.1847991589692981
100
AcDbArc
 50
0.0
 51
180.0
  0
LINE
  5
269
330
1F
100
AcDbEntity
  8
0
  6
Continuous
 62
     7
370
    25
100
AcDbLine
 10
78.5360423397
 20
212.1577317049
 30
0.0
 11
78.5360423397
 21
213.3802492181
 31
0.0
  0
ARC
  5
26A
330
1F
100
AcDbEntity
  8
0
  6
Continuous
 62
     7
370
    25
100
AcDbCircle
 10
78.3512431808
 20
212.1577317049
 30
0.0
 40
0.1847991589692981
100
AcDbArc
 50
180.0
 51
0.0
  0
LINE
  5
26B
330
1F
100
AcDbEntity
  8
0
  6
Continuous
 62
     7
370
    25
100
AcDbLine
 10
78.1664440218
 20
213.3802492181
 30
0.0
 11
78.1664440218
 21
212.1577317049
 31
0.0
  0
ARC
  5
26C
330
1F
100
AcDbEntity
  8
0
  6
Continuous
 62
     7
370
    25
100
AcDbCircle
 10
79.1512431808
 20
213.3802492181
 30
0.0
 40
0.1847991589692981
100
AcDbArc
 50
0.0
 51
180.0
  0
LINE
  5
26D
330
1F
100
AcDbEntity
  8
0
  6
Continuous
 62
     7
370
    25
100
AcDbLine
 10
79.3360423397
 20
212.1577317049
 30
0.0
 11
79.3360423397
 21
213.3802492181
 31
0.0
  0
ARC
  5
26E
330
1F
100
AcDbEntity
  8
0
  6
Continuous
 62
     7
370
    25
100
AcDbCircle
 10
79.1512431808
 20
212.1577317049
 30
0.0
 40
0.1847991589692981
100
AcDbArc
 50
180.0
 51
0.0
  0
LINE
  5
26F
330
1F
100
AcDbEntity
  8
0
  6
Continuous
 62
     7
370
    25
100
AcDbLine
 10
78.9664440218
 20
213.3802492181
 30
0.0
 11
78.9664440218
 21
212.1577317049
 31
0.0
  0
ARC
  5
270
330
1F
100
AcDbEntity
  8
0
  6
Continuous
 62
     7
370
    25
100
AcDbCircle
 10
79.9512431808
 20
213.3802492181
 30
0.0
 40
0.1847991589692981
100
AcDbArc
 50
0.0
 51
180.0
  0
LINE
  5
271
330
1F
100
AcDbEntity
  8
0
  6
Continuous
 62
     7
370
    25
100
AcDbLine
 10
80.1360423397
 20
212.1577317049
 30
0.0
 11
80.1360423397
 21
213.3802492181
 31
0.0
  0
ARC
  5
272
330
1F
100
AcDbEntity
  8
0
  6
Continuous
 62
     7
370
    25
100
AcDbCircle
 10
79.9512431808
 20
212.1577317049
 30
0.0
 40
0.1847991589692981
100
AcDbArc
 50
180.0
 51
0.0
  0
LINE
  5
273
330
1F
100
AcDbEntity
  8
0
  6
Continuous
 62
     7
370
    25
100
AcDbLine
 10
79.7664440218
 20
213.3802492181
 30
0.0
 11
79.7664440218
 21
212.1577317049
 31
0.0
  0
ARC
  5
274
330
1F
100
AcDbEntity
  8
0
  6
Continuous
 62
     7
370
    25
100
AcDbCircle
 10
80.7512431808
 20
213.3802492181
 30
0.0
 40
0.1847991589692981
100
AcDbArc
 50
0.0
 51
180.0
  0
LINE
  5
275
330
1F
100
AcDbEntity
  8
0
  6
Continuous
 62
     7
370
    25
100
AcDbLine
 10
80.9360423397
 20
212.1577317049
 30
0.0
 11
80.9360423397
 21
213.3802492181
 31
0.0
  0
ARC
  5
276
330
1F
100
AcDbEntity
  8
0
  6
Continuous
 62
     7
370
    25
100
AcDbCircle
 10
80.7512431808
 20
212.1577317049
 30
0.0
 40
0.1847991589692981
100
AcDbArc
 50
180.0
 51
0.0
  0
LINE
  5
277
330
1F
100
AcDbEntity
  8
0
  6
Continuous
 62
     7
370
    25
100
AcDbLine
 10
80.5664440218
 20
213.3802492181
 30
0.0
 11
80.5664440218
 21
212.1577317049
 31
0.0
  0
ARC
  5
278
330
1F
100
AcDbEntity
  8
0
  6
Continuous
 62
     7
370
    25
100
AcDbCircle
 10
81.5512431808
 20
213.3802492181
 30
0.0
 40
0.1847991589692981
100
AcDbArc
 50
0.0
 51
180.0
  0
LINE
  5
279
330
1F
100
AcDbEntity
  8
0
  6
Continuous
 62
     7
370
    25
100
AcDbLine
 10
81.7360423397
 20
212.1577317049
 30
0.0
 11
81.7360423397
 21
213.3802492181
 31
0.0
  0
ARC
  5
27A
330
1F
100
AcDbEntity
  8
0
  6
Continuous
 62
     7
370
    25
100
AcDbCircle
 10
81.5512431808
 20
212.1577317049
 30
0.0
 40
0.1847991589692981
100
AcDbArc
 50
180.0
 51
0.0
  0
LINE
  5
27B
330
1F
100
AcDbEntity
  8
0
  6
Continuous
 62
     7
370
    25
100
AcDbLine
 10
81.3664440218
 20
213.3802492181
 30
0.0
 11
81.3664440218
 21
212.1577317049
 31
0.0
  0
ARC
  5
27C
330
1F
100
AcDbEntity
  8
0
  6
Continuous
 62
     7
370
    25
100
AcDbCircle
 10
82.3512431808
 20
213.3802492181
 30
0.0
 40
0.1847991589692981
100
AcDbArc
 50
0.0
 51
180.0
  0
LINE
  5
27D
330
1F
100
AcDbEntity
  8
0
  6
Continuous
 62
     7
370
    25
100
AcDbLine
 10
82.5360423397
 20
212.1577317049
 30
0.0
 11
82.5360423397
 21
213.3802492181
 31
0.0
  0
ARC
  5
27E
330
1F
100
AcDbEntity
  8
0
  6
Continuous
 62
     7
370
    25
100
AcDbCircle
 10
82.3512431808
 20
212.1577317049
 30
0.0
 40
0.1847991589692981
100
AcDbArc
 50
180.0
 51
0.0
  0
LINE
  5
27F
330
1F
100
AcDbEntity
  8
0
  6
Continuous
 62
     7
370
    25
100
AcDbLine
 10
82.1664440218
 20
213.3802492181
 30
0.0
 11
82.1664440218
 21
212.1577317049
 31
0.0
  0
ARC
  5
280
330
1F
100
AcDbEntity
  8
0
  6
Continuous
 62
     7
370
    25
100
AcDbCircle
 10
83.1512431808
 20
213.3802492181
 30
0.0
 40
0.1847991589692981
100
AcDbArc
 50
0.0
 51
180.0
  0
LINE
  5
281
330
1F
100
AcDbEntity
  8
0
  6
Continuous
 62
     7
370
    25
100
AcDbLine
 10
83.3360423397
 20
212.1577317049
 30
0.0
 11
83.3360423397
 21
213.3802492181
 31
0.0
  0
ARC
  5
282
330
1F
100
AcDbEntity
  8
0
  6
Continuous
 62
     7
370
    25
100
AcDbCircle
 10
83.1512431808
 20
212.1577317049
 30
0.0
 40
0.1847991589692981
100
AcDbArc
 50
180.0
 51
0.0
  0
LINE
  5
283
330
1F
100
AcDbEntity
  8
0
  6
Continuous
 62
     7
370
    25
100
AcDbLine
 10
82.9664440218
 20
213.3802492181
 30
0.0
 11
82.9664440218
 21
212.1577317049
 31
0.0
  0
ARC
  5
284
330
1F
100
AcDbEntity
  8
0
  6
Continuous
 62
     7
370
    25
100
AcDbCircle
 10
83.9512431808
 20
213.3802492181
 30
0.0
 40
0.1847991589692981
100
AcDbArc
 50
0.0
 51
180.0
  0
LINE
  5
285
330
1F
100
AcDbEntity
  8
0
  6
Continuous
 62
     7
370
    25
100
AcDbLine
 10
84.1360423397
 20
212.1577317049
 30
0.0
 11
84.1360423397
 21
213.3802492181
 31
0.0
  0
ARC
  5
286
330
1F
100
AcDbEntity
  8
0
  6
Continuous
 62
     7
370
    25
100
AcDbCircle
 10
83.9512431808
 20
212.1577317049
 30
0.0
 40
0.1847991589692981
100
AcDbArc
 50
180.0
 51
0.0
  0
LINE
  5
287
330
1F
100
AcDbEntity
  8
0
  6
Continuous
 62
     7
370
    25
100
AcDbLine
 10
83.7664440218
 20
213.3802492181
 30
0.0
 11
83.7664440218
 21
212.1577317049
 31
0.0
  0
ARC
  5
288
330
1F
100
AcDbEntity
  8
0
  6
Continuous
 62
     7
370
    25
100
AcDbCircle
 10
84.7512431808
 20
213.3802492181
 30
0.0
 40
0.1847991589692981
100
AcDbArc
 50
0.0
 51
180.0
  0
LINE
  5
289
330
1F
100
AcDbEntity
  8
0
  6
Continuous
 62
     7
370
    25
100
AcDbLine
 10
84.9360423397
 20
212.1577317049
 30
0.0
 11
84.9360423397
 21
213.3802492181
 31
0.0
  0
ARC
  5
28A
330
1F
100
AcDbEntity
  8
0
  6
Continuous
 62
     7
370
    25
100
AcDbCircle
 10
84.7512431808
 20
212.1577317049
 30
0.0
 40
0.1847991589692981
100
AcDbArc
 50
180.0
 51
0.0
  0
LINE
  5
28B
330
1F
100
AcDbEntity
  8
0
  6
Continuous
 62
     7
370
    25
100
AcDbLine
 10
84.5664440218
 20
213.3802492181
 30
0.0
 11
84.5664440218
 21
212.1577317049
 31
0.0
  0
ARC
  5
28C
330
1F
100
AcDbEntity
  8
0
  6
Continuous
 62
     7
370
    25
100
AcDbCircle
 10
85.5512431808
 20
213.3802492181
 30
0.0
 40
0.1847991589692981
100
AcDbArc
 50
0.0
 51
180.0
  0
LINE
  5
28D
330
1F
100
AcDbEntity
  8
0
  6
Continuous
 62
     7
370
    25
100
AcDbLine
 10
85.7360423397
 20
212.1577317049
 30
0.0
 11
85.7360423397
 21
213.3802492181
 31
0.0
  0
ARC
  5
28E
330
1F
100
AcDbEntity
  8
0
  6
Continuous
 62
     7
370
    25
100
AcDbCircle
 10
85.5512431808
 20
212.1577317049
 30
0.0
 40
0.1847991589692981
100
AcDbArc
 50
180.0
 51
0.0
  0
LINE
  5
28F
330
1F
100
AcDbEntity
  8
0
  6
Continuous
 62
     7
370
    25
100
AcDbLine
 10
85.3664440218
 20
213.3802492181
 30
0.0
 11
85.3664440218
 21
212.1577317049
 31
0.0
  0
ARC
  5
290
330
1F
100
AcDbEntity
  8
0
  6
Continuous
 62
     7
370
    25
100
AcDbCircle
 10
86.3512431808
 20
213.3802492181
 30
0.0
 40
0.1847991589692981
100
AcDbArc
 50
0.0
 51
180.0
  0
LINE
  5
291
330
1F
100
AcDbEntity
  8
0
  6
Continuous
 62
     7
370
    25
100
AcDbLine
 10
86.5360423397
 20
212.1577317049
 30
0.0
 11
86.5360423397
 21
213.3802492181
 31
0.0
  0
ARC
  5
292
330
1F
100
AcDbEntity
  8
0
  6
Continuous
 62
     7
370
    25
100
AcDbCircle
 10
86.3512431808
 20
212.1577317049
 30
0.0
 40
0.1847991589692981
100
AcDbArc
 50
180.0
 51
0.0
  0
LINE
  5
293
330
1F
100
AcDbEntity
  8
0
  6
Continuous
 62
     7
370
    25
100
AcDbLine
 10
86.1664440218
 20
213.3802492181
 30
0.0
 11
86.1664440218
 21
212.1577317049
 31
0.0
  0
ARC
  5
294
330
1F
100
AcDbEntity
  8
0
  6
Continuous
 62
     7
370
    25
100
AcDbCircle
 10
87.1512431808
 20
213.3802492181
 30
0.0
 40
0.1847991589692981
100
AcDbArc
 50
0.0
 51
180.0
  0
LINE
  5
295
330
1F
100
AcDbEntity
  8
0
  6
Continuous
 62
     7
370
    25
100
AcDbLine
 10
87.3360423397
 20
212.1577317049
 30
0.0
 11
87.3360423397
 21
213.3802492181
 31
0.0
  0
ARC
  5
296
330
1F
100
AcDbEntity
  8
0
  6
Continuous
 62
     7
370
    25
100
AcDbCircle
 10
87.1512431808
 20
212.1577317049
 30
0.0
 40
0.1847991589692981
100
AcDbArc
 50
180.0
 51
0.0
  0
LINE
  5
297
330
1F
100
AcDbEntity
  8
0
  6
Continuous
 62
     7
370
    25
100
AcDbLine
 10
86.9664440218
 20
213.3802492181
 30
0.0
 11
86.9664440218
 21
212.1577317049
 31
0.0
  0
ARC
  5
298
330
1F
100
AcDbEntity
  8
0
  6
Continuous
 62
     7
370
    25
100
AcDbCircle
 10
87.9512431808
 20
213.3802492181
 30
0.0
 40
0.1847991589692981
100
AcDbArc
 50
0.0
 51
180.0
  0
LINE
  5
299
330
1F
100
AcDbEntity
  8
0
  6
Continuous
 62
     7
370
    25
100
AcDbLine
 10
88.1360423397
 20
212.1577317049
 30
0.0
 11
88.1360423397
 21
213.3802492181
 31
0.0
  0
ARC
  5
29A
330
1F
100
AcDbEntity
  8
0
  6
Continuous
 62
     7
370
    25
100
AcDbCircle
 10
87.9512431808
 20
212.1577317049
 30
0.0
 40
0.1847991589692981
100
AcDbArc
 50
180.0
 51
0.0
  0
LINE
  5
29B
330
1F
100
AcDbEntity
  8
0
  6
Continuous
 62
     7
370
    25
100
AcDbLine
 10
87.7664440218
 20
213.3802492181
 30
0.0
 11
87.7664440218
 21
212.1577317049
 31
0.0
  0
ARC
  5
29C
330
1F
100
AcDbEntity
  8
0
  6
Continuous
 62
     7
370
    25
100
AcDbCircle
 10
73.7469274137
 20
226.6801188363
 30
0.0
 40
0.1540040557430302
100
AcDbArc
 50
90.0
 51
270.0
  0
LINE
  5
29D
330
1F
100
AcDbEntity
  8
0
  6
Continuous
 62
     7
370
    25
100
AcDbLine
 10
75.1329639154
 20
226.8341228921
 30
0.0
 11
73.7469274137
 21
226.8341228921
 31
0.0
  0
ARC
  5
29E
330
1F
100
AcDbEntity
  8
0
  6
Continuous
 62
     7
370
    25
100
AcDbCircle
 10
75.1329639154
 20
226.6801188363
 30
0.0
 40
0.1540040557430302
100
AcDbArc
 50
270.0
 51
90.0
  0
LINE
  5
29F
330
1F
100
AcDbEntity
  8
0
  6
Continuous
 62
     7
370
    25
100
AcDbLine
 10
73.7469274137
 20
226.5261147806
 30
0.0
 11
75.1329639154
 21
226.5261147806
 31
0.0
  0
ARC
  5
2A0
330
1F
100
AcDbEntity
  8
0
  6
Continuous
 62
     7
370
    25
100
AcDbCircle
 10
73.7469274137
 20
225.8801188363
 30
0.0
 40
0.1540040557430586
100
AcDbArc
 50
90.0
 51
270.0
  0
LINE
  5
2A1
330
1F
100
AcDbEntity
  8
0
  6
Continuous
 62
     7
370
    25
100
AcDbLine
 10
75.1329639154
 20
226.0341228921
 30
0.0
 11
73.7469274137
 21
226.0341228921
 31
0.0
  0
ARC
  5
2A2
330
1F
100
AcDbEntity
  8
0
  6
Continuous
 62
     7
370
    25
100
AcDbCircle
 10
75.1329639154
 20
225.8801188363
 30
0.0
 40
0.1540040557430586
100
AcDbArc
 50
270.0
 51
90.0
  0
LINE
  5
2A3
330
1F
100
AcDbEntity
  8
0
  6
Continuous
 62
     7
370
    25
100
AcDbLine
 10
73.7469274137
 20
225.7261147806
 30
0.0
 11
75.1329639154
 21
225.7261147806
 31
0.0
  0
ARC
  5
2A4
330
1F
100
AcDbEntity
  8
0
  6
Continuous
 62
     7
370
    25
100
AcDbCircle
 10
73.7469274137
 20
225.0801188363
 30
0.0
 40
0.1540040557430302
100
AcDbArc
 50
90.0
 51
270.0
  0
LINE
  5
2A5
330
1F
100
AcDbEntity
  8
0
  6
Continuous
 62
     7
370
    25
100
AcDbLine
 10
75.1329639154
 20
225.2341228921
 30
0.0
 11
73.7469274137
 21
225.2341228921
 31
0.0
  0
ARC
  5
2A6
330
1F
100
AcDbEntity
  8
0
  6
Continuous
 62
     7
370
    25
100
AcDbCircle
 10
75.1329639154
 20
225.0801188363
 30
0.0
 40
0.1540040557430302
100
AcDbArc
 50
270.0
 51
90.0
  0
LINE
  5
2A7
330
1F
100
AcDbEntity
  8
0
  6
Continuous
 62
     7
370
    25
100
AcDbLine
 10
73.7469274137
 20
224.9261147806
 30
0.0
 11
75.1329639154
 21
224.9261147806
 31
0.0
  0
ARC
  5
2A8
330
1F
100
AcDbEntity
  8
0
  6
Continuous
 62
     7
370
    25
100
AcDbCircle
 10
73.7469274137
 20
224.2801188363
 30
0.0
 40
0.1540040557430586
100
AcDbArc
 50
90.0
 51
270.0
  0
LINE
  5
2A9
330
1F
100
AcDbEntity
  8
0
  6
Continuous
 62
     7
370
    25
100
AcDbLine
 10
75.1329639154
 20
224.4341228921
 30
0.0
 11
73.7469274137
 21
224.4341228921
 31
0.0
  0
ARC
  5
2AA
330
1F
100
AcDbEntity
  8
0
  6
Continuous
 62
     7
370
    25
100
AcDbCircle
 10
75.1329639154
 20
224.2801188363
 30
0.0
 40
0.1540040557430586
100
AcDbArc
 50
270.0
 51
90.0
  0
LINE
  5
2AB
330
1F
100
AcDbEntity
  8
0
  6
Continuous
 62
     7
370
    25
100
AcDbLine
 10
73.7469274137
 20
224.1261147806
 30
0.0
 11
75.1329639154
 21
224.1261147806
 31
0.0
  0
ARC
  5
2AC
330
1F
100
AcDbEntity
  8
0
  6
Continuous
 62
     7
370
    25
100
AcDbCircle
 10
73.7469274137
 20
223.4801188363
 30
0.0
 40
0.1540040557430302
100
AcDbArc
 50
90.0
 51
270.0
  0
LINE
  5
2AD
330
1F
100
AcDbEntity
  8
0
  6
Continuous
 62
     7
370
    25
100
AcDbLine
 10
75.1329639154
 20
223.6341228921
 30
0.0
 11
73.7469274137
 21
223.6341228921
 31
0.0
  0
ARC
  5
2AE
330
1F
100
AcDbEntity
  8
0
  6
Continuous
 62
     7
370
    25
100
AcDbCircle
 10
75.1329639154
 20
223.4801188363
 30
0.0
 40
0.1540040557430302
100
AcDbArc
 50
270.0
 51
90.0
  0
LINE
  5
2AF
330
1F
100
AcDbEntity
  8
0
  6
Continuous
 62
     7
370
    25
100
AcDbLine
 10
73.7469274137
 20
223.3261147806
 30
0.0
 11
75.1329639154
 21
223.3261147806
 31
0.0
  0
ARC
  5
2B0
330
1F
100
AcDbEntity
  8
0
  6
Continuous
 62
     7
370
    25
100
AcDbCircle
 10
73.7469274137
 20
222.6801188363
 30
0.0
 40
0.1540040557430302
100
AcDbArc
 50
90.0
 51
270.0
  0
LINE
  5
2B1
330
1F
100
AcDbEntity
  8
0
  6
Continuous
 62
     7
370
    25
100
AcDbLine
 10
75.1329639154
 20
222.8341228921
 30
0.0
 11
73.7469274137
 21
222.8341228921
 31
0.0
  0
ARC
  5
2B2
330
1F
100
AcDbEntity
  8
0
  6
Continuous
 62
     7
370
    25
100
AcDbCircle
 10
75.1329639154
 20
222.6801188363
 30
0.0
 40
0.1540040557430302
100
AcDbArc
 50
270.0
 51
90.0
  0
LINE
  5
2B3
330
1F
100
AcDbEntity
  8
0
  6
Continuous
 62
     7
370
    25
100
AcDbLine
 10
73.7469274137
 20
222.5261147806
 30
0.0
 11
75.1329639154
 21
222.5261147806
 31
0.0
  0
ARC
  5
2B4
330
1F
100
AcDbEntity
  8
0
  6
Continuous
 62
     7
370
    25
100
AcDbCircle
 10
73.7469274137
 20
221.8801188363
 30
0.0
 40
0.1540040557430302
100
AcDbArc
 50
90.0
 51
270.0
  0
LINE
  5
2B5
330
1F
100
AcDbEntity
  8
0
  6
Continuous
 62
     7
370
    25
100
AcDbLine
 10
75.1329639154
 20
222.0341228921
 30
0.0
 11
73.7469274137
 21
222.0341228921
 31
0.0
  0
ARC
  5
2B6
330
1F
100
AcDbEntity
  8
0
  6
Continuous
 62
     7
370
    25
100
AcDbCircle
 10
75.1329639154
 20
221.8801188363
 30
0.0
 40
0.1540040557430302
100
AcDbArc
 50
270.0
 51
90.0
  0
LINE
  5
2B7
330
1F
100
AcDbEntity
  8
0
  6
Continuous
 62
     7
370
    25
100
AcDbLine
 10
73.7469274137
 20
221.7261147806
 30
0.0
 11
75.1329639154
 21
221.7261147806
 31
0.0
  0
ARC
  5
2B8
330
1F
100
AcDbEntity
  8
0
  6
Continuous
 62
     7
370
    25
100
AcDbCircle
 10
73.7469274137
 20
221.0801188363
 30
0.0
 40
0.1540040557430302
100
AcDbArc
 50
90.0
 51
270.0
  0
LINE
  5
2B9
330
1F
100
AcDbEntity
  8
0
  6
Continuous
 62
     7
370
    25
100
AcDbLine
 10
75.1329639154
 20
221.2341228921
 30
0.0
 11
73.7469274137
 21
221.2341228921
 31
0.0
  0
ARC
  5
2BA
330
1F
100
AcDbEntity
  8
0
  6
Continuous
 62
     7
370
    25
100
AcDbCircle
 10
75.1329639154
 20
221.0801188363
 30
0.0
 40
0.1540040557430302
100
AcDbArc
 50
270.0
 51
90.0
  0
LINE
  5
2BB
330
1F
100
AcDbEntity
  8
0
  6
Continuous
 62
     7
370
    25
100
AcDbLine
 10
73.7469274137
 20
220.9261147806
 30
0.0
 11
75.1329639154
 21
220.9261147806
 31
0.0
  0
ARC
  5
2BC
330
1F
100
AcDbEntity
  8
0
  6
Continuous
 62
     7
370
    25
100
AcDbCircle
 10
73.7469274137
 20
220.2801188363
 30
0.0
 40
0.1540040557430586
100
AcDbArc
 50
90.0
 51
270.0
  0
LINE
  5
2BD
330
1F
100
AcDbEntity
  8
0
  6
Continuous
 62
     7
370
    25
100
AcDbLine
 10
75.1329639154
 20
220.4341228921
 30
0.0
 11
73.7469274137
 21
220.4341228921
 31
0.0
  0
ARC
  5
2BE
330
1F
100
AcDbEntity
  8
0
  6
Continuous
 62
     7
370
    25
100
AcDbCircle
 10
75.1329639154
 20
220.2801188363
 30
0.0
 40
0.1540040557430586
100
AcDbArc
 50
270.0
 51
90.0
  0
LINE
  5
2BF
330
1F
100
AcDbEntity
  8
0
  6
Continuous
 62
     7
370
    25
100
AcDbLine
 10
73.7469274137
 20
220.1261147806
 30
0.0
 11
75.1329639154
 21
220.1261147806
 31
0.0
  0
ARC
  5
2C0
330
1F
100
AcDbEntity
  8
0
  6
Continuous
 62
     7
370
    25
100
AcDbCircle
 10
73.7469274137
 20
219.4801188363
 30
0.0
 40
0.1540040557430302
100
AcDbArc
 50
90.0
 51
270.0
  0
LINE
  5
2C1
330
1F
100
AcDbEntity
  8
0
  6
Continuous
 62
     7
370
    25
100
AcDbLine
 10
75.1329639154
 20
219.6341228921
 30
0.0
 11
73.7469274137
 21
219.6341228921
 31
0.0
  0
ARC
  5
2C2
330
1F
100
AcDbEntity
  8
0
  6
Continuous
 62
     7
370
    25
100
AcDbCircle
 10
75.1329639154
 20
219.4801188363
 30
0.0
 40
0.1540040557430302
100
AcDbArc
 50
270.0
 51
90.0
  0
LINE
  5
2C3
330
1F
100
AcDbEntity
  8
0
  6
Continuous
 62
     7
370
    25
100
AcDbLine
 10
73.7469274137
 20
219.3261147806
 30
0.0
 11
75.1329639154
 21
219.3261147806
 31
0.0
  0
ARC
  5
2C4
330
1F
100
AcDbEntity
  8
0
  6
Continuous
 62
     7
370
    25
100
AcDbCircle
 10
73.7469274137
 20
218.6801188363
 30
0.0
 40
0.1540040557430586
100
AcDbArc
 50
90.0
 51
270.0
  0
LINE
  5
2C5
330
1F
100
AcDbEntity
  8
0
  6
Continuous
 62
     7
370
    25
100
AcDbLine
 10
75.1329639154
 20
218.8341228921
 30
0.0
 11
73.7469274137
 21
218.8341228921
 31
0.0
  0
ARC
  5
2C6
330
1F
100
AcDbEntity
  8
0
  6
Continuous
 62
     7
370
    25
100
AcDbCircle
 10
75.1329639154
 20
218.6801188363
 30
0.0
 40
0.1540040557430586
100
AcDbArc
 50
270.0
 51
90.0
  0
LINE
  5
2C7
330
1F
100
AcDbEntity
  8
0
  6
Continuous
 62
     7
370
    25
100
AcDbLine
 10
73.7469274137
 20
218.5261147806
 30
0.0
 11
75.1329639154
 21
218.5261147806
 31
0.0
  0
ARC
  5
2C8
330
1F
100
AcDbEntity
  8
0
  6
Continuous
 62
     7
370
    25
100
AcDbCircle
 10
73.7469274137
 20
217.8801188363
 30
0.0
 40
0.1540040557430302
100
AcDbArc
 50
90.0
 51
270.0
  0
LINE
  5
2C9
330
1F
100
AcDbEntity
  8
0
  6
Continuous
 62
     7
370
    25
100
AcDbLine
 10
75.1329639154
 20
218.0341228921
 30
0.0
 11
73.7469274137
 21
218.0341228921
 31
0.0
  0
ARC
  5
2CA
330
1F
100
AcDbEntity
  8
0
  6
Continuous
 62
     7
370
    25
100
AcDbCircle
 10
75.1329639154
 20
217.8801188363
 30
0.0
 40
0.1540040557430302
100
AcDbArc
 50
270.0
 51
90.0
  0
LINE
  5
2CB
330
1F
100
AcDbEntity
  8
0
  6
Continuous
 62
     7
370
    25
100
AcDbLine
 10
73.7469274137
 20
217.7261147806
 30
0.0
 11
75.1329639154
 21
217.7261147806
 31
0.0
  0
ARC
  5
2CC
330
1F
100
AcDbEntity
  8
0
  6
Continuous
 62
     7
370
    25
100
AcDbCircle
 10
73.7469274137
 20
217.0801188363
 30
0.0
 40
0.1540040557430302
100
AcDbArc
 50
90.0
 51
270.0
  0
LINE
  5
2CD
330
1F
100
AcDbEntity
  8
0
  6
Continuous
 62
     7
370
    25
100
AcDbLine
 10
75.1329639154
 20
217.2341228921
 30
0.0
 11
73.7469274137
 21
217.2341228921
 31
0.0
  0
ARC
  5
2CE
330
1F
100
AcDbEntity
  8
0
  6
Continuous
 62
     7
370
    25
100
AcDbCircle
 10
75.1329639154
 20
217.0801188363
 30
0.0
 40
0.1540040557430302
100
AcDbArc
 50
270.0
 51
90.0
  0
LINE
  5
2CF
330
1F
100
AcDbEntity
  8
0
  6
Continuous
 62
     7
370
    25
100
AcDbLine
 10
73.7469274137
 20
216.9261147806
 30
0.0
 11
75.1329639154
 21
216.9261147806
 31
0.0
  0
ARC
  5
2D0
330
1F
100
AcDbEntity
  8
0
  6
Continuous
 62
     7
370
    25
100
AcDbCircle
 10
73.7469274137
 20
216.2801188363
 30
0.0
 40
0.1540040557430302
100
AcDbArc
 50
90.0
 51
270.0
  0
LINE
  5
2D1
330
1F
100
AcDbEntity
  8
0
  6
Continuous
 62
     7
370
    25
100
AcDbLine
 10
75.1329639154
 20
216.4341228921
 30
0.0
 11
73.7469274137
 21
216.4341228921
 31
0.0
  0
ARC
  5
2D2
330
1F
100
AcDbEntity
  8
0
  6
Continuous
 62
     7
370
    25
100
AcDbCircle
 10
75.1329639154
 20
216.2801188363
 30
0.0
 40
0.1540040557430302
100
AcDbArc
 50
270.0
 51
90.0
  0
LINE
  5
2D3
330
1F
100
AcDbEntity
  8
0
  6
Continuous
 62
     7
370
    25
100
AcDbLine
 10
73.7469274137
 20
216.1261147806
 30
0.0
 11
75.1329639154
 21
216.1261147806
 31
0.0
  0
ARC
  5
2D4
330
1F
100
AcDbEntity
  8
0
  6
Continuous
 62
     7
370
    25
100
AcDbCircle
 10
73.7469274137
 20
215.4801188363
 30
0.0
 40
0.1540040557430302
100
AcDbArc
 50
90.0
 51
270.0
  0
LINE
  5
2D5
330
1F
100
AcDbEntity
  8
0
  6
Continuous
 62
     7
370
    25
100
AcDbLine
 10
75.1329639154
 20
215.6341228921
 30
0.0
 11
73.7469274137
 21
215.6341228921
 31
0.0
  0
ARC
  5
2D6
330
1F
100
AcDbEntity
  8
0
  6
Continuous
 62
     7
370
    25
100
AcDbCircle
 10
75.1329639154
 20
215.4801188363
 30
0.0
 40
0.1540040557430302
100
AcDbArc
 50
270.0
 51
90.0
  0
LINE
  5
2D7
330
1F
100
AcDbEntity
  8
0
  6
Continuous
 62
     7
370
    25
100
AcDbLine
 10
73.7469274137
 20
215.3261147806
 30
0.0
 11
75.1329639154
 21
215.3261147806
 31
0.0
  0
ARC
  5
2D8
330
1F
100
AcDbEntity
  8
0
  6
Continuous
 62
     7
370
    25
100
AcDbCircle
 10
73.7469274137
 20
214.6801188363
 30
0.0
 40
0.1540040557430586
100
AcDbArc
 50
90.0
 51
270.0
  0
LINE
  5
2D9
330
1F
100
AcDbEntity
  8
0
  6
Continuous
 62
     7
370
    25
100
AcDbLine
 10
75.1329639154
 20
214.8341228921
 30
0.0
 11
73.7469274137
 21
214.8341228921
 31
0.0
  0
ARC
  5
2DA
330
1F
100
AcDbEntity
  8
0
  6
Continuous
 62
     7
370
    25
100
AcDbCircle
 10
75.1329639154
 20
214.6801188363
 30
0.0
 40
0.1540040557430586
100
AcDbArc
 50
270.0
 51
90.0
  0
LINE
  5
2DB
330
1F
100
AcDbEntity
  8
0
  6
Continuous
 62
     7
370
    25
100
AcDbLine
 10
73.7469274137
 20
214.5261147806
 30
0.0
 11
75.1329639154
 21
214.5261147806
 31
0.0
  0
ARC
  5
2DC
330
1F
100
AcDbEntity
  8
0
  6
Continuous
 62
     7
370
    25
100
AcDbCircle
 10
90.603854882
 20
226.6801188363
 30
0.0
 40
0.1540040557430302
100
AcDbArc
 50
270.0
 51
90.0
  0
LINE
  5
2DD
330
1F
100
AcDbEntity
  8
0
  6
Continuous
 62
     7
370
    25
100
AcDbLine
 10
89.2178183803
 20
226.5261147806
 30
0.0
 11
90.603854882
 21
226.5261147806
 31
0.0
  0
ARC
  5
2DE
330
1F
100
AcDbEntity
  8
0
  6
Continuous
 62
     7
370
    25
100
AcDbCircle
 10
89.2178183803
 20
226.6801188363
 30
0.0
 40
0.1540040557430302
100
AcDbArc
 50
90.0
 51
270.0
  0
LINE
  5
2DF
330
1F
100
AcDbEntity
  8
0
  6
Continuous
 62
     7
370
    25
100
AcDbLine
 10
90.603854882
 20
226.8341228921
 30
0.0
 11
89.2178183803
 21
226.8341228921
 31
0.0
  0
ARC
  5
2E0
330
1F
100
AcDbEntity
  8
0
  6
Continuous
 62
     7
370
    25
100
AcDbCircle
 10
90.603854882
 20
225.8801188363
 30
0.0
 40
0.1540040557430586
100
AcDbArc
 50
270.0
 51
90.0
  0
LINE
  5
2E1
330
1F
100
AcDbEntity
  8
0
  6
Continuous
 62
     7
370
    25
100
AcDbLine
 10
89.2178183803
 20
225.7261147806
 30
0.0
 11
90.603854882
 21
225.7261147806
 31
0.0
  0
ARC
  5
2E2
330
1F
100
AcDbEntity
  8
0
  6
Continuous
 62
     7
370
    25
100
AcDbCircle
 10
89.2178183803
 20
225.8801188363
 30
0.0
 40
0.1540040557430586
100
AcDbArc
 50
90.0
 51
270.0
  0
LINE
  5
2E3
330
1F
100
AcDbEntity
  8
0
  6
Continuous
 62
     7
370
    25
100
AcDbLine
 10
90.603854882
 20
226.0341228921
 30
0.0
 11
89.2178183803
 21
226.0341228921
 31
0.0
  0
ARC
  5
2E4
330
1F
100
AcDbEntity
  8
0
  6
Continuous
 62
     7
370
    25
100
AcDbCircle
 10
90.603854882
 20
225.0801188363
 30
0.0
 40
0.1540040557430302
100
AcDbArc
 50
270.0
 51
90.0
  0
LINE
  5
2E5
330
1F
100
AcDbEntity
  8
0
  6
Continuous
 62
     7
370
    25
100
AcDbLine
 10
89.2178183803
 20
224.9261147806
 30
0.0
 11
90.603854882
 21
224.9261147806
 31
0.0
  0
ARC
  5
2E6
330
1F
100
AcDbEntity
  8
0
  6
Continuous
 62
     7
370
    25
100
AcDbCircle
 10
89.2178183803
 20
225.0801188363
 30
0.0
 40
0.1540040557430302
100
AcDbArc
 50
90.0
 51
270.0
  0
LINE
  5
2E7
330
1F
100
AcDbEntity
  8
0
  6
Continuous
 62
     7
370
    25
100
AcDbLine
 10
90.603854882
 20
225.2341228921
 30
0.0
 11
89.2178183803
 21
225.2341228921
 31
0.0
  0
ARC
  5
2E8
330
1F
100
AcDbEntity
  8
0
  6
Continuous
 62
     7
370
    25
100
AcDbCircle
 10
90.603854882
 20
224.2801188363
 30
0.0
 40
0.1540040557430586
100
AcDbArc
 50
270.0
 51
90.0
  0
LINE
  5
2E9
330
1F
100
AcDbEntity
  8
0
  6
Continuous
 62
     7
370
    25
100
AcDbLine
 10
89.2178183803
 20
224.1261147806
 30
0.0
 11
90.603854882
 21
224.1261147806
 31
0.0
  0
ARC
  5
2EA
330
1F
100
AcDbEntity
  8
0
  6
Continuous
 62
     7
370
    25
100
AcDbCircle
 10
89.2178183803
 20
224.2801188363
 30
0.0
 40
0.1540040557430586
100
AcDbArc
 50
90.0
 51
270.0
  0
LINE
  5
2EB
330
1F
100
AcDbEntity
  8
0
  6
Continuous
 62
     7
370
    25
100
AcDbLine
 10
90.603854882
 20
224.4341228921
 30
0.0
 11
89.2178183803
 21
224.4341228921
 31
0.0
  0
ARC
  5
2EC
330
1F
100
AcDbEntity
  8
0
  6
Continuous
 62
     7
370
    25
100
AcDbCircle
 10
90.603854882
 20
223.4801188363
 30
0.0
 40
0.1540040557430302
100
AcDbArc
 50
270.0
 51
90.0
  0
LINE
  5
2ED
330
1F
100
AcDbEntity
  8
0
  6
Continuous
 62
     7
370
    25
100
AcDbLine
 10
89.2178183803
 20
223.3261147806
 30
0.0
 11
90.603854882
 21
223.3261147806
 31
0.0
  0
ARC
  5
2EE
330
1F
100
AcDbEntity
  8
0
  6
Continuous
 62
     7
370
    25
100
AcDbCircle
 10
89.2178183803
 20
223.4801188363
 30
0.0
 40
0.1540040557430302
100
AcDbArc
 50
90.0
 51
270.0
  0
LINE
  5
2EF
330
1F
100
AcDbEntity
  8
0
  6
Continuous
 62
     7
370
    25
100
AcDbLine
 10
90.603854882
 20
223.6341228921
 30
0.0
 11
89.2178183803
 21
223.6341228921
 31
0.0
  0
ARC
  5
2F0
330
1F
100
AcDbEntity
  8
0
  6
Continuous
 62
     7
370
    25
100
AcDbCircle
 10
90.603854882
 20
222.6801188363
 30
0.0
 40
0.1540040557430302
100
AcDbArc
 50
270.0
 51
90.0
  0
LINE
  5
2F1
330
1F
100
AcDbEntity
  8
0
  6
Continuous
 62
     7
370
    25
100
AcDbLine
 10
89.2178183803
 20
222.5261147806
 30
0.0
 11
90.603854882
 21
222.5261147806
 31
0.0
  0
ARC
  5
2F2
330
1F
100
AcDbEntity
  8
0
  6
Continuous
 62
     7
370
    25
100
AcDbCircle
 10
89.2178183803
 20
222.6801188363
 30
0.0
 40
0.1540040557430302
100
AcDbArc
 50
90.0
 51
270.0
  0
LINE
  5
2F3
330
1F
100
AcDbEntity
  8
0
  6
Continuous
 62
     7
370
    25
100
AcDbLine
 10
90.603854882
 20
222.8341228921
 30
0.0
 11
89.2178183803
 21
222.8341228921
 31
0.0
  0
ARC
  5
2F4
330
1F
100
AcDbEntity
  8
0
  6
Continuous
 62
     7
370
    25
100
AcDbCircle
 10
90.603854882
 20
221.8801188363
 30
0.0
 40
0.1540040557430302
100
AcDbArc
 50
270.0
 51
90.0
  0
LINE
  5
2F5
330
1F
100
AcDbEntity
  8
0
  6
Continuous
 62
     7
370
    25
100
AcDbLine
 10
89.2178183803
 20
221.7261147806
 30
0.0
 11
90.603854882
 21
221.7261147806
 31
0.0
  0
ARC
  5
2F6
330
1F
100
AcDbEntity
  8
0
  6
Continuous
 62
     7
370
    25
100
AcDbCircle
 10
89.2178183803
 20
221.8801188363
 30
0.0
 40
0.1540040557430302
100
AcDbArc
 50
90.0
 51
270.0
  0
LINE
  5
2F7
330
1F
100
AcDbEntity
  8
0
  6
Continuous
 62
     7
370
    25
100
AcDbLine
 10
90.603854882
 20
222.0341228921
 30
0.0
 11
89.2178183803
 21
222.0341228921
 31
0.0
  0
ARC
  5
2F8
330
1F
100
AcDbEntity
  8
0
  6
Continuous
 62
     7
370
    25
100
AcDbCircle
 10
90.603854882
 20
221.0801188363
 30
0.0
 40
0.1540040557430302
100
AcDbArc
 50
270.0
 51
90.0
  0
LINE
  5
2F9
330
1F
100
AcDbEntity
  8
0
  6
Continuous
 62
     7
370
    25
100
AcDbLine
 10
89.2178183803
 20
220.9261147806
 30
0.0
 11
90.603854882
 21
220.9261147806
 31
0.0
  0
ARC
  5
2FA
330
1F
100
AcDbEntity
  8
0
  6
Continuous
 62
     7
370
    25
100
AcDbCircle
 10
89.2178183803
 20
221.0801188363
 30
0.0
 40
0.1540040557430302
100
AcDbArc
 50
90.0
 51
270.0
  0
LINE
  5
2FB
330
1F
100
AcDbEntity
  8
0
  6
Continuous
 62
     7
370
    25
100
AcDbLine
 10
90.603854882
 20
221.2341228921
 30
0.0
 11
89.2178183803
 21
221.2341228921
 31
0.0
  0
ARC
  5
2FC
330
1F
100
AcDbEntity
  8
0
  6
Continuous
 62
     7
370
    25
100
AcDbCircle
 10
90.603854882
 20
220.2801188363
 30
0.0
 40
0.1540040557430586
100
AcDbArc
 50
270.0
 51
90.0
  0
LINE
  5
2FD
330
1F
100
AcDbEntity
  8
0
  6
Continuous
 62
     7
370
    25
100
AcDbLine
 10
89.2178183803
 20
220.1261147806
 30
0.0
 11
90.603854882
 21
220.1261147806
 31
0.0
  0
ARC
  5
2FE
330
1F
100
AcDbEntity
  8
0
  6
Continuous
 62
     7
370
    25
100
AcDbCircle
 10
89.2178183803
 20
220.2801188363
 30
0.0
 40
0.1540040557430586
100
AcDbArc
 50
90.0
 51
270.0
  0
LINE
  5
2FF
330
1F
100
AcDbEntity
  8
0
  6
Continuous
 62
     7
370
    25
100
AcDbLine
 10
90.603854882
 20
220.4341228921
 30
0.0
 11
89.2178183803
 21
220.4341228921
 31
0.0
  0
ARC
  5
300
330
1F
100
AcDbEntity
  8
0
  6
Continuous
 62
     7
370
    25
100
AcDbCircle
 10
90.603854882
 20
219.4801188363
 30
0.0
 40
0.1540040557430302
100
AcDbArc
 50
270.0
 51
90.0
  0
LINE
  5
301
330
1F
100
AcDbEntity
  8
0
  6
Continuous
 62
     7
370
    25
100
AcDbLine
 10
89.2178183803
 20
219.3261147806
 30
0.0
 11
90.603854882
 21
219.3261147806
 31
0.0
  0
ARC
  5
302
330
1F
100
AcDbEntity
  8
0
  6
Continuous
 62
     7
370
    25
100
AcDbCircle
 10
89.2178183803
 20
219.4801188363
 30
0.0
 40
0.1540040557430302
100
AcDbArc
 50
90.0
 51
270.0
  0
LINE
  5
303
330
1F
100
AcDbEntity
  8
0
  6
Continuous
 62
     7
370
    25
100
AcDbLine
 10
90.603854882
 20
219.6341228921
 30
0.0
 11
89.2178183803
 21
219.6341228921
 31
0.0
  0
ARC
  5
304
330
1F
100
AcDbEntity
  8
0
  6
Continuous
 62
     7
370
    25
100
AcDbCircle
 10
90.603854882
 20
218.6801188363
 30
0.0
 40
0.1540040557430586
100
AcDbArc
 50
270.0
 51
90.0
  0
LINE
  5
305
330
1F
100
AcDbEntity
  8
0
  6
Continuous
 62
     7
370
    25
100
AcDbLine
 10
89.2178183803
 20
218.5261147806
 30
0.0
 11
90.603854882
 21
218.5261147806
 31
0.0
  0
ARC
  5
306
330
1F
100
AcDbEntity
  8
0
  6
Continuous
 62
     7
370
    25
100
AcDbCircle
 10
89.2178183803
 20
218.6801188363
 30
0.0
 40
0.1540040557430586
100
AcDbArc
 50
90.0
 51
270.0
  0
LINE
  5
307
330
1F
100
AcDbEntity
  8
0
  6
Continuous
 62
     7
370
    25
100
AcDbLine
 10
90.603854882
 20
218.8341228921
 30
0.0
 11
89.2178183803
 21
218.8341228921
 31
0.0
  0
ARC
  5
308
330
1F
100
AcDbEntity
  8
0
  6
Continuous
 62
     7
370
    25
100
AcDbCircle
 10
90.603854882
 20
217.8801188363
 30
0.0
 40
0.1540040557430302
100
AcDbArc
 50
270.0
 51
90.0
  0
LINE
  5
309
330
1F
100
AcDbEntity
  8
0
  6
Continuous
 62
     7
370
    25
100
AcDbLine
 10
89.2178183803
 20
217.7261147806
 30
0.0
 11
90.603854882
 21
217.7261147806
 31
0.0
  0
ARC
  5
30A
330
1F
100
AcDbEntity
  8
0
  6
Continuous
 62
     7
370
    25
100
AcDbCircle
 10
89.2178183803
 20
217.8801188363
 30
0.0
 40
0.1540040557430302
100
AcDbArc
 50
90.0
 51
270.0
  0
LINE
  5
30B
330
1F
100
AcDbEntity
  8
0
  6
Continuous
 62
     7
370
    25
100
AcDbLine
 10
90.603854882
 20
218.0341228921
 30
0.0
 11
89.2178183803
 21
218.0341228921
 31
0.0
  0
ARC
  5
30C
330
1F
100
AcDbEntity
  8
0
  6
Continuous
 62
     7
370
    25
100
AcDbCircle
 10
90.603854882
 20
217.0801188363
 30
0.0
 40
0.1540040557430302
100
AcDbArc
 50
270.0
 51
90.0
  0
LINE
  5
30D
330
1F
100
AcDbEntity
  8
0
  6
Continuous
 62
     7
370
    25
100
AcDbLine
 10
89.2178183803
 20
216.9261147806
 30
0.0
 11
90.603854882
 21
216.9261147806
 31
0.0
  0
ARC
  5
30E
330
1F
100
AcDbEntity
  8
0
  6
Continuous
 62
     7
370
    25
100
AcDbCircle
 10
89.2178183803
 20
217.0801188363
 30
0.0
 40
0.1540040557430302
100
AcDbArc
 50
90.0
 51
270.0
  0
LINE
  5
30F
330
1F
100
AcDbEntity
  8
0
  6
Continuous
 62
     7
370
    25
100
AcDbLine
 10
90.603854882
 20
217.2341228921
 30
0.0
 11
89.2178183803
 21
217.2341228921
 31
0.0
  0
ARC
  5
310
330
1F
100
AcDbEntity
  8
0
  6
Continuous
 62
     7
370
    25
100
AcDbCircle
 10
90.603854882
 20
216.2801188363
 30
0.0
 40
0.1540040557430302
100
AcDbArc
 50
270.0
 51
90.0
  0
LINE
  5
311
330
1F
100
AcDbEntity
  8
0
  6
Continuous
 62
     7
370
    25
100
AcDbLine
 10
89.2178183803
 20
216.1261147806
 30
0.0
 11
90.603854882
 21
216.1261147806
 31
0.0
  0
ARC
  5
312
330
1F
100
AcDbEntity
  8
0
  6
Continuous
 62
     7
370
    25
100
AcDbCircle
 10
89.2178183803
 20
216.2801188363
 30
0.0
 40
0.1540040557430302
100
AcDbArc
 50
90.0
 51
270.0
  0
LINE
  5
313
330
1F
100
AcDbEntity
  8
0
  6
Continuous
 62
     7
370
    25
100
AcDbLine
 10
90.603854882
 20
216.4341228921
 30
0.0
 11
89.2178183803
 21
216.4341228921
 31
0.0
  0
ARC
  5
314
330
1F
100
AcDbEntity
  8
0
  6
Continuous
 62
     7
370
    25
100
AcDbCircle
 10
90.603854882
 20
215.4801188363
 30
0.0
 40
0.1540040557430302
100
AcDbArc
 50
270.0
 51
90.0
  0
LINE
  5
315
330
1F
100
AcDbEntity
  8
0
  6
Continuous
 62
     7
370
    25
100
AcDbLine
 10
89.2178183803
 20
215.3261147806
 30
0.0
 11
90.603854882
 21
215.3261147806
 31
0.0
  0
ARC
  5
316
330
1F
100
AcDbEntity
  8
0
  6
Continuous
 62
     7
370
    25
100
AcDbCircle
 10
89.2178183803
 20
215.4801188363
 30
0.0
 40
0.1540040557430302
100
AcDbArc
 50
90.0
 51
270.0
  0
LINE
  5
317
330
1F
100
AcDbEntity
  8
0
  6
Continuous
 62
     7
370
    25
100
AcDbLine
 10
90.603854882
 20
215.6341228921
 30
0.0
 11
89.2178183803
 21
215.6341228921
 31
0.0
  0
ARC
  5
318
330
1F
100
AcDbEntity
  8
0
  6
Continuous
 62
     7
370
    25
100
AcDbCircle
 10
90.603854882
 20
214.6801188363
 30
0.0
 40
0.1540040557430586
100
AcDbArc
 50
270.0
 51
90.0
  0
LINE
  5
319
330
1F
100
AcDbEntity
  8
0
  6
Continuous
 62
     7
370
    25
100
AcDbLine
 10
89.2178183803
 20
214.5261147806
 30
0.0
 11
90.603854882
 21
214.5261147806
 31
0.0
  0
ARC
  5
31A
330
1F
100
AcDbEntity
  8
0
  6
Continuous
 62
     7
370
    25
100
AcDbCircle
 10
89.2178183803
 20
214.6801188363
 30
0.0
 40
0.1540040557430586
100
AcDbArc
 50
90.0
 51
270.0
  0
LINE
  5
31B
330
1F
100
AcDbEntity
  8
0
  6
Continuous
 62
     7
370
    25
100
AcDbLine
 10
90.603854882
 20
214.8341228921
 30
0.0
 11
89.2178183803
 21
214.8341228921
 31
0.0
  0
LINE
  5
31C
330
1F
100
AcDbEntity
  8
0
  6
Continuous
 62
     7
370
    25
100
AcDbLine
 10
71.7268403296
 20
230.0201567313
 30
0.0
 11
71.7268403296
 21
233.0467019719
 31
0.0
  0
LINE
  5
31D
330
1F
100
AcDbEntity
  8
0
  6
Continuous
 62
     7
370
    25
100
AcDbLine
 10
68.5196058208
 20
230.0201567313
 30
0.0
 11
71.7268403296
 21
230.0201567313
 31
0.0
  0
LINE
  5
31E
330
1F
100
AcDbEntity
  8
0
  6
Continuous
 62
     7
370
    25
100
AcDbLine
 10
68.5196058208
 20
233.0467019719
 30
0.0
 11
68.5196058208
 21
230.0201567313
 31
0.0
  0
LINE
  5
31F
330
1F
100
AcDbEntity
  8
0
  6
Continuous
 62
     7
370
    25
100
AcDbLine
 10
71.7268403296
 20
233.0467019719
 30
0.0
 11
68.5196058208
 21
233.0467019719
 31
0.0
  0
ENDSEC
  0
SECTION
  2
OBJECTS
  0
DICTIONARY
  5
C
330
0
100
AcDbDictionary
281
     1
  3
ACAD_GROUP
350
D
  3
ACAD_LAYOUT
350
1A
  3
ACAD_MLINESTYLE
350
17
  3
ACAD_PLOTSETTINGS
350
19
  3
ACAD_PLOTSTYLENAME
350
E
  3
ACAD_SCALELIST
350
47
  0
DICTIONARY
  5
D
102
{ACAD_REACTORS
330
C
102
}
330
C
100
AcDbDictionary
281
     1
  0
DICTIONARY
  5
1A
102
{ACAD_REACTORS
330
C
102
}
330
C
100
AcDbDictionary
281
     1
  3
Layout1
350
1E
  3
Layout2
350
26
  3
Model
350
22
  0
DICTIONARY
  5
17
102
{ACAD_REACTORS
330
C
102
}
330
C
100
AcDbDictionary
281
     1
  3
Standard
350
18
  0
DICTIONARY
  5
19
102
{ACAD_REACTORS
330
C
102
}
330
C
100
AcDbDictionary
281
     1
  0
ACDBDICTIONARYWDFLT
  5
E
102
{ACAD_REACTORS
330
C
102
}
330
C
100
AcDbDictionary
281
     1
  3
Normal
350
F
100
AcDbDictionaryWithDefault
340
F
  0
DICTIONARY
  5
47
102
{ACAD_REACTORS
330
C
102
}
330
C
100
AcDbDictionary
281
     1
  3
A0
350
48
  3
A1
350
49
  3
A2
350
4A
  3
A3
350
4B
  3
A4
350
4C
  3
A5
350
4D
  3
A6
350
4E
  3
A7
350
4F
  3
A8
350
50
  3
A9
350
51
  3
B0
350
52
  3
B1
350
53
  3
B2
350
54
  3
B3
350
55
  3
B4
350
56
  3
B5
350
57
  3
B6
350
58
  3
B7
350
59
  3
B8
350
5A
  3
B9
350
5B
  3
C0
350
5C
  3
C1
350
5D
  3
C2
350
5E
  3
C3
350
5F
  3
C4
350
60
  3
C5
350
61
  3
C6
350
62
  3
C7
350
63
  3
C8
350
64
  3
C9
350
65
  3
D0
350
66
  3
D1
350
67
  3
D2
350
68
  0
LAYOUT
  5
1E
102
{ACAD_REACTORS
330
1A
102
}
330
1A
100
AcDbPlotSettings
  1

  2
none_device
  4

  6

 40
0.0
 41
0.0
 42
0.0
 43
0.0
 44
0.0
 45
0.0
 46
0.0
 47
0.0
 48
0.0
 49
0.0
140
0.0
141
0.0
142
1.0
143
1.0
 70
   688
 72
     1
 73
     0
 74
     5
  7

 75
    16
147
1.0
148
0.0
149
0.0
100
AcDbLayout
  1
Layout1
 70
     1
 71
     1
 10
0.0
 20
0.0
 11
420.0
 21
297.0
 12
0.0
 22
0.0
 32
0.0
 14
1.0000000000E+20
 24
1.0000000000E+20
 34
1.0000000000E+20
 15
-1.0000000000E+20
 25
-1.0000000000E+20
 35
-1.0000000000E+20
146
0.0
 13
0.0
 23
0.0
 33
0.0
 16
1.0
 26
0.0
 36
0.0
 17
0.0
 27
1.0
 37
0.0
 76
     0
330
1B
  0
LAYOUT
  5
26
102
{ACAD_REACTORS
330
1A
102
}
330
1A
100
AcDbPlotSettings
  1

  2
none_device
  4

  6

 40
0.0
 41
0.0
 42
0.0
 43
0.0
 44
0.0
 45
0.0
 46
0.0
 47
0.0
 48
0.0
 49
0.0
140
0.0
141
0.0
142
1.0
143
1.0
 70
   688
 72
     1
 73
     0
 74
     5
  7

 75
    16
147
1.0
148
0.0
149
0.0
100
AcDbLayout
  1
Layout2
 70
     1
 71
     2
 10
0.0
 20
0.0
 11
0.0
 21
0.0
 12
0.0
 22
0.0
 32
0.0
 14
0.0
 24
0.0
 34
0.0
 15
0.0
 25
0.0
 35
0.0
146
0.0
 13
0.0
 23
0.0
 33
0.0
 16
1.0
 26
0.0
 36
0.0
 17
0.0
 27
1.0
 37
0.0
 76
     0
330
23
  0
LAYOUT
  5
22
102
{ACAD_REACTORS
330
1A
102
}
330
1A
100
AcDbPlotSettings
  1

  2
none_device
  4
ANSI_A_(11.00_x_8.50_Inches)
  6

 40
6.35
 41
19.05
 42
6.35000508
 43
19.05000254
 44
279.4
 45
215.9
 46
-426.7109913667
 47
-1278.6421361288
 48
0.0
 49
0.0
140
0.0
141
0.0
142
0.2439858915
143
1.0
 70
  1696
 72
     0
 73
     0
 74
     0
  7

 75
     0
147
0.0179189148
148
-1300.4909072572
149
0.0
100
AcDbLayout
  1
Model
 70
     1
 71
     0
 10
0.0
 20
0.0
 11
420.0
 21
297.0
 12
0.0
 22
0.0
 32
0.0
 14
68.055759823
 24
207.8980368426
 34
0.0
 15
112.6894881703
 25
233.440937372
 35
0.0
146
0.0
 13
0.0
 23
0.0
 33
0.0
 16
1.0
 26
0.0
 36
0.0
 17
0.0
 27
1.0
 37
0.0
 76
     0
330
1F
331
29
  0
MLINESTYLE
  5
18
102
{ACAD_REACTORS
330
17
102
}
330
17
100
AcDbMlineStyle
  2
Standard
 70
     0
  3

 62
   256
 51
90.0
 52
90.0
 71
     2
 49
0.5
 62
   256
  6
BYLAYER
 49
-0.5
 62
   256
  6
BYLAYER
  0
ACDBPLACEHOLDER
  5
F
102
{ACAD_REACTORS
330
E
102
}
330
E
  0
SCALE
  5
48
102
{ACAD_REACTORS
330
47
102
}
330
47
100
AcDbScale
 70
     0
300
1:1
140
1.0
141
1.0
290
     1
  0
SCALE
  5
49
102
{ACAD_REACTORS
330
47
102
}
330
47
100
AcDbScale
 70
     0
300
1:2
140
1.0
141
2.0
290
     0
  0
SCALE
  5
4A
102
{ACAD_REACTORS
330
47
102
}
330
47
100
AcDbScale
 70
     0
300
1:4
140
1.0
141
4.0
290
     0
  0
SCALE
  5
4B
102
{ACAD_REACTORS
330
47
102
}
330
47
100
AcDbScale
 70
     0
300
1:5
140
1.0
141
5.0
290
     0
  0
SCALE
  5
4C
102
{ACAD_REACTORS
330
47
102
}
330
47
100
AcDbScale
 70
     0
300
1:8
140
1.0
141
8.0
290
     0
  0
SCALE
  5
4D
102
{ACAD_REACTORS
330
47
102
}
330
47
100
AcDbScale
 70
     0
300
1:10
140
1.0
141
10.0
290
     0
  0
SCALE
  5
4E
102
{ACAD_REACTORS
330
47
102
}
330
47
100
AcDbScale
 70
     0
300
1:16
140
1.0
141
16.0
290
     0
  0
SCALE
  5
4F
102
{ACAD_REACTORS
330
47
102
}
330
47
100
AcDbScale
 70
     0
300
1:20
140
1.0
141
20.0
290
     0
  0
SCALE
  5
50
102
{ACAD_REACTORS
330
47
102
}
330
47
100
AcDbScale
 70
     0
300
1:30
140
1.0
141
30.0
290
     0
  0
SCALE
  5
51
102
{ACAD_REACTORS
330
47
102
}
330
47
100
AcDbScale
 70
     0
300
1:40
140
1.0
141
40.0
290
     0
  0
SCALE
  5
52
102
{ACAD_REACTORS
330
47
102
}
330
47
100
AcDbScale
 70
     0
300
1:50
140
1.0
141
50.0
290
     0
  0
SCALE
  5
53
102
{ACAD_REACTORS
330
47
102
}
330
47
100
AcDbScale
 70
     0
300
1:100
140
1.0
141
100.0
290
     0
  0
SCALE
  5
54
102
{ACAD_REACTORS
330
47
102
}
330
47
100
AcDbScale
 70
     0
300
2:1
140
2.0
141
1.0
290
     0
  0
SCALE
  5
55
102
{ACAD_REACTORS
330
47
102
}
330
47
100
AcDbScale
 70
     0
300
4:1
140
4.0
141
1.0
290
     0
  0
SCALE
  5
56
102
{ACAD_REACTORS
330
47
102
}
330
47
100
AcDbScale
 70
     0
300
8:1
140
8.0
141
1.0
290
     0
  0
SCALE
  5
57
102
{ACAD_REACTORS
330
47
102
}
330
47
100
AcDbScale
 70
     0
300
10:1
140
10.0
141
1.0
290
     0
  0
SCALE
  5
58
102
{ACAD_REACTORS
330
47
102
}
330
47
100
AcDbScale
 70
     0
300
100:1
140
100.0
141
1.0
290
     0
  0
SCALE
  5
59
102
{ACAD_REACTORS
330
47
102
}
330
47
100
AcDbScale
 70
     0
300
1/128" = 1'-0"
140
0.0078125
141
12.0
290
     0
  0
SCALE
  5
5A
102
{ACAD_REACTORS
330
47
102
}
330
47
100
AcDbScale
 70
     0
300
1/64" = 1'-0"
140
0.015625
141
12.0
290
     0
  0
SCALE
  5
5B
102
{ACAD_REACTORS
330
47
102
}
330
47
100
AcDbScale
 70
     0
300
1/32" = 1'-0"
140
0.03125
141
12.0
290
     0
  0
SCALE
  5
5C
102
{ACAD_REACTORS
330
47
102
}
330
47
100
AcDbScale
 70
     0
300
1/16" = 1'-0"
140
0.0625
141
12.0
290
     0
  0
SCALE
  5
5D
102
{ACAD_REACTORS
330
47
102
}
330
47
100
AcDbScale
 70
     0
300
3/32" = 1'-0"
140
0.09375
141
12.0
290
     0
  0
SCALE
  5
5E
102
{ACAD_REACTORS
330
47
102
}
330
47
100
AcDbScale
 70
     0
300
1/8" = 1'-0"
140
0.125
141
12.0
290
     0
  0
SCALE
  5
5F
102
{ACAD_REACTORS
330
47
102
}
330
47
100
AcDbScale
 70
     0
300
3/16" = 1'-0"
140
0.1875
141
12.0
290
     0
  0
SCALE
  5
60
102
{ACAD_REACTORS
330
47
102
}
330
47
100
AcDbScale
 70
     0
300
1/4" = 1'-0"
140
0.25
141
12.0
290
     0
  0
SCALE
  5
61
102
{ACAD_REACTORS
330
47
102
}
330
47
100
AcDbScale
 70
     0
300
3/8" = 1'-0"
140
0.375
141
12.0
290
     0
  0
SCALE
  5
62
102
{ACAD_REACTORS
330
47
102
}
330
47
100
AcDbScale
 70
     0
300
1/2" = 1'-0"
140
0.5
141
12.0
290
     0
  0
SCALE
  5
63
102
{ACAD_REACTORS
330
47
102
}
330
47
100
AcDbScale
 70
     0
300
3/4" = 1'-0"
140
0.75
141
12.0
290
     0
  0
SCALE
  5
64
102
{ACAD_REACTORS
330
47
102
}
330
47
100
AcDbScale
 70
     0
300
1" = 1'-0"
140
1.0
141
12.0
290
     0
  0
SCALE
  5
65
102
{ACAD_REACTORS
330
47
102
}
330
47
100
AcDbScale
 70
     0
300
1-1/2" = 1'-0"
140
1.5
141
12.0
290
     0
  0
SCALE
  5
66
102
{ACAD_REACTORS
330
47
102
}
330
47
100
AcDbScale
 70
     0
300
3" = 1'-0"
140
3.0
141
12.0
290
     0
  0
SCALE
  5
67
102
{ACAD_REACTORS
330
47
102
}
330
47
100
AcDbScale
 70
     0
300
6" = 1'-0"
140
6.0
141
12.0
290
     0
  0
SCALE
  5
68
102
{ACAD_REACTORS
330
47
102
}
330
47
100
AcDbScale
 70
     0
300
1'-0" = 1'-0"
140
12.0
141
12.0
290
     0
  0
ENDSEC
  0
EOF
